<svg width="48" height="48" viewBox="0 0 48 48" fill="none" xmlns="http://www.w3.org/2000/svg">
<rect width="48" height="48" rx="8" fill="white"/>
<path d="M40.56 6H7.44C6.6435 6 6 6.6435 6 7.44V40.56C6 41.3565 6.6435 42 7.44 42H40.56C41.3565 42 42 41.3565 42 40.56V7.44C42 6.6435 41.3565 6 40.56 6ZM36.402 16.5075H33.5265C31.272 16.5075 30.8355 17.5785 30.8355 19.1535V22.623H36.2175L35.5155 28.0545H30.8355V42H25.224V28.059H20.5305V22.623H25.224V18.618C25.224 13.9695 28.0635 11.436 32.2125 11.436C34.2015 11.436 35.907 11.5845 36.4065 11.652V16.5075H36.402Z" fill="#054BBD"/>
</svg>
