<svg width="48" height="48" viewBox="0 0 48 48" fill="none" xmlns="http://www.w3.org/2000/svg">
<rect width="48" height="48" rx="8" fill="white"/>
<path d="M43.6 16.1333C43.6 16.1333 43.2 13.3333 42 12.1333C40.5333 10.5333 38.8 10.5333 38 10.4C32.4 10 24 10 24 10C24 10 15.6 10 10 10.4C9.2 10.5333 7.46667 10.5333 6 12.1333C4.8 13.3333 4.4 16.1333 4.4 16.1333C4.4 16.1333 4 19.3333 4 22.5333V25.4667C4 28.6667 4.4 32 4.4 32C4.4 32 4.8 34.8 6 36C7.46667 37.6 9.46667 37.6 10.4 37.7333C13.6 37.8667 24 38 24 38C24 38 32.4 38 38 37.6C38.8 37.4667 40.5333 37.4667 42 35.8667C43.2 34.6667 43.6 31.8667 43.6 31.8667C43.6 31.8667 44 28.6667 44 25.4667V22.5333C44 19.3333 43.6 16.1333 43.6 16.1333ZM19.8667 29.2V18L30.6667 23.6L19.8667 29.2Z" fill="#FF5858"/>
</svg>
