<svg width="48" height="48" viewBox="0 0 48 48" fill="none" xmlns="http://www.w3.org/2000/svg">
<rect width="48" height="48" rx="8" fill="white"/>
<path d="M12.7659 35.9375C12.6283 35.8783 12.529 35.8116 12.6895 35.6783C12.7888 35.6043 12.8958 35.5376 13.0027 35.471C14.0038 34.8416 14.9436 34.1529 15.5626 33.1384C16.0822 32.2943 15.9981 31.7981 15.3486 31.1761C11.7267 27.6662 10.1373 23.4676 10.932 18.5063C11.3828 15.7073 12.7047 13.2859 14.6303 11.1829C15.7918 9.90922 17.1749 8.87994 18.6879 8.02097C18.7795 7.96914 18.9095 7.95433 18.9247 7.82104C18.8942 7.74699 18.8407 7.76921 18.7948 7.76921C16.2197 7.76921 13.6446 7.71737 11.0771 7.78402C8.61665 7.85806 6.49238 9.70189 6.50002 12.3454C6.5153 20.0688 6.50002 27.7921 6.50002 35.5228C6.50002 37.922 8.38742 39.9287 10.8555 40.0176C12.9416 40.0991 15.0277 40.0324 17.1214 40.025C17.2742 40.0324 17.427 40.0398 17.5799 40.0398H28.6139C31.3647 40.0398 34.1156 40.0546 36.8664 40.0398C39.4186 40.0398 41.4894 38.0405 41.4894 35.5747V35.5302V31.1983C41.4894 31.0947 41.5276 30.9836 41.4589 30.8725C41.3213 30.8799 41.2678 30.991 41.1914 31.0651C39.709 32.509 37.9592 33.6716 36.0412 34.4935C31.3418 36.5003 26.5584 36.641 21.7062 35.0267C21.2859 34.8786 20.8274 34.8638 20.3919 34.9674C19.75 35.123 19.1158 35.3081 18.4815 35.4932C16.6171 36.056 14.7144 36.3077 12.7659 35.9375ZM18.3058 23.4602C18.4357 23.2973 18.5045 23.201 18.5809 23.1048C19.5819 21.8756 20.5829 20.6463 21.5839 19.4097C21.8743 19.0543 22.1646 18.6915 22.348 18.262C22.562 17.7732 22.3327 17.3141 21.8131 17.1364C21.5839 17.0698 21.3394 17.0402 21.0949 17.055C19.7347 17.0476 18.3669 17.0476 17.0068 17.055C16.8157 17.055 16.6247 17.0772 16.4413 17.1216C16.0134 17.2253 15.7536 17.6474 15.8606 18.0694C15.937 18.3508 16.1662 18.573 16.4566 18.6396C16.64 18.684 16.831 18.7063 17.0221 18.6989C17.8473 18.7063 18.6802 18.6989 19.5055 18.7063C19.5972 18.7063 19.7118 18.647 19.7806 18.7803C19.7118 18.8692 19.643 18.958 19.5742 19.0395C18.3898 20.4908 17.2131 21.9496 16.0287 23.401C15.7383 23.7638 15.5855 24.1637 15.7995 24.608C16.0134 25.0523 16.449 25.1337 16.8922 25.1633C17.2437 25.1856 17.6028 25.1707 17.9619 25.1707C19.1998 25.1707 20.4301 25.1782 21.668 25.1633C22.3251 25.1559 22.6766 24.7709 22.6078 24.1785C22.5543 23.712 22.2258 23.4676 21.6145 23.4602C20.537 23.4528 19.4596 23.4602 18.3058 23.4602ZM27.1697 19.5652C26.2145 18.7581 25.16 18.7063 24.1284 19.2987C22.8753 20.0095 22.4168 21.1721 22.5696 22.5198C22.7148 23.7786 23.2803 24.8079 24.6404 25.23C25.4886 25.4966 26.2756 25.4003 26.971 24.8523C27.1544 24.7116 27.2079 24.7413 27.3378 24.8968C27.5899 25.2078 28.0255 25.3263 28.4076 25.1856C28.7896 25.0745 29.0418 24.7339 29.0418 24.3488C29.0494 22.8678 29.0571 21.3868 29.0418 19.9059C29.0341 19.3135 28.461 18.9358 27.865 19.0543C27.5365 19.1209 27.3531 19.3357 27.1697 19.5652ZM32.4651 22.3125C32.4345 24.1637 34.0163 25.5632 36.003 25.3707C37.8293 25.193 39.0136 23.8675 38.9525 21.994C38.8914 20.1428 37.4701 18.8766 35.5216 18.9358C33.6953 18.9876 32.4039 20.4094 32.4651 22.3125ZM31.7926 20.8389C31.7926 19.6763 31.8003 18.5211 31.7926 17.3586C31.7926 16.7662 31.4029 16.3959 30.8222 16.4033C30.2567 16.4107 29.8823 16.781 29.8747 17.3512C29.867 17.6992 29.8747 18.0398 29.8747 18.3878V24.2748C29.8747 24.7339 30.165 25.1337 30.5471 25.23C31.0744 25.3707 31.6169 25.0671 31.7544 24.5561C31.7774 24.4673 31.7926 24.3784 31.785 24.2822C31.8003 23.1344 31.7926 21.9866 31.7926 20.8389Z" fill="#FDFEFE"/>
<path d="M17.1792 40.2032C15.0817 40.2032 12.9766 40.2703 10.8792 40.1958C8.39766 40.0989 6.5 38.0795 6.5 35.6725C6.5 27.9002 6.51537 20.1279 6.5 12.3481C6.5 9.68777 8.64352 7.83225 11.1097 7.76519C13.6911 7.69812 16.2803 7.75028 18.8694 7.75028C18.9155 7.75028 18.977 7.72793 19 7.80245C18.9846 7.93658 18.8463 7.95148 18.7618 8.00365C17.2406 8.86807 15.85 9.90388 14.6822 11.1856C12.7538 13.3019 11.417 15.7313 10.9637 18.5555C10.1647 23.5408 11.7704 27.7735 15.4044 31.3057C16.0498 31.9391 16.1343 32.4309 15.6195 33.2804C14.9972 34.3013 14.3815 35.2415 13.375 35.8749C13.2674 35.9345 13.2905 35.9668 13.1829 36.0338C13.0216 36.168 13.2367 36.2354 13.375 36.295C13.4057 36.362 13.3289 36.4213 13.375 36.481C14.2585 37.241 14.6361 37.8484 15.5043 38.6234C15.9115 38.9886 16.3187 39.3686 16.7105 39.7487C16.8718 39.8903 17.1407 39.935 17.1792 40.2032Z" fill="#0068FF"/>
<path d="M17.2886 40.2186C17.2506 39.9361 16.68 39.9222 16.5207 39.7527C16.1338 39.3329 15.9802 39.1535 15.5781 38.758C14.7208 37.9185 13.8367 36.9314 12.9642 36.1081C12.9187 36.0435 12.7803 35.8465 12.75 35.7738C14.6846 36.1774 16.7879 35.8841 18.6465 35.2787C19.2762 35.0769 19.9059 34.8751 20.5432 34.7056C20.9756 34.5845 21.4308 34.6087 21.848 34.7702C26.6579 36.5298 31.407 36.3684 36.0803 34.189C37.9845 33.293 39.7218 32.0339 41.1936 30.4599C41.2695 30.3791 41.3226 30.2581 41.4591 30.25C41.5274 30.363 41.4895 30.4841 41.4895 30.6052V35.3271C41.5047 38.0231 39.4715 40.2186 36.9376 40.2428H36.8997C34.1685 40.259 31.4374 40.2428 28.7062 40.2428H17.7438C17.592 40.2267 17.4403 40.2186 17.2886 40.2186Z" fill="#005BE0"/>
<path d="M18.3481 23.5357C19.5275 23.5357 20.6367 23.5282 21.738 23.5357C22.3551 23.5432 22.6909 23.7915 22.7534 24.2655C22.8237 24.8599 22.4644 25.2586 21.7927 25.2661C20.5273 25.2812 19.2697 25.2736 18.0044 25.2736C17.6373 25.2736 17.278 25.2887 16.9108 25.2661C16.4578 25.2436 16.0126 25.1533 15.7939 24.7019C15.5752 24.2505 15.7314 23.8442 16.0282 23.4755C17.2311 22.0009 18.4418 20.5188 19.6525 19.0442C19.7228 18.9539 19.7931 18.8636 19.8634 18.7809C19.7853 18.653 19.6759 18.7132 19.5822 18.7056C18.7386 18.6981 17.8872 18.7056 17.0436 18.6981C16.8484 18.6981 16.6531 18.6755 16.4656 18.6379C16.0204 18.5401 15.747 18.1113 15.8486 17.69C15.9189 17.4041 16.1532 17.1709 16.45 17.1031C16.6375 17.058 16.8327 17.0354 17.028 17.0354C18.4184 17.0279 19.8165 17.0279 21.2069 17.0354C21.4568 17.0279 21.6989 17.058 21.9411 17.1182C22.4722 17.2912 22.6987 17.7652 22.4879 18.2618C22.3004 18.6906 22.0036 19.0592 21.7068 19.4279C20.6835 20.6843 19.6603 21.9332 18.6371 23.1746C18.5511 23.2724 18.473 23.3702 18.3481 23.5357Z" fill="#0068FF"/>
<path d="M27.1006 19.4825C27.2861 19.254 27.4793 19.0403 27.7961 18.9813C28.4066 18.8634 28.9784 19.2393 28.9861 19.8289C29.0093 21.303 29.0016 22.7772 28.9861 24.2513C28.9861 24.6346 28.7234 24.9736 28.3447 25.0842C27.9584 25.2242 27.5179 25.1136 27.2629 24.7967C27.1315 24.6419 27.0774 24.6124 26.892 24.7525C26.1888 25.2979 25.3929 25.3937 24.5351 25.1284C23.1596 24.7009 22.5955 23.6764 22.441 22.4307C22.2787 21.0819 22.7501 19.9321 24.0174 19.2245C25.0683 18.6275 26.1347 18.6791 27.1006 19.4825ZM24.3651 22.1728C24.3806 22.4971 24.4888 22.8066 24.6897 23.0646C25.107 23.5953 25.9029 23.7059 26.467 23.3078C26.5597 23.2415 26.6447 23.1604 26.722 23.0646C27.1547 22.5045 27.1547 21.5831 26.722 21.023C26.5056 20.7355 26.1656 20.566 25.8024 20.5586C24.9524 20.507 24.3574 21.1335 24.3651 22.1728ZM32.4557 22.217C32.3939 20.3228 33.6998 18.9076 35.5544 18.856C37.5249 18.797 38.9622 20.0574 39.024 21.9001C39.0858 23.7648 37.8881 25.0842 36.0412 25.2611C34.0244 25.4527 32.4248 24.0596 32.4557 22.217ZM34.3953 22.0401C34.3799 22.4086 34.4958 22.7698 34.7276 23.072C35.1526 23.6027 35.9485 23.7059 36.5049 23.2931C36.5899 23.2341 36.6594 23.1604 36.729 23.0867C37.1772 22.5266 37.1772 21.5831 36.7367 21.023C36.5203 20.7429 36.1803 20.566 35.8172 20.5586C34.9826 20.5144 34.3953 21.1188 34.3953 22.0401ZM31.7757 20.7503C31.7757 21.8927 31.7834 23.0351 31.7757 24.1776C31.7834 24.7009 31.3507 25.1358 30.8021 25.1505C30.7093 25.1505 30.6089 25.1431 30.5161 25.121C30.1298 25.0252 29.8361 24.6346 29.8361 24.1702V18.3106C29.8361 17.9642 29.8284 17.6251 29.8361 17.2787C29.8439 16.7112 30.2225 16.3426 30.7943 16.3426C31.3816 16.3353 31.7757 16.7038 31.7757 17.2934C31.7834 18.4433 31.7757 19.6004 31.7757 20.7503Z" fill="#0068FF"/>
<path d="M24.5313 22.2997C24.5238 21.3466 25.1035 20.772 25.9241 20.8126C26.2779 20.8261 26.6091 20.9816 26.8199 21.2452C27.2415 21.7522 27.2415 22.6039 26.8199 23.1177C26.4134 23.6044 25.638 23.7058 25.0884 23.3408C24.9981 23.2799 24.9153 23.2056 24.84 23.1177C24.6518 22.8811 24.5464 22.5972 24.5313 22.2997ZM34.303 22.1781C34.303 21.3398 34.8752 20.7788 35.6882 20.8193C36.0421 20.8261 36.3733 20.9883 36.5841 21.2452C37.0132 21.7589 37.0132 22.631 36.5766 23.138C36.155 23.6179 35.372 23.699 34.8375 23.3205C34.7547 23.2664 34.687 23.1988 34.6267 23.1244C34.4009 22.8473 34.2955 22.516 34.303 22.1781Z" fill="#FDFEFE"/>
</svg>
