<svg id="Layer_1" data-name="Layer 1" xmlns="http://www.w3.org/2000/svg" viewBox="0 0 113.39 113.39"><defs><style>.cls-1{fill:#3256a6;}.cls-2{fill:#fefcfc;}.cls-3{fill:#df1f26;}</style></defs><g id="kthuat-cnghe"><path class="cls-1" d="M71.55,109.12c-2.27-2-4-4.21-4.16-7.59-.14-3.77-2.48-4.59-6-3.65-6.83,1.83-7.41,1.28-12.31-6.77-2.78-4.57-2.27-8.13,2-11.32,2.89-2.15,2.37-4.35,0-6.67-4.93-4.72-5-5.55-1.33-12.11s5.37-7.68,11.4-5.93c4.18,1.2,6-.1,6.44-4.28.59-5.25,4.38-6.1,8.8-6.12,7.69,0,10,1.07,11.24,5.83,1.52,5.58,2.27,6.08,7.57,3.93,3.59-1.45,6.17-.92,8,2.61.62,1.19,1.4,2.29,2.07,3.47,4.14,7.2,4.17,7.23-1.53,13.08-2.06,2.11-2.07,3.8.12,5.93,5.15,5,5.3,6.62,1.9,12.57-4,7-5.16,7.65-12.2,5.93-2.66-.65-5.2-.38-5.39,2.64-.3,5-3.17,7.26-7.5,8.46Zm31.07-42.06c0-2.75-4.52-7.59-6.51-7.24-9.41,1.63-10.26,1.29-13.36-7.27-1.33-3.68-4.15-1.88-6.34-2.23-1.9-.29-3.33,0-4,2.59-1.81,7.08-5.2,9.23-12.12,7.23-3.49-1-4.42.71-5.77,3-1.55,2.59-1.94,4.53.74,6.94,4.63,4.16,4.52,8.92.18,13-1.7,1.61-3.78,2.72-1.7,5.62,1.89,2.64,3,5.37,7.38,4,5.55-1.78,10.26,1.12,11.14,6.8.48,3.15,1.72,4,4.52,3.66,2.6-.28,5.48,1,6.25-3.57,1.07-6.41,6-9,12-6.48,3.69,1.55,4.52-.83,5.67-2.91s3.45-4-.11-6.71c-5.34-4-5.16-8.9-.4-13.72C101.09,68.86,102.51,68.34,102.62,67.06Z"/><path class="cls-1" d="M88.92,76.47a11.22,11.22,0,1,1-22.43.11,11.22,11.22,0,1,1,22.43-.11Zm-10.63-6c-3.93,0-6.8,2.69-6.69,6,.13,3.72,2.23,5.9,5.86,6.27a6,6,0,0,0,6.32-6.25A5.87,5.87,0,0,0,78.29,70.52Z"/><path class="cls-2" d="M78.29,70.52a5.86,5.86,0,0,1,5.48,6,6,6,0,0,1-6.31,6.25c-3.64-.36-5.74-2.54-5.86-6.27C71.49,73.21,74.35,70.5,78.29,70.52Z"/><path class="cls-1" d="M32.43,58.3c-1.9-1.71-3.38-3.53-3.49-6.37-.12-3.16-2.07-3.85-5-3.06C18.21,50.4,17.72,50,13.61,43.19c-2.33-3.83-1.9-6.82,1.69-9.49,2.42-1.8,2-3.65,0-5.59-4.14-4-4.17-4.66-1.12-10.16s4.51-6.44,9.56-5c3.5,1,5-.08,5.4-3.59.49-4.4,3.68-5.11,7.38-5.13,6.45,0,8.35.9,9.44,4.89,1.27,4.68,1.89,5.1,6.34,3.3,3-1.22,5.17-.77,6.69,2.19.52,1,1.17,1.92,1.73,2.9,3.47,6,3.5,6.07-1.28,11-1.73,1.77-1.74,3.18.1,5C63.83,37.7,64,39,61.1,44c-3.37,5.91-4.33,6.42-10.23,5-2.23-.55-4.36-.32-4.52,2.21-.25,4.24-2.66,6.09-6.29,7.1ZM58.49,23c0-2.3-3.78-6.36-5.45-6.07-7.9,1.37-8.61,1.08-11.21-6.1C40.71,7.76,38.35,9.28,36.51,9c-1.59-.24-2.8,0-3.34,2.17C31.66,17.09,28.81,18.9,23,17.22c-2.93-.85-3.71.59-4.85,2.49-1.29,2.17-1.62,3.8.63,5.82,3.88,3.48,3.79,7.48.15,10.93-1.43,1.36-3.17,2.29-1.43,4.72,1.59,2.22,2.55,4.5,6.2,3.33,4.65-1.49,8.6.94,9.34,5.71.4,2.64,1.44,3.33,3.79,3.07,2.18-.23,4.59.87,5.24-3,.9-5.37,5-7.53,10-5.43,3.1,1.3,3.79-.69,4.76-2.44s2.89-3.36-.1-5.63c-4.47-3.39-4.32-7.46-.33-11.5C57.21,24.53,58.4,24.09,58.49,23Z"/><path class="cls-3" d="M47,30.91a9.41,9.41,0,1,1-18.82.1A9.41,9.41,0,1,1,47,30.91Zm-8.92-5c-3.29,0-5.7,2.26-5.61,5a5.11,5.11,0,1,0,10.21,0A4.93,4.93,0,0,0,38.09,25.92Z"/><path class="cls-2" d="M38.09,25.92a4.93,4.93,0,0,1,4.6,5,5.11,5.11,0,1,1-10.21,0C32.39,28.18,34.79,25.9,38.09,25.92Z"/><path class="cls-3" d="M21.22,106.71a6.82,6.82,0,0,1-2.74-5c-.09-2.48-1.63-3-3.92-2.4-4.49,1.2-4.87.84-8.09-4.45-1.83-3-1.49-5.34,1.32-7.43,1.9-1.42,1.56-2.86,0-4.39-3.24-3.1-3.26-3.65-.87-8s3.53-5,7.49-3.89c2.75.79,3.93-.07,4.23-2.82.39-3.44,2.88-4,5.79-4,5.05,0,6.54.7,7.39,3.83,1,3.66,1.48,4,5,2.58,2.36-1,4.05-.61,5.24,1.71.4.79.91,1.51,1.35,2.28,2.72,4.73,2.74,4.75-1,8.6-1.36,1.38-1.36,2.49.08,3.89,3.38,3.31,3.48,4.35,1.25,8.26-2.65,4.63-3.4,5-8,3.9-1.75-.42-3.42-.25-3.54,1.73-.2,3.32-2.09,4.78-4.93,5.57ZM41.63,79.07c0-1.8-3-5-4.27-4.76-6.19,1.08-6.75.85-8.78-4.77-.88-2.43-2.73-1.24-4.17-1.47a2,2,0,0,0-2.62,1.7c-1.18,4.65-3.42,6.07-8,4.75-2.29-.66-2.9.47-3.79,2-1,1.69-1.28,3,.49,4.56,3,2.73,3,5.86.12,8.56-1.13,1.06-2.49,1.79-1.13,3.7,1.25,1.73,2,3.52,4.86,2.61,3.64-1.17,6.74.74,7.31,4.47.32,2.07,1.14,2.61,3,2.41s3.6.67,4.1-2.35c.71-4.21,3.95-5.91,7.86-4.26,2.43,1,3-.54,3.73-1.91s2.27-2.64-.08-4.41c-3.5-2.66-3.38-5.85-.25-9C40.63,80.25,41.56,79.91,41.63,79.07Z"/><path class="cls-3" d="M32.63,85.25a7.37,7.37,0,1,1-14.74.08,7.51,7.51,0,0,1,7.19-7.63A7.44,7.44,0,0,1,32.63,85.25Zm-7-3.91c-2.58,0-4.47,1.77-4.4,3.91a4,4,0,1,0,8,0A3.86,3.86,0,0,0,25.65,81.34Z"/><path class="cls-2" d="M25.64,81.34a3.86,3.86,0,0,1,3.61,3.93,4,4,0,1,1-8,0C21.17,83.11,23.05,81.33,25.64,81.34Z"/></g></svg>