<svg id="Layer_1" data-name="Layer 1" xmlns="http://www.w3.org/2000/svg" viewBox="0 0 113.39 113.39"><defs><style>.cls-1{fill:#04579f;}.cls-2{fill:#fdfefe;fill-rule:evenodd;}.cls-3{fill:#df1f26;}</style></defs><g id="qt-kinh-doanh"><path class="cls-1" d="M109.12,45.47c0,9.45,0,18.91,0,28.36,0,6.19-.59,6.66-7.13,6.67-12,0-23.93.11-35.88,0-4-.06-5.3,1.34-5.62,5-.54,6.19,1.15,11.25,6.49,15.16a36.61,36.61,0,0,1,4.32,3.83c1.23,1.23,1.59,2.78.24,4.09a3.16,3.16,0,0,1-4.41,0c-2.63-2.07-5.23-4.16-7.68-6.41-1.93-1.77-3.47-1.9-5.44,0-2.27,2.16-4.82,4.09-7.27,6.1-1.6,1.31-3.36,2.28-5.18.4s-.33-3.38,1.08-4.74A35,35,0,0,1,46.87,100c5.28-3.67,6.07-8.84,6-14.42,0-3.57-1.62-5.15-5.61-5.1-11.42.13-22.84.06-34.25,0-7.24,0-8.71-1.32-8.71-7.84q-.08-27.09,0-54.2c0-6.22,1.72-7.86,8.29-7.88,12,0,23.93-.09,35.88,0,2.8,0,4.47-.39,4.45-3.39,0-2.17,1.38-3.49,3.72-3.52s3.79,1.36,3.73,3.48c-.1,3.58,2.3,3.41,5,3.4,11.78-.06,23.56,0,35.34,0,8.16,0,8.42.24,8.45,8C109.15,27.57,109.12,36.52,109.12,45.47ZM56.88,18.23c-13.41,0-26.81.09-40.22-.06-3.34,0-4.71.55-4.65,4.08.21,15.7.18,31.4,0,47.09,0,3.11.88,4,4.24,4q40.5-.21,81,0c3.59,0,4.11-1.21,4.08-4.11-.13-15.7-.16-31.39,0-47.09,0-3.13-.93-4-4.25-3.95C83.7,18.33,70.3,18.23,56.88,18.23Z"/><path class="cls-2" d="M67.75,18.24H45.91c-9.75,0-19.5,0-29.25-.07-3.33,0-4.71.55-4.66,4.08.22,15.7.19,31.4,0,47.08,0,3.11.87,4,4.24,4q40.49-.21,81,0c3.57,0,4.1-1.21,4.07-4.11-.11-15.7-.15-31.39,0-47.09,0-3.14-.94-4-4.26-3.95C87.32,18.28,77.54,18.26,67.75,18.24Z"/><path class="cls-3" d="M56.67,69.26H29a5.3,5.3,0,0,1-.69,0,1.32,1.32,0,0,1-1.13-1.33,1.23,1.23,0,0,1,1.24-1.21c.73,0,.77-.27.77-.84,0-4.36,0-8.73,0-13.09,0-2,1.05-3,3.09-3H37a2.67,2.67,0,0,1,2.94,2.84c0,4.46,0,8.93,0,13.39,0,.58.18.71.73.68.92,0,1.85,0,2.77,0,.45,0,.55-.13.55-.55,0-3.47,0-6.94,0-10.41V44.88A2.66,2.66,0,0,1,47,42h4.9a2.63,2.63,0,0,1,2.83,2.74q0,10.65,0,21.31c0,.55.15.68.69.65q1.35-.06,2.7,0c.51,0,.66-.1.66-.62,0-5.72,0-11.45,0-17.17,0-2,1-3,3.12-3h4.58c2,0,3,1,3,2.94,0,5.72,0,11.45,0,17.17,0,.54.12.74.71.7,1-.05,1.93,0,2.89,0,.32,0,.48-.08.44-.41a3,3,0,0,1,0-.42v-26c0-2.09,1-3.08,3.21-3.08H81c2.2,0,3.21,1,3.21,3.14q0,13,0,26.06c0,.51.07.75.69.72A1.26,1.26,0,0,1,86.19,68a1.32,1.32,0,0,1-1.31,1.29c-.21,0-.42,0-.63,0Z"/><path class="cls-3" d="M81.34,24.41l-3.13-.6c-1-.2-1.47-.92-1.2-1.71a1.29,1.29,0,0,1,1.46-.89q3.33.62,6.64,1.29a1.23,1.23,0,0,1,1,1.55q-.61,3.14-1.29,6.26a1.34,1.34,0,1,1-2.62-.55c.2-1,.42-2,.63-3a1,1,0,0,0-.57.29Q73.44,33,64.62,38.86a2.11,2.11,0,0,1-2.26.21c-4.35-2-8.74-3.86-13.1-5.8a1,1,0,0,0-1,.06Q39,38.74,29.69,44.13c-.14.08-.28.17-.43.24a1.36,1.36,0,0,1-1.86-.43,1.25,1.25,0,0,1,.48-1.79c.33-.21.68-.4,1-.6q9.33-5.41,18.65-10.85a2,2,0,0,1,2.05-.14c4.4,2,8.82,3.89,13.22,5.84a.77.77,0,0,0,.85-.06L81,24.74C81.14,24.66,81.29,24.62,81.34,24.41Z"/></g></svg>