<svg id="Layer_1" data-name="Layer 1" xmlns="http://www.w3.org/2000/svg" viewBox="0 0 113.39 113.39"><defs><style>.cls-1{fill:#075a9f;}.cls-2{fill:#df1f26;}.cls-3{fill:#1964a5;}.cls-4{fill:#fcfcfd;}.cls-5{fill:#f4f7fa;}.cls-6{fill:#e3ebf2;}.cls-7{fill:#fefcfc;}.cls-8{fill:#e1e9f2;}.cls-9{fill:#fbfdff;}.cls-10{fill:#f8fbfd;}.cls-11{fill:#fcf6f6;}</style></defs><g id="thke-xay-dung"><path class="cls-1" d="M4.3,61.16V33.28C4.3,26,7.18,23.13,14.63,23.13c17.57,0,35.14,0,52.71,0,6.65,0,6.49,0,6.77-6.55.07-1.89-2-4.91,1.65-5.74,4.6-1.07,8.63.47,10.25,3.76a11.87,11.87,0,0,1,1.12,5.48c0,19.16,0,38.33,0,57.49,0,6.36-3,9.3-9.39,9.32-18.58.05-37.17.11-55.75-.07-3.52,0-5.2.73-4.55,4.46a2.67,2.67,0,0,1,0,1.29c-1,2.4,2.71,7-3.26,7.14s-9.64-2.79-9.8-8c-.15-4.79,0-9.59,0-14.38Q4.31,69.21,4.3,61.16Zm39.16,22.2c12.75,0,23.21,0,33.66,0,3.21,0,6.19-.65,6.32-4.34s-2.58-5-6-4.59c-3,.34-3.59-1-3.55-3.71q.23-15.23,0-30.49c0-4.44,2-10.37-.88-12.9-2.47-2.19-8.28-.7-12.61-.71q-22.86-.06-45.73,0c-3.39,0-6.8.34-6.82,4.78-.12,16.84-.06,33.68-.09,50.52,0,1.26,0,2.28,1.84,2.06C21.67,82.5,33.73,83.89,43.46,83.36ZM83.37,71.58a12.07,12.07,0,0,0,.21-1.6q0-25,0-50a8.21,8.21,0,0,0-.24-2.58c-.66-1.93-2-3.34-4.14-3.19-2.68.18-1.49,2.43-1.5,3.72-.08,15.8.14,31.6-.18,47.39C77.42,69.87,78.92,71.67,83.37,71.58ZM14,91.54C12.52,90.37,15.51,87.09,12,87c-2.51-.07-4.19,1.9-4.13,4.64a4.12,4.12,0,0,0,4,4.36C15.19,96.15,13,93.2,14,91.54Z"/><path class="cls-2" d="M89.83,56.23c0-8.4.17-16.81-.08-25.19-.1-3.72,1.21-4.84,4.75-4.6a109,109,0,0,0,11.29,0c2.39-.08,3.35.78,3.34,3.25q-.09,26.93,0,53.87c0,2.44-.9,3.34-3.32,3.27-4.19-.12-8.39-.13-12.59,0-2.75.08-3.45-1.21-3.43-3.7C89.88,74.18,89.83,65.2,89.83,56.23Zm15.68.47V38.44c0-8.75,0-8.75-8.8-8.44-.43,0-.87,0-1.31,0-.69.06-1.51,0-1.76.88-.31,1.07.23,1.48,1.22,1.82,2.66.86,2.49,2.19.27,3.4-.77.42-1.75.47-1.55,1.62.24,1.43,1.49,1,2.43,1.17,1.29.21,3.26-.7,3.38,1.58.13,2.71-2.11,1.65-3.48,1.9-.81.14-1.84-.2-2.24.85s.23,1.48,1.13,1.92c2.51,1.21,2.54,2.62,0,3.88-.87.44-1.58.85-1.17,1.9s1.43.71,2.25.84c1.37.25,3.61-.81,3.47,1.89C99.28,56,97.3,55.06,96,55.27c-.94.16-2.17-.26-2.45,1.15-.23,1.14.74,1.27,1.51,1.71,1.69,1,2.35,2.24.08,3.33-.8.38-1.77.49-1.57,1.64.25,1.4,1.47,1.1,2.43,1.2,1.46.17,3.53-.56,3.45,2s-2.2,1.64-3.61,1.88c-.81.13-1.88-.18-2.14,1s.61,1.45,1.47,1.75c1.82.65,1.63,1.83.63,3-.66.78-2.7.41-2.23,2.08.56,2,2.44.88,3.73,1.11,1,.17,2,.1,2.14,1.55.1,1.61-.82,2-2.16,1.94a17.08,17.08,0,0,0-1.75,0c-.84,0-1.88-.05-2,1.15-.11,1.56,1.14,1.4,2.11,1.42,2.32,0,4.65-.12,7,0s2.9-1,2.89-3.09C105.46,72.34,105.51,64.52,105.51,56.7Z"/><path class="cls-3" d="M54,89.58c4.35,0,8.7-.08,13,0s6.6,2.28,6.64,6.34c0,4.48-1.54,6.48-6.09,6.62-9.12.28-18.25.36-27.37.31-4.18,0-7.79-2.15-11.29-4.17-2.92-1.69-2.76-3.19.3-5,4.7-2.71,9.55-4.7,15.21-4.16,3.16.31,6.37.06,9.56.06Zm12.16,3.64c1.24,1.94-1.19,4.31,1.46,5.72.78.42,1.94-.44,2.18-1.62C70.24,94.94,69.59,93.33,66.14,93.22Zm-4,1c0-.2,0-.39,0-.59H41.32c0,.19,0,.39,0,.59ZM40.51,98.32v.56H61.42v-.56Z"/><path class="cls-4" d="M43.46,83.36c-9.73.53-21.79-.86-33.79.62-1.8.23-1.84-.79-1.84-2.06,0-16.84,0-33.68.09-50.52,0-4.44,3.43-4.77,6.82-4.78q22.86,0,45.73,0c4.33,0,10.15-1.48,12.61.71,2.83,2.53.83,8.46.88,12.9q.2,15.24,0,30.49c0,2.74.55,4,3.56,3.71,3.35-.4,6.06.94,5.94,4.59s-3.11,4.36-6.32,4.34C66.66,83.32,56.21,83.36,43.46,83.36Zm-.87-6.11c7.26,0,14.52-.06,21.78,0,2.45,0,3.76-.59,3.74-3.38-.08-12.64,0-25.27,0-37.9,0-1.78-.44-3.26-2.57-3.27-10.17,0-20.32,0-30.49,0-1.22,0-1.88.51-1.85,1.83a1.53,1.53,0,0,0,2,1.61c3.93-.67,4.09,1.62,4.11,4.59,0,1.66-1.46,4.82,1.8,4.71,3.07-.1,1.18-3.19,1.7-4.89a2.31,2.31,0,0,0,0-.87c-.39-2.66.74-3.56,3.41-3.46,4.93.19,9.87.13,14.81,0,2.29,0,3.55.57,3.47,3.15-.13,4.06,0,8.13,0,12.2,0,1.28.15,2.5-1.72,2.94-5.65,1.34-7.63-.08-7.63-5.76,0-1.46,0-2.9,0-4.36,0-1.08-.15-2-1.57-2.11-1.62-.08-1.92.9-1.92,2.22,0,2.17-.12,4.36,0,6.53.16,2.46-.42,3.95-3.3,3.64-1.28-.14-2.72-.18-2.79,1.8-.09,2.24,1.48,2.1,2.95,2.1,4.35,0,8.71,0,13.07,0,1.56,0,2.93.13,2.91,2.24,0,3.63,0,7.26,0,10.89,0,.9-.18,1.85-1.37,1.76s-1.14-1.11-1.16-2c0-2.32,0-4.64,0-7,0-1.35-.17-3-1.77-3.05-4.48-.15-9.34-1-13.34.4-3,1.05-.72,5.74-1.27,8.76,0,.14,0,.29,0,.43-.11,1,.26,2.27-1.19,2.4-1.84.17-1.55-1.35-1.56-2.43,0-4.64.12-9.3-.1-13.94-.07-1.73,1.37-4.91-1.57-4.93-3.46,0-1.66,3.35-1.78,5.15-.3,4.34-.19,8.71-.06,13.06.07,2.36-.59,3.44-3.16,3.34-4.06-.16-8.13-.12-12.2,0-2.19.06-3-.68-3.12-3-.49-9.19-.58-9.19,8.48-9.32H31c1.1,0,2-.2,2.09-1.6.09-1.66-.95-1.9-2.23-1.89-2.18,0-4.36-.14-6.53,0-2.6.2-3.65-.66-3.55-3.4.18-4.78.18-9.58,0-14.36-.11-2.84.48-4.51,3.75-4.06.83.12,1.8.12,2.18-.93.26-.69.36-1.7-.28-2-2.47-1.14-5.13-.64-7.67-.39-2.09.21-2,2.16-2,3.78,0,12.19,0,24.39-.05,36.58,0,3,1.07,4.13,4.11,4.07C28.07,77.15,35.32,77.25,42.59,77.25Z"/><path class="cls-5" d="M83.38,71.58c-4.46.09-5.95-1.71-5.86-6.26.32-15.79.09-31.59.18-47.39,0-1.29-1.18-3.54,1.5-3.72,2.15-.15,3.49,1.27,4.14,3.19A8.21,8.21,0,0,1,83.58,20q0,25,0,50A12.06,12.06,0,0,1,83.38,71.58Z"/><path class="cls-6" d="M14,91.54c-1,1.65,1.16,4.6-2.2,4.46a4.13,4.13,0,0,1-4-4.36C7.78,88.9,9.46,86.93,12,87,15.51,87.09,12.52,90.37,14,91.54Z"/><path class="cls-7" d="M105.51,56.7c0,7.82-.05,15.65,0,23.48,0,2.13-.47,3.25-2.88,3.09s-4.64,0-7,0c-1,0-2.22.14-2.12-1.42.09-1.21,1.12-1.11,2-1.15.57,0,1.16,0,1.74,0,1.34,0,2.26-.34,2.16-1.94s-1.1-1.38-2.13-1.55C96,76.91,94.16,78,93.6,76c-.47-1.67,1.57-1.3,2.23-2.08,1-1.19,1.18-2.37-.64-3-.86-.31-1.72-.67-1.47-1.76s1.33-.82,2.14-1c1.42-.23,3.52.73,3.61-1.88s-2-1.87-3.44-2c-1-.1-2.19.21-2.43-1.2-.2-1.15.77-1.26,1.57-1.64,2.26-1.1,1.6-2.36-.09-3.33-.77-.44-1.73-.56-1.51-1.71.28-1.41,1.52-1,2.46-1.15,1.28-.21,3.26.71,3.38-1.58C99.55,51,97.3,52,95.93,51.8c-.81-.15-1.83.19-2.24-.85s.29-1.46,1.16-1.9c2.49-1.26,2.48-2.67,0-3.88-.91-.44-1.53-.89-1.13-1.92s1.42-.71,2.23-.85c1.37-.25,3.62.81,3.48-1.89-.11-2.29-2.1-1.38-3.37-1.59-.94-.16-2.2.26-2.44-1.17-.19-1.14.79-1.19,1.56-1.62,2.21-1.2,2.39-2.53-.27-3.4-1-.33-1.53-.75-1.23-1.82.26-.89,1.08-.81,1.77-.88.43-.05.87,0,1.31,0,8.79-.31,8.79-.31,8.79,8.44Q105.51,47.58,105.51,56.7Z"/><path class="cls-8" d="M66.14,93.22c3.46.11,4.1,1.73,3.63,4.1-.24,1.18-1.39,2-2.18,1.62C65,97.53,67.38,95.15,66.14,93.22Z"/><path class="cls-9" d="M62.17,94.24H41.31c0-.2,0-.39,0-.59h20.9C62.21,93.84,62.19,94,62.17,94.24Z"/><path class="cls-10" d="M51,99c8.17,0,14.79-.17,14.79-.39s-6.62-.39-14.79-.39-14.79.17-14.79.39S42.8,99,51,99Z"/><path class="cls-2" d="M42.59,77.25c-7.26,0-14.52-.1-21.78,0-3,.06-4.13-1.09-4.1-4.07.08-12.19,0-24.39,0-36.58,0-1.61-.1-3.57,2-3.78,2.54-.25,5.2-.75,7.66.39.65.29.54,1.3.29,2-.38,1-1.36,1-2.19.94-3.26-.47-3.85,1.21-3.74,4,.18,4.78.18,9.58,0,14.36-.11,2.75.95,3.61,3.54,3.4,2.16-.18,4.36,0,6.54,0,1.28,0,2.32.24,2.23,1.89-.08,1.41-1,1.6-2.1,1.6H29.24c-9.06.13-9,.13-8.47,9.33.12,2.3.92,3,3.12,3,4.05-.12,8.13-.15,12.19,0,2.57.11,3.23-1,3.16-3.34-.13-4.36-.23-8.72.06-13.06.13-1.79-1.68-5.17,1.78-5.15,3,0,1.5,3.2,1.58,4.93.21,4.64.05,9.29.09,13.94,0,1.08-.27,2.6,1.56,2.43,1.46-.13,1.07-1.45,1.2-2.39a3.23,3.23,0,0,1,0-.44c.54-3-1.7-7.71,1.27-8.76,4-1.41,8.86-.54,13.33-.4,1.61.06,1.76,1.7,1.77,3,0,2.33,0,4.65,0,7,0,.85,0,1.87,1.15,2s1.37-.86,1.37-1.76c0-3.63,0-7.25,0-10.89,0-2.11-1.34-2.24-2.91-2.24-4.36,0-8.71,0-13.07,0-1.47,0-3,.13-3-2.1.08-2,1.52-1.94,2.8-1.8,2.87.31,3.45-1.17,3.3-3.64-.14-2.17,0-4.36,0-6.53,0-1.32.31-2.29,1.93-2.22,1.42.07,1.56,1,1.57,2.11,0,1.46,0,2.9,0,4.36,0,5.68,2,7.1,7.63,5.76,1.88-.44,1.71-1.66,1.72-2.94,0-4.07-.09-8.14,0-12.2.08-2.58-1.17-3.19-3.46-3.15-4.93.1-9.88.16-14.81,0-2.68-.09-3.8.8-3.42,3.46a1.83,1.83,0,0,1,0,.87c-.52,1.7,1.38,4.78-1.7,4.89-3.25.11-1.8-3.05-1.8-4.71,0-3-.17-5.26-4.1-4.59-1.09.18-2-.22-2-1.61s.62-1.83,1.84-1.83c10.17,0,20.33,0,30.49,0,2.13,0,2.57,1.48,2.57,3.26,0,12.63,0,25.27,0,37.9,0,2.79-1.28,3.41-3.75,3.39C57.1,77.19,49.84,77.25,42.59,77.25Zm10.69-3.5c5,0,4.73,0,5.06-4.45.28-3.75-1.2-4.44-4.64-4.5-3.72-.07-4.89.87-4.87,4.76S50.45,74.29,53.28,73.75Z"/><path class="cls-11" d="M53.28,73.75c-2.83.54-4.42-.25-4.44-4.19S50,64.74,53.71,64.8c3.43.06,4.91.75,4.63,4.5C58,73.72,58.26,73.74,53.28,73.75Z"/></g></svg>