<svg id="Layer_1" data-name="Layer 1" xmlns="http://www.w3.org/2000/svg" viewBox="0 0 113.39 113.39"><defs><style>.cls-1{fill:#3256a6;}.cls-2{fill:#df1f26;}.cls-3{fill:#fdfefe;}</style></defs><g id="xh-nhan-van"><path class="cls-1" d="M109.13,107.06c-.21,0-.26.19-.34.34a3.09,3.09,0,0,1-3,1.71c-10.82,0-21.64.07-32.45,0a35.35,35.35,0,1,1,35.14-42.22,17.68,17.68,0,0,0,.66,3.54v6.76c-.16,0-.19.16-.21.3A35.09,35.09,0,0,1,100.39,97c-.44.51-.2.7.19,1,2.12,1.6,4.22,3.24,6.34,4.83a6.53,6.53,0,0,1,2.21,2.4ZM65.76,64.47h0c-1.46,0-2.93,0-4.4,0a3.06,3.06,0,0,0,0,6.12,20.47,20.47,0,0,0,2.35,0c.65,0,.88.15.94.82a19.73,19.73,0,0,0,2.75,8.16c.41.72,1.56,1.41,1.15,2.13s-1.62.71-2.51.94l-.3,0a23.7,23.7,0,0,1-4.28.29A3.08,3.08,0,0,0,58.41,86a3,3,0,0,0,2.86,3A20.07,20.07,0,0,0,73,86.45a1.35,1.35,0,0,1,1.63,0,20,20,0,0,0,11.7,2.59A3,3,0,0,0,89.08,86a3.06,3.06,0,0,0-3.31-3,17.26,17.26,0,0,1-6.33-.93c-.62-.24-.86-.41-.35-1.08a19.15,19.15,0,0,0,3.51-7.86c.17-.82-.07-2,.53-2.37s1.72-.12,2.6-.12c2,0,3.37-1.23,3.39-3s-1.36-3.1-3.42-3.11c-2.7,0-5.39,0-8.09,0-.6,0-.87-.11-.81-.77a20,20,0,0,0,0-2.05,3.09,3.09,0,0,0-3.07-3.27,3.14,3.14,0,0,0-3.07,3.29,15.86,15.86,0,0,0,0,2c0,.64-.12.89-.82.86C68.5,64.43,67.13,64.47,65.76,64.47Z"/><path class="cls-2" d="M41.13,4.25c1.37.26,2.76.49,4.14.79A33.9,33.9,0,0,1,71.36,31.61c.07.37.25.7-.4.75A41.55,41.55,0,0,0,49,40.5c-2.22-4.38-4.42-8.71-6.61-13-.48-.94-1-1.87-1.43-2.82a3.08,3.08,0,0,0-5.65,0q-6,12.17-12,24.34a3.07,3.07,0,1,0,5.49,2.73c.63-1.2,1.21-2.43,1.8-3.66.17-.35.32-.62.81-.62,3.37,0,6.74,0,10.08,0,.16.32-.07.44-.18.59a40.85,40.85,0,0,0-8.9,23.08c-.06.78-.29.92-1,.92-7.61,0-15.22-.06-22.83,0-1.91,0-3.4-.44-4.28-2.23V67.94a8.64,8.64,0,0,1,2.41-2.41c1.88-1.41,3.71-2.88,5.61-4.26.6-.44.55-.69.1-1.22A33.82,33.82,0,0,1,5,45a16.16,16.16,0,0,0-.71-3.52v-7c.42-.35.29-.87.35-1.31A34,34,0,0,1,30.76,5.05a17.12,17.12,0,0,0,3.81-.8Z"/><path class="cls-2" d="M42.46,41.21c-.27,0-.37.06-.46.06H33.93c1.41-2.87,2.78-5.64,4.22-8.58Z"/><path class="cls-3" d="M65.77,64.47c1.36,0,2.73,0,4.09,0,.71,0,.87-.22.82-.86s0-1.3,0-2a3.15,3.15,0,0,1,3.08-3.29,3.1,3.1,0,0,1,3.07,3.27,19.81,19.81,0,0,1,0,2c-.06.67.21.79.82.78,2.69,0,5.39,0,8.09,0,2.06,0,3.43,1.26,3.41,3.11s-1.37,3-3.38,3c-.89,0-2-.27-2.6.12s-.37,1.56-.53,2.38A19.28,19.28,0,0,1,79.1,81c-.51.67-.28.83.35,1.08a17,17,0,0,0,6.33.92,3.06,3.06,0,0,1,3.3,3,3,3,0,0,1-2.79,3.09,20,20,0,0,1-11.69-2.6,1.38,1.38,0,0,0-1.64,0,20,20,0,0,1-11.68,2.63,3,3,0,0,1-2.87-3A3.1,3.1,0,0,1,61.49,83a23.57,23.57,0,0,0,4.28-.28l.3,0c.89-.23,2.13-.28,2.51-.94s-.73-1.41-1.15-2.14a19.48,19.48,0,0,1-2.74-8.15c-.06-.67-.3-.87-.94-.82a23.22,23.22,0,0,1-2.36,0,3.06,3.06,0,0,1,0-6.12c1.47,0,2.94,0,4.41,0Zm8,13.39a14.17,14.17,0,0,0,3-6.62c.08-.48,0-.65-.54-.64-1.56,0-3.13,0-4.69,0-.61,0-.76.16-.66.74A13.86,13.86,0,0,0,73.76,77.86Z"/><path class="cls-1" d="M73.76,77.86a13.77,13.77,0,0,1-2.93-6.52c-.1-.58,0-.76.65-.74,1.57,0,3.13,0,4.7,0,.52,0,.62.16.53.65A14.06,14.06,0,0,1,73.76,77.86Z"/></g></svg>