<svg width="804" height="823" viewBox="0 0 804 823" fill="none" xmlns="http://www.w3.org/2000/svg">
<g clip-path="url(#clip0_1472_41514)">
<path fill-rule="evenodd" clip-rule="evenodd" d="M-16.1719 201.71C-16.1719 251.93 -5.26183 299.609 14.3096 342.5C15.1425 344.374 16.0586 346.289 16.9747 348.163C19.2649 352.952 21.6801 357.699 24.1786 362.363C33.5896 379.894 44.4996 396.467 56.7838 412C85.8495 448.852 122.452 479.542 164.26 501.695C166.717 503.028 169.216 504.36 171.756 505.526C178.168 508.816 184.748 511.814 191.41 514.604C215.896 524.973 241.838 532.551 268.863 536.882C286.644 539.797 304.925 541.254 323.539 541.254C342.194 541.254 360.433 539.755 378.255 536.84C405.281 532.51 431.223 524.931 455.75 514.562H455.792C462.413 511.772 468.95 508.774 475.322 505.526C477.862 504.277 480.318 502.986 482.817 501.695C524.542 479.5 561.144 448.852 590.252 412C602.536 396.467 613.446 379.894 622.899 362.363C625.397 357.699 627.812 352.952 630.103 348.163C631.06 346.248 631.935 344.374 632.768 342.458C652.339 299.568 663.249 251.888 663.249 201.669C663.249 182.514 661.667 163.775 658.627 145.495C654.13 118.553 646.509 92.735 636.099 68.3747C633.434 62.0869 630.561 55.9656 627.521 49.886C626.313 47.3458 624.981 44.8474 623.69 42.3489C566.474 -64.9193 453.501 -138 323.497 -138C193.451 -138 80.4778 -64.9193 23.4291 42.4322C22.0966 44.9306 20.8057 47.4291 19.5981 49.9692C16.5166 56.0072 13.685 62.1702 11.0199 68.458C0.567961 92.8183 -7.05241 118.678 -11.508 145.578V145.62C-14.5895 163.858 -16.1719 182.597 -16.1719 201.71ZM-11.4664 201.71C-11.4664 180.64 -9.50924 160.069 -5.80316 140.081C-0.889477 113.556 7.18895 88.1128 17.9741 64.169C20.764 58.006 23.7206 51.8848 26.927 45.93C28.1762 43.4315 29.5087 40.9747 30.9245 38.5595C88.1815 -63.92 197.782 -133.17 323.497 -133.17C449.171 -133.17 558.729 -63.8783 615.986 38.5595C617.36 40.9747 618.693 43.4315 619.984 45.8884C623.148 51.8848 626.147 57.9644 628.895 64.1273C639.68 88.0295 647.758 113.431 652.672 139.956C656.42 159.944 658.377 180.598 658.377 201.71C658.377 249.765 648.258 295.445 629.978 336.795C629.145 338.711 628.27 340.626 627.396 342.5C625.189 347.289 622.857 352.036 620.4 356.658C611.239 374.189 600.579 390.804 588.544 406.336C560.936 442.106 526.249 472.088 486.565 494.2C484.149 495.615 481.693 496.948 479.194 498.239C472.906 501.57 466.494 504.693 459.956 507.608C435.887 518.393 410.361 526.388 383.669 531.177H383.627C364.097 534.758 343.985 536.591 323.414 536.591C302.884 536.591 282.772 534.717 263.242 531.219C236.591 526.388 211.024 518.393 186.955 507.65C180.375 504.735 173.963 501.612 167.675 498.239C165.176 496.948 162.72 495.615 160.304 494.241C120.62 472.088 85.9328 442.106 58.3246 406.336C46.2902 390.804 35.63 374.189 26.4689 356.658C23.9704 351.994 21.6385 347.247 19.4315 342.458C18.557 340.585 17.6826 338.669 16.8914 336.795V336.754C-1.34755 295.445 -11.4664 249.765 -11.4664 201.71Z" fill="url(#paint0_linear_1472_41514)"/>
<path fill-rule="evenodd" clip-rule="evenodd" d="M-16.1719 483.289C-16.1719 502.403 -14.5895 521.141 -11.5497 539.422C-7.09405 566.322 0.526333 592.14 10.9367 616.5C13.6017 622.788 16.475 628.951 19.5148 635.031C20.764 637.571 22.0549 640.111 23.4291 642.651H23.4707C80.4778 750.002 193.451 823.083 323.497 823.083C453.543 823.083 566.516 750.002 623.565 642.651H623.607C624.981 640.111 626.272 637.612 627.479 635.031C630.561 628.993 633.392 622.788 636.057 616.5H636.099C646.509 592.182 654.13 566.322 658.585 539.422C661.625 521.183 663.207 502.403 663.207 483.289C663.207 433.111 652.297 385.432 632.726 342.541C631.893 340.626 630.977 338.71 630.061 336.837C627.812 332.048 625.397 327.301 622.857 322.637C613.446 305.106 602.494 288.491 590.21 272.959C561.144 236.148 524.542 205.5 482.817 183.305V183.263C480.318 181.931 477.82 180.64 475.28 179.432V179.39C468.867 176.184 462.329 173.144 455.667 170.354C431.182 160.027 405.281 152.448 378.255 148.076H378.214C360.391 145.161 342.152 143.662 323.497 143.662C304.883 143.662 286.603 145.161 268.822 148.034C241.797 152.365 215.854 159.944 191.369 170.313C184.706 173.103 178.169 176.101 171.714 179.349V179.39C169.174 180.598 166.675 181.889 164.219 183.221C122.452 205.416 85.8495 236.106 56.7838 272.917C44.4996 288.449 33.5896 305.064 24.1786 322.595C21.6385 327.259 19.2233 332.006 16.9747 336.795V336.837C16.0586 338.71 15.1425 340.626 14.3096 342.5C-5.26183 385.39 -16.1719 433.07 -16.1719 483.289ZM-5.76153 544.919C-9.46761 524.931 -11.4248 504.36 -11.4248 483.289C-11.4248 435.235 -1.3059 389.555 16.9747 348.205C17.8075 346.331 18.6403 344.374 19.5148 342.541C21.7218 337.753 24.0537 333.006 26.5106 328.342V328.3C35.6717 310.769 46.3319 294.154 58.4079 278.622C86.0161 242.852 120.703 212.87 160.388 190.759V190.717C162.803 189.343 165.26 188.01 167.717 186.761V186.719C174.004 183.388 180.5 180.265 187.038 177.308C211.107 166.565 236.633 158.57 263.284 153.739V153.698C282.813 150.158 302.926 148.326 323.497 148.326C344.068 148.326 364.181 150.2 383.71 153.739H383.752C410.403 158.57 435.929 166.565 459.997 177.308C466.535 180.223 472.948 183.346 479.277 186.678V186.719C481.776 187.969 484.233 189.343 486.648 190.717C526.291 212.87 560.978 242.852 588.586 278.58C600.579 294.112 611.281 310.727 620.442 328.258C622.899 332.922 625.23 337.669 627.438 342.458C628.312 344.332 629.186 346.247 630.019 348.163C648.258 389.471 658.419 435.152 658.419 483.206C658.419 504.318 656.462 524.972 652.714 544.96C647.8 571.444 639.763 596.845 628.978 620.748C626.188 626.91 623.232 632.99 620.067 638.986C618.776 641.485 617.443 643.983 616.069 646.44H616.028C558.771 748.878 449.212 818.169 323.539 818.169C197.823 818.169 88.2647 748.878 31.0078 646.399H30.9662C29.592 643.942 28.2178 641.443 26.927 638.945C23.7622 632.948 20.8057 626.869 18.0157 620.706C7.18894 596.804 -0.847843 571.402 -5.76153 544.919Z" fill="url(#paint1_linear_1472_41514)"/>
<path fill-rule="evenodd" clip-rule="evenodd" d="M124.664 342.5C124.664 361.113 126.163 379.435 129.078 397.216C133.409 424.2 140.987 450.142 151.315 474.628C154.146 481.29 157.186 487.828 160.392 494.282C161.642 496.781 162.891 499.279 164.265 501.736C186.418 543.503 217.108 580.105 253.961 609.171C269.493 621.455 286.066 632.365 303.597 641.818C308.261 644.358 313.008 646.732 317.797 649.022C319.671 649.98 321.586 650.854 323.502 651.687C366.392 671.258 414.072 682.168 464.25 682.168C483.405 682.168 502.102 680.586 520.424 677.546H520.466C547.324 673.049 573.142 665.428 597.502 655.018C603.79 652.353 609.911 649.48 616.033 646.44H616.074C618.614 645.191 621.113 643.9 623.611 642.567H623.653C731.004 585.477 804.085 472.462 804.085 342.458C804.085 212.412 731.004 99.4804 623.653 42.39C621.113 41.0159 618.614 39.725 616.074 38.5174C610.036 35.4359 603.832 32.6043 597.544 29.9392C573.184 19.4873 547.366 11.9085 520.507 7.41124C502.227 4.37142 483.446 2.78906 464.333 2.78906C414.155 2.78906 366.476 13.6991 323.585 33.2706C321.67 34.145 319.754 35.0195 317.922 35.894C313.133 38.1842 308.386 40.6411 303.722 43.1396C286.191 52.5922 269.576 63.5022 254.044 75.7864C217.191 104.852 186.543 141.455 164.348 183.221C163.016 185.678 161.725 188.177 160.517 190.675V190.717C157.269 197.171 154.229 203.667 151.439 210.33V210.371C141.112 234.857 133.575 260.757 129.203 287.741C126.163 305.605 124.664 323.844 124.664 342.5ZM134.783 402.713C131.202 383.183 129.37 363.029 129.37 342.5C129.37 321.97 131.243 301.816 134.783 282.286V282.244C139.613 255.594 147.567 230.109 158.352 206.041C161.309 199.461 164.39 193.049 167.763 186.761V186.719C169.054 184.262 170.386 181.847 171.76 179.39V179.349C193.914 139.664 223.896 105.019 259.624 77.3688C275.156 65.3344 291.771 54.6742 309.302 45.5131C313.966 43.0563 318.713 40.7244 323.502 38.5174C325.376 37.6429 327.291 36.7684 329.165 35.9772C370.515 17.6967 416.195 7.57781 464.25 7.57781C485.32 7.57781 505.933 9.53497 525.921 13.2827C552.404 18.1547 577.806 26.1915 601.708 37.0183C607.871 39.8082 613.992 42.8064 619.947 45.9295C622.445 47.2621 624.944 48.5946 627.401 50.0104C729.88 107.267 799.171 216.826 799.171 342.541C799.171 468.256 729.922 577.773 627.442 635.03C624.985 636.404 622.487 637.779 619.988 639.069C614.034 642.276 607.954 645.232 601.75 647.981C577.847 658.766 552.446 666.803 525.962 671.716C505.933 675.464 485.279 677.421 464.208 677.421C416.154 677.421 370.473 667.302 329.165 649.022C327.249 648.189 325.334 647.315 323.46 646.44C318.671 644.233 313.966 641.901 309.302 639.444C291.771 630.325 275.156 619.623 259.624 607.63C223.854 580.022 193.83 545.293 171.719 505.609C170.345 503.194 169.012 500.737 167.763 498.28C164.432 491.992 161.267 485.538 158.352 479C147.608 454.931 139.613 429.363 134.783 402.713Z" fill="url(#paint2_linear_1472_41514)"/>
<path fill-rule="evenodd" clip-rule="evenodd" d="M495.648 474.669C530.003 452.933 559.984 424.866 583.928 392.094C595.338 376.604 605.415 359.989 613.91 342.541C605.415 325.052 595.338 308.479 583.97 292.946C559.984 260.216 530.003 232.108 495.69 210.413C506.059 234.898 513.638 260.841 517.968 287.866C534.417 304.189 548.783 322.553 560.651 342.541C548.741 362.529 534.333 380.893 517.927 397.175C513.596 424.2 506.017 450.143 495.648 474.669Z" fill="url(#paint3_linear_1472_41514)"/>
<path fill-rule="evenodd" clip-rule="evenodd" d="M343.359 43.1814C360.932 52.5924 377.547 63.5024 393.038 75.8283C415.982 69.6237 440.051 66.334 464.911 66.334C504.47 66.334 542.114 74.7039 576.218 89.7781C591.292 123.882 599.662 161.526 599.662 201.086C599.662 225.945 596.331 250.014 590.168 272.959C602.452 288.491 613.362 305.106 622.815 322.637C638.097 285.076 646.509 244.06 646.509 201.127C646.509 175.768 643.594 151.116 638.014 127.422C632.017 101.854 623.023 77.4523 611.322 54.5912C588.502 42.9316 564.142 33.937 538.616 27.9823C514.922 22.444 490.229 19.4875 464.911 19.4875C421.978 19.4458 380.92 27.8574 343.359 43.1814Z" fill="url(#paint4_linear_1472_41514)"/>
<path fill-rule="evenodd" clip-rule="evenodd" d="M343.406 641.818C380.967 657.142 421.984 665.554 464.916 665.554C490.275 665.554 514.969 662.639 538.621 657.059C564.147 651.104 588.549 642.068 611.369 630.409C623.028 607.589 632.023 583.187 638.019 557.661C643.557 533.967 646.514 509.315 646.514 483.956C646.514 441.024 638.102 400.007 622.778 362.446C613.326 379.977 602.416 396.551 590.132 412.083C596.294 435.027 599.626 459.138 599.626 483.956C599.626 523.515 591.256 561.159 576.182 595.222C542.119 610.338 504.434 618.666 464.874 618.666C440.014 618.666 415.946 615.334 393.001 609.13C377.511 621.456 360.937 632.366 343.406 641.818Z" fill="url(#paint5_linear_1472_41514)"/>
<path fill-rule="evenodd" clip-rule="evenodd" d="M-157 342.5C-157 472.504 -83.9193 585.477 23.4322 642.609H23.4738C25.9723 643.942 28.4291 645.233 30.9692 646.44H31.0109C37.0489 649.48 43.2118 652.353 49.4997 655.019C73.8599 665.471 99.6776 673.091 126.62 677.547H126.661C144.9 680.586 163.639 682.169 182.794 682.169C232.972 682.169 280.651 671.259 323.542 651.687C325.457 650.854 327.373 649.938 329.247 649.022C334.035 646.732 338.782 644.358 343.488 641.818C361.019 632.407 377.592 621.456 393.124 609.171C429.977 580.106 460.625 543.503 482.82 501.737C484.153 499.238 485.443 496.74 486.651 494.241C489.899 487.828 492.897 481.332 495.687 474.67V474.628C506.056 450.143 513.635 424.159 517.965 397.133C520.88 379.353 522.379 361.072 522.379 342.458C522.379 323.845 520.88 305.606 518.007 287.825C513.635 260.799 506.098 234.815 495.729 210.372C492.939 203.709 489.941 197.213 486.693 190.759C485.443 188.26 484.153 185.762 482.862 183.305V183.263C460.667 141.497 429.977 104.894 393.166 75.8284C377.634 63.5442 361.019 52.6342 343.488 43.1816C338.824 40.6831 334.077 38.2262 329.288 35.9776C327.414 35.0615 325.499 34.1454 323.625 33.3126C280.734 13.7411 233.055 2.83105 182.877 2.83105C163.722 2.83105 144.983 4.41343 126.703 7.45325C99.7608 11.9505 73.9432 19.5709 49.5829 29.9812C43.2951 32.6463 37.1738 35.4779 31.0942 38.5594C28.5957 39.767 26.0556 41.0995 23.5571 42.3904C-83.9193 99.4807 -157 212.454 -157 342.5ZM-152.17 342.5C-152.17 216.785 -82.8783 107.226 19.6012 49.9691C22.0163 48.5533 24.4732 47.2208 26.9717 45.9715C32.9264 42.7652 39.006 39.8086 45.2106 37.0186C69.1544 26.2335 94.5973 18.1551 121.123 13.2414C141.111 9.53532 161.682 7.57817 182.752 7.57817C230.806 7.57817 276.487 17.697 317.837 35.9776C319.711 36.8104 321.626 37.6849 323.5 38.5594C328.33 40.7664 333.036 43.0983 337.7 45.5968C355.231 54.7579 371.846 65.4181 387.378 77.4941C423.106 105.102 453.088 139.79 475.241 179.432V179.474C476.657 181.889 477.948 184.346 479.239 186.803V186.844C482.57 193.132 485.735 199.587 488.65 206.124V206.166C499.435 230.235 507.43 255.803 512.26 282.453C515.8 301.983 517.674 322.096 517.674 342.625C517.674 363.196 515.8 383.308 512.26 402.838C507.43 429.53 499.435 455.098 488.65 479.167C485.735 485.705 482.612 492.117 479.239 498.447C477.99 500.904 476.657 503.319 475.283 505.776C453.13 545.46 423.148 580.147 387.378 607.797C371.846 619.79 355.231 630.45 337.7 639.611C333.036 642.068 328.289 644.4 323.5 646.607C321.626 647.523 319.711 648.356 317.795 649.189C276.487 667.428 230.806 677.588 182.752 677.588C161.64 677.588 140.986 675.631 120.998 671.883C94.4724 666.97 69.0711 658.891 45.169 648.106H45.1273C38.9644 645.316 32.8848 642.318 26.8884 639.195C24.3899 637.904 21.9331 636.571 19.5179 635.197C-82.92 577.69 -152.17 468.215 -152.17 342.5Z" fill="url(#paint6_linear_1472_41514)"/>
<path fill-rule="evenodd" clip-rule="evenodd" d="M191.375 514.687C213.112 549.041 241.178 579.023 273.908 602.967C289.44 614.377 306.014 624.412 323.461 632.949C340.951 624.454 357.524 614.377 373.056 602.967C405.828 578.981 433.894 549 455.631 514.646C431.146 525.014 405.204 532.593 378.178 536.924C361.896 553.372 343.491 567.78 323.461 579.689C303.474 567.78 285.11 553.372 268.786 536.965C241.803 532.635 215.818 525.056 191.375 514.687Z" fill="url(#paint7_linear_1472_41514)"/>
<path fill-rule="evenodd" clip-rule="evenodd" d="M0.445312 483.956C0.445312 509.274 3.3602 533.926 8.94014 557.62C14.8949 583.146 23.9311 607.548 35.549 630.409C58.3685 642.027 82.7703 651.104 108.338 657.059C132.032 662.639 156.725 665.554 182.043 665.554C224.976 665.554 266.034 657.142 303.595 641.818C286.064 632.366 269.49 621.456 253.958 609.172C231.014 615.376 206.903 618.707 182.043 618.707C142.484 618.707 104.84 610.337 70.7776 595.263C55.6618 561.201 47.3335 523.515 47.3335 483.997C47.3335 459.138 50.6648 435.027 56.8277 412.083C44.5435 396.551 33.6335 379.977 24.2225 362.446C8.85687 399.965 0.445312 441.024 0.445312 483.956Z" fill="url(#paint8_linear_1472_41514)"/>
<path fill-rule="evenodd" clip-rule="evenodd" d="M33.0547 342.5C41.5495 359.947 51.6268 376.521 62.9949 392.053C86.9803 424.825 116.962 452.891 151.275 474.628C140.948 450.143 133.41 424.2 129.038 397.216C112.631 380.893 98.2235 362.487 86.2724 342.5C98.2235 322.47 112.631 304.106 129.038 287.783C133.41 260.799 140.948 234.857 151.275 210.413C116.92 232.15 86.9803 260.216 62.9949 292.946C51.6268 308.437 41.5495 325.052 33.0547 342.5Z" fill="url(#paint9_linear_1472_41514)"/>
<path fill-rule="evenodd" clip-rule="evenodd" d="M0.445312 201.045C0.445312 243.977 8.85686 285.035 24.1809 322.596C33.5918 305.065 44.5019 288.45 56.7861 272.918C50.6232 249.973 47.2919 225.863 47.2919 201.003C47.2919 161.444 55.6618 123.8 70.736 89.6956C104.84 74.6214 142.484 66.2515 182.002 66.2515C206.862 66.2515 230.972 69.5412 253.875 75.7457C269.407 63.4615 286.022 52.5515 303.553 43.0989C265.992 27.7748 224.934 19.3633 182.002 19.3633C156.684 19.3633 132.032 22.2782 108.338 27.8581C82.7703 33.8128 58.3685 42.849 35.549 54.5086C23.8894 77.3697 14.8532 101.772 8.89851 127.339C3.3602 151.075 0.445312 175.727 0.445312 201.045Z" fill="url(#paint10_linear_1472_41514)"/>
<path fill-rule="evenodd" clip-rule="evenodd" d="M141.32 342.5C141.32 367.735 144.235 392.303 149.774 415.873C155.812 441.649 164.931 466.259 176.799 489.286C199.826 501.112 224.437 510.274 250.213 516.27C273.782 521.808 298.308 524.681 323.501 524.681C348.694 524.681 373.263 521.767 396.832 516.27C422.608 510.232 447.218 501.071 470.287 489.286H470.329C482.113 466.259 491.275 441.607 497.313 415.831C502.809 392.262 505.724 367.735 505.724 342.5C505.724 317.307 502.809 292.781 497.313 269.212C491.275 243.436 482.113 218.867 470.371 195.839V195.798C470.329 195.798 470.329 195.756 470.329 195.756C447.301 183.93 422.733 174.769 396.915 168.773C373.346 163.234 348.778 160.319 323.543 160.319C298.35 160.319 273.782 163.234 250.213 168.773C224.437 174.811 199.91 183.93 176.882 195.715V195.756C165.014 218.742 155.895 243.352 149.857 269.128C144.277 292.739 141.32 317.266 141.32 342.5ZM211.944 454.058C196.745 419.912 188.292 382.185 188.292 342.5C188.292 302.858 196.745 265.131 211.944 230.985C246.09 215.786 283.817 207.332 323.501 207.332C363.186 207.332 400.913 215.786 435.059 230.985C450.258 265.131 458.711 302.899 458.711 342.5C458.711 382.185 450.258 419.912 435.059 454.058C400.913 469.257 363.144 477.71 323.501 477.71C283.817 477.668 246.09 469.257 211.944 454.058Z" fill="url(#paint11_linear_1472_41514)"/>
<path fill-rule="evenodd" clip-rule="evenodd" d="M191.375 170.313C215.86 159.944 241.803 152.365 268.828 148.035C285.11 131.586 303.515 117.22 323.503 105.352C343.533 117.262 361.896 131.669 378.22 148.076H378.262C405.287 152.407 431.188 159.986 455.673 170.354C433.936 136.042 405.87 106.06 373.14 82.0746C357.607 70.6648 340.993 60.5876 323.545 52.0928C306.055 60.6293 289.482 70.6648 273.992 82.0746C241.178 106.018 213.112 136 191.375 170.313Z" fill="url(#paint12_linear_1472_41514)"/>
</g>
<defs>
<linearGradient id="paint0_linear_1472_41514" x1="323.539" y1="-138" x2="323.539" y2="541.254" gradientUnits="userSpaceOnUse">
<stop stop-color="#2C4E9B" stop-opacity="0.1"/>
<stop offset="1" stop-color="white" stop-opacity="0.1"/>
</linearGradient>
<linearGradient id="paint1_linear_1472_41514" x1="323.518" y1="143.662" x2="323.518" y2="823.083" gradientUnits="userSpaceOnUse">
<stop stop-color="#2C4E9B" stop-opacity="0.1"/>
<stop offset="1" stop-color="white" stop-opacity="0.1"/>
</linearGradient>
<linearGradient id="paint2_linear_1472_41514" x1="464.375" y1="2.78906" x2="464.375" y2="682.168" gradientUnits="userSpaceOnUse">
<stop stop-color="#2C4E9B" stop-opacity="0.1"/>
<stop offset="1" stop-color="white" stop-opacity="0.1"/>
</linearGradient>
<linearGradient id="paint3_linear_1472_41514" x1="554.779" y1="210.413" x2="554.779" y2="474.669" gradientUnits="userSpaceOnUse">
<stop stop-color="#2C4E9B" stop-opacity="0.1"/>
<stop offset="1" stop-color="white" stop-opacity="0.1"/>
</linearGradient>
<linearGradient id="paint4_linear_1472_41514" x1="494.934" y1="19.4873" x2="494.934" y2="322.637" gradientUnits="userSpaceOnUse">
<stop stop-color="#2C4E9B" stop-opacity="0.1"/>
<stop offset="1" stop-color="white" stop-opacity="0.1"/>
</linearGradient>
<linearGradient id="paint5_linear_1472_41514" x1="494.96" y1="362.446" x2="494.96" y2="665.554" gradientUnits="userSpaceOnUse">
<stop stop-color="#2C4E9B" stop-opacity="0.1"/>
<stop offset="1" stop-color="white" stop-opacity="0.1"/>
</linearGradient>
<linearGradient id="paint6_linear_1472_41514" x1="182.69" y1="2.83105" x2="182.69" y2="682.169" gradientUnits="userSpaceOnUse">
<stop stop-color="#2C4E9B" stop-opacity="0.1"/>
<stop offset="1" stop-color="white" stop-opacity="0.1"/>
</linearGradient>
<linearGradient id="paint7_linear_1472_41514" x1="323.503" y1="514.646" x2="323.503" y2="632.949" gradientUnits="userSpaceOnUse">
<stop stop-color="#2C4E9B" stop-opacity="0.1"/>
<stop offset="1" stop-color="white" stop-opacity="0.1"/>
</linearGradient>
<linearGradient id="paint8_linear_1472_41514" x1="152.02" y1="362.446" x2="152.02" y2="665.554" gradientUnits="userSpaceOnUse">
<stop stop-color="#2C4E9B" stop-opacity="0.1"/>
<stop offset="1" stop-color="white" stop-opacity="0.1"/>
</linearGradient>
<linearGradient id="paint9_linear_1472_41514" x1="92.1646" y1="210.413" x2="92.1646" y2="474.628" gradientUnits="userSpaceOnUse">
<stop stop-color="#2C4E9B" stop-opacity="0.1"/>
<stop offset="1" stop-color="white" stop-opacity="0.1"/>
</linearGradient>
<linearGradient id="paint10_linear_1472_41514" x1="151.999" y1="19.3633" x2="151.999" y2="322.596" gradientUnits="userSpaceOnUse">
<stop stop-color="#2C4E9B" stop-opacity="0.1"/>
<stop offset="1" stop-color="white" stop-opacity="0.1"/>
</linearGradient>
<linearGradient id="paint11_linear_1472_41514" x1="323.522" y1="160.319" x2="323.522" y2="524.681" gradientUnits="userSpaceOnUse">
<stop stop-color="#2C4E9B" stop-opacity="0.1"/>
<stop offset="1" stop-color="white" stop-opacity="0.1"/>
</linearGradient>
<linearGradient id="paint12_linear_1472_41514" x1="323.524" y1="52.0928" x2="323.524" y2="170.354" gradientUnits="userSpaceOnUse">
<stop stop-color="#2C4E9B" stop-opacity="0.1"/>
<stop offset="1" stop-color="white" stop-opacity="0.1"/>
</linearGradient>
<clipPath id="clip0_1472_41514">
<rect width="961" height="961" fill="white" transform="translate(-157 -138)"/>
</clipPath>
</defs>
</svg>
