<svg width="636" height="859" viewBox="0 0 636 859" fill="none" xmlns="http://www.w3.org/2000/svg">
<g clip-path="url(#clip0_1472_41530)">
<path fill-rule="evenodd" clip-rule="evenodd" d="M125.883 303.654C125.883 348.543 135.635 391.162 153.129 429.5C153.873 431.175 154.692 432.887 155.511 434.562C157.558 438.843 159.717 443.086 161.951 447.255C170.363 462.925 180.115 477.739 191.095 491.623C217.076 524.564 249.794 551.996 287.164 571.798C289.36 572.989 291.593 574.18 293.864 575.223C299.596 578.163 305.477 580.843 311.432 583.337C333.319 592.605 356.508 599.379 380.665 603.25C396.558 605.856 412.899 607.159 429.537 607.159C446.212 607.159 462.515 605.819 478.446 603.213C502.603 599.342 525.792 592.568 547.715 583.3H547.752C553.671 580.806 559.514 578.126 565.209 575.223C567.48 574.106 569.676 572.952 571.909 571.798C609.205 551.959 641.923 524.564 667.941 491.623C678.921 477.739 688.673 462.925 697.123 447.255C699.356 443.086 701.515 438.843 703.562 434.562C704.418 432.85 705.2 431.175 705.944 429.463C723.438 391.125 733.19 348.506 733.19 303.617C733.19 286.495 731.776 269.745 729.059 253.405C725.039 229.322 718.227 206.245 708.922 184.47C706.54 178.85 703.971 173.378 701.254 167.944C700.175 165.673 698.984 163.44 697.83 161.207C646.687 65.3239 545.705 0 429.499 0C313.256 0 212.274 65.3239 161.281 161.281C160.089 163.514 158.936 165.748 157.856 168.018C155.102 173.415 152.571 178.924 150.189 184.545C140.846 206.319 134.034 229.434 130.052 253.479V253.516C127.297 269.819 125.883 286.569 125.883 303.654ZM130.089 303.654C130.089 284.82 131.838 266.432 135.151 248.566C139.543 224.856 146.764 202.113 156.405 180.711C158.898 175.202 161.541 169.73 164.407 164.408C165.524 162.174 166.715 159.978 167.98 157.82C219.16 66.2172 317.127 4.31771 429.499 4.31771C541.834 4.31771 639.764 66.2544 690.944 157.82C692.172 159.978 693.363 162.174 694.517 164.371C697.346 169.73 700.026 175.165 702.483 180.674C712.123 202.039 719.344 224.744 723.736 248.454C727.086 266.321 728.835 284.782 728.835 303.654C728.835 346.608 719.791 387.44 703.45 424.401C702.706 426.113 701.924 427.825 701.143 429.5C699.17 433.781 697.085 438.024 694.889 442.155C686.701 457.826 677.172 472.677 666.415 486.561C641.737 518.534 610.731 545.334 575.259 565.098C573.1 566.364 570.904 567.555 568.671 568.709C563.05 571.687 557.318 574.478 551.475 577.084C529.96 586.724 507.144 593.871 483.285 598.151H483.247C465.79 601.352 447.812 602.99 429.425 602.99C411.075 602.99 393.097 601.315 375.64 598.188C351.818 593.871 328.964 586.724 307.45 577.121C301.569 574.515 295.837 571.724 290.216 568.709C287.983 567.555 285.787 566.364 283.628 565.136C248.156 545.334 217.15 518.534 192.472 486.561C181.715 472.677 172.186 457.826 163.998 442.155C161.764 437.987 159.68 433.743 157.707 429.463C156.926 427.788 156.144 426.076 155.437 424.401V424.363C139.134 387.44 130.089 346.608 130.089 303.654Z" fill="url(#paint0_linear_1472_41530)"/>
<path fill-rule="evenodd" clip-rule="evenodd" d="M125.883 555.346C125.883 572.431 127.297 589.18 130.014 605.521C133.997 629.566 140.809 652.643 150.114 674.418C152.496 680.038 155.065 685.547 157.782 690.981C158.898 693.252 160.052 695.522 161.281 697.793H161.318C212.274 793.75 313.256 859.074 429.499 859.074C545.742 859.074 646.725 793.75 697.718 697.793H697.755C698.984 695.522 700.138 693.289 701.217 690.981C703.971 685.584 706.503 680.038 708.885 674.418H708.922C718.227 652.68 725.039 629.566 729.022 605.521C731.739 589.218 733.153 572.431 733.153 555.346C733.153 510.494 723.401 467.875 705.907 429.537C705.162 427.825 704.344 426.113 703.525 424.438C701.515 420.157 699.356 415.914 697.085 411.745C688.673 396.075 678.884 381.223 667.904 367.34C641.923 334.436 609.205 307.041 571.909 287.202V287.164C569.676 285.973 567.443 284.819 565.172 283.74V283.703C559.44 280.837 553.596 278.12 547.641 275.626C525.754 266.395 502.603 259.62 478.446 255.712H478.409C462.478 253.107 446.175 251.767 429.499 251.767C412.861 251.767 396.521 253.107 380.627 255.675C356.471 259.546 333.282 266.32 311.395 275.588C305.44 278.082 299.596 280.762 293.827 283.666V283.703C291.556 284.782 289.323 285.936 287.127 287.127C249.794 306.966 217.076 334.399 191.095 367.302C180.115 381.186 170.363 396.038 161.951 411.708C159.68 415.877 157.521 420.12 155.511 424.4V424.438C154.692 426.113 153.873 427.825 153.129 429.5C135.635 467.838 125.883 510.457 125.883 555.346ZM135.188 610.434C131.875 592.568 130.126 574.18 130.126 555.346C130.126 512.392 139.171 471.56 155.511 434.599C156.256 432.924 157 431.175 157.782 429.537C159.754 425.256 161.839 421.013 164.035 416.844V416.807C172.224 401.137 181.752 386.285 192.547 372.402C217.225 340.428 248.23 313.629 283.702 293.864V293.827C285.861 292.599 288.057 291.408 290.253 290.291V290.254C295.874 287.276 301.68 284.484 307.524 281.842C329.038 272.238 351.855 265.092 375.677 260.774V260.737C393.134 257.573 411.112 255.935 429.499 255.935C447.887 255.935 465.865 257.61 483.322 260.774H483.359C507.181 265.092 529.998 272.238 551.512 281.842C557.356 284.447 563.088 287.239 568.745 290.217V290.254C570.979 291.37 573.175 292.599 575.334 293.827C610.769 313.629 641.774 340.428 666.452 372.365C677.172 386.248 686.738 401.1 694.927 416.77C697.123 420.939 699.207 425.182 701.18 429.462C701.961 431.137 702.743 432.85 703.487 434.562C719.791 471.486 728.873 512.318 728.873 555.271C728.873 574.143 727.123 592.605 723.773 610.471C719.381 634.144 712.197 656.849 702.557 678.214C700.063 683.723 697.42 689.158 694.592 694.517C693.438 696.751 692.247 698.984 691.018 701.18H690.981C639.801 792.745 541.871 854.682 429.537 854.682C317.165 854.682 219.235 792.745 168.055 701.143H168.018C166.789 698.947 165.561 696.714 164.407 694.48C161.578 689.12 158.936 683.686 156.442 678.177C146.764 656.812 139.58 634.107 135.188 610.434Z" fill="url(#paint1_linear_1472_41530)"/>
<path fill-rule="evenodd" clip-rule="evenodd" d="M251.766 429.5C251.766 446.138 253.106 462.516 255.711 478.41C259.582 502.529 266.356 525.718 275.587 547.605C278.119 553.56 280.836 559.404 283.702 565.173C284.818 567.406 285.935 569.64 287.163 571.836C306.965 609.169 334.398 641.887 367.339 667.867C381.222 678.848 396.037 688.6 411.707 697.049C415.876 699.32 420.119 701.441 424.399 703.489C426.074 704.345 427.787 705.126 429.499 705.871C467.837 723.365 510.456 733.117 555.308 733.117C572.43 733.117 589.142 731.703 605.52 728.985H605.557C629.565 724.966 652.642 718.154 674.417 708.849C680.037 706.466 685.509 703.898 690.98 701.181H691.018C693.288 700.064 695.521 698.91 697.755 697.719H697.792C793.749 646.688 859.073 545.669 859.073 429.463C859.073 313.22 793.749 212.275 697.792 161.244C695.521 160.016 693.288 158.862 691.018 157.783C685.621 155.028 680.074 152.497 674.454 150.115C652.679 140.773 629.602 133.998 605.594 129.978C589.254 127.261 572.467 125.847 555.382 125.847C510.53 125.847 467.911 135.599 429.573 153.093C427.861 153.875 426.149 154.656 424.511 155.438C420.231 157.485 415.987 159.681 411.818 161.914C396.148 170.364 381.297 180.116 367.413 191.096C334.472 217.077 307.077 249.795 287.238 287.128C286.047 289.324 284.893 291.557 283.813 293.791V293.828C280.91 299.597 278.193 305.404 275.699 311.359V311.396C266.468 333.283 259.731 356.434 255.823 380.554C253.106 396.522 251.766 412.825 251.766 429.5ZM260.81 483.323C257.609 465.866 255.972 447.851 255.972 429.5C255.972 411.15 257.647 393.135 260.81 375.678V375.641C265.128 351.819 272.238 329.039 281.878 307.525C284.521 301.644 287.275 295.912 290.29 290.292V290.254C291.444 288.058 292.635 285.9 293.863 283.703V283.666C313.665 248.194 340.465 217.226 372.401 192.511C386.284 181.754 401.136 172.225 416.806 164.036C420.975 161.84 425.218 159.756 429.499 157.783C431.174 157.001 432.886 156.219 434.561 155.512C471.522 139.172 512.354 130.127 555.308 130.127C574.142 130.127 592.567 131.877 610.433 135.227C634.106 139.581 656.811 146.765 678.176 156.443C683.685 158.937 689.157 161.617 694.479 164.408C696.713 165.599 698.946 166.79 701.142 168.056C792.744 219.236 854.681 317.166 854.681 429.538C854.681 541.91 792.781 639.802 701.179 690.982C698.983 692.21 696.75 693.439 694.516 694.593C689.194 697.459 683.759 700.101 678.213 702.558C656.848 712.198 634.143 719.382 610.47 723.774C592.567 727.124 574.105 728.874 555.27 728.874C512.317 728.874 471.485 719.829 434.561 703.489C432.849 702.744 431.136 701.963 429.462 701.181C425.181 699.208 420.975 697.124 416.806 694.928C401.136 686.776 386.284 677.21 372.401 666.49C340.427 641.812 313.591 610.77 293.826 575.297C292.598 573.139 291.407 570.943 290.29 568.746C287.312 563.126 284.483 557.357 281.878 551.513C272.275 529.999 265.128 507.145 260.81 483.323Z" fill="url(#paint2_linear_1472_41530)"/>
<path fill-rule="evenodd" clip-rule="evenodd" d="M583.375 547.642C614.083 528.212 640.882 503.125 662.285 473.831C672.483 459.985 681.491 445.134 689.084 429.538C681.491 413.905 672.484 399.09 662.322 385.207C640.882 355.951 614.083 330.826 583.412 311.434C592.68 333.32 599.455 356.509 603.326 380.666C618.028 395.257 630.87 411.671 641.478 429.538C630.833 447.404 617.954 463.819 603.289 478.372C599.418 502.529 592.643 525.718 583.375 547.642Z" fill="url(#paint3_linear_1472_41530)"/>
<path fill-rule="evenodd" clip-rule="evenodd" d="M447.258 161.951C462.965 170.363 477.817 180.115 491.663 191.132C512.172 185.586 533.686 182.646 555.908 182.646C591.268 182.646 624.916 190.127 655.401 203.602C668.875 234.086 676.357 267.735 676.357 303.095C676.357 325.316 673.379 346.83 667.87 367.34C678.851 381.223 688.603 396.075 697.052 411.745C710.712 378.171 718.231 341.508 718.231 303.132C718.231 280.464 715.625 258.429 710.638 237.25C705.278 214.396 697.238 192.584 686.779 172.149C666.381 161.727 644.607 153.688 621.79 148.365C600.611 143.414 578.538 140.772 555.908 140.772C517.532 140.734 480.832 148.253 447.258 161.951Z" fill="url(#paint4_linear_1472_41530)"/>
<path fill-rule="evenodd" clip-rule="evenodd" d="M447.289 697.049C480.863 710.746 517.526 718.265 555.902 718.265C578.57 718.265 600.642 715.66 621.784 710.672C644.601 705.349 666.413 697.272 686.81 686.85C697.232 666.453 705.272 644.641 710.632 621.824C715.582 600.645 718.225 578.61 718.225 555.942C718.225 517.566 710.706 480.903 697.009 447.329C688.559 462.999 678.807 477.814 667.827 491.697C673.336 512.206 676.314 533.758 676.314 555.942C676.314 591.302 668.832 624.951 655.358 655.398C624.911 668.909 591.225 676.354 555.864 676.354C533.643 676.354 512.129 673.376 491.62 667.83C477.774 678.847 462.959 688.6 447.289 697.049Z" fill="url(#paint5_linear_1472_41530)"/>
<path fill-rule="evenodd" clip-rule="evenodd" d="M0 429.5C0 545.706 65.3239 646.688 161.281 697.756H161.318C163.552 698.948 165.748 700.101 168.018 701.181H168.056C173.453 703.898 178.961 706.466 184.582 708.848C206.357 718.191 229.434 725.003 253.516 728.985H253.554C269.857 731.703 286.606 733.117 303.728 733.117C348.58 733.117 391.199 723.365 429.537 705.871C431.249 705.126 432.962 704.307 434.637 703.489C438.917 701.441 443.16 699.32 447.366 697.049C463.037 688.637 477.851 678.848 491.734 667.867C524.676 641.887 552.071 609.169 571.91 571.836C573.101 569.602 574.255 567.369 575.334 565.136C578.238 559.404 580.917 553.597 583.411 547.642V547.604C592.68 525.718 599.454 502.492 603.325 478.335C605.93 462.441 607.27 446.101 607.27 429.463C607.27 412.825 605.93 396.522 603.362 380.628C599.454 356.472 592.717 333.245 583.449 311.396C580.955 305.441 578.275 299.634 575.371 293.865C574.255 291.632 573.101 289.398 571.947 287.202V287.165C552.108 249.832 524.676 217.114 491.772 191.133C477.888 180.153 463.037 170.401 447.366 161.952C443.198 159.718 438.954 157.522 434.674 155.512C432.999 154.693 431.287 153.874 429.612 153.13C391.273 135.636 348.655 125.884 303.803 125.884C286.681 125.884 269.931 127.298 253.591 130.015C229.508 134.035 206.431 140.847 184.656 150.152C179.036 152.534 173.564 155.066 168.13 157.82C165.897 158.899 163.626 160.09 161.393 161.244C65.3239 212.275 0 313.257 0 429.5ZM4.31771 429.5C4.31771 317.128 66.2544 219.198 157.857 168.019C160.016 166.753 162.212 165.562 164.445 164.445C169.768 161.579 175.202 158.937 180.748 156.443C202.15 146.802 224.893 139.581 248.603 135.189C266.469 131.876 284.857 130.127 303.691 130.127C346.645 130.127 387.477 139.172 424.438 155.512C426.113 156.257 427.825 157.038 429.5 157.82C433.818 159.793 438.024 161.877 442.193 164.11C457.863 172.299 472.714 181.828 486.598 192.622C518.534 217.3 545.334 248.306 565.135 283.741V283.778C566.401 285.937 567.555 288.133 568.709 290.329V290.366C571.686 295.987 574.515 301.756 577.121 307.6V307.637C586.761 329.151 593.908 352.005 598.226 375.827C601.389 393.284 603.064 411.262 603.064 429.612C603.064 448 601.389 465.978 598.226 483.434C593.908 507.294 586.761 530.148 577.121 551.662C574.515 557.505 571.724 563.238 568.709 568.895C567.592 571.091 566.401 573.25 565.173 575.446C545.371 610.918 518.571 641.924 486.598 666.639C472.714 677.359 457.863 686.888 442.193 695.077C438.024 697.273 433.78 699.357 429.5 701.33C427.825 702.149 426.113 702.893 424.401 703.637C387.477 719.94 346.645 729.023 303.691 729.023C284.82 729.023 266.358 727.273 248.491 723.923C224.781 719.531 202.076 712.31 180.711 702.67H180.674C175.165 700.176 169.73 697.496 164.371 694.704C162.137 693.55 159.941 692.359 157.782 691.131C66.2172 639.728 4.31771 541.872 4.31771 429.5Z" fill="url(#paint6_linear_1472_41530)"/>
<path fill-rule="evenodd" clip-rule="evenodd" d="M311.398 583.411C330.828 614.119 355.915 640.919 385.172 662.321C399.055 672.52 413.869 681.49 429.465 689.121C445.098 681.527 459.913 672.52 473.796 662.321C503.09 640.881 528.177 614.082 547.607 583.374C525.72 592.642 502.531 599.417 478.375 603.288C463.821 617.99 447.369 630.869 429.465 641.514C411.599 630.869 395.184 617.99 380.593 603.325C356.474 599.454 333.248 592.679 311.398 583.411Z" fill="url(#paint7_linear_1472_41530)"/>
<path fill-rule="evenodd" clip-rule="evenodd" d="M140.734 555.942C140.734 578.572 143.34 600.608 148.328 621.787C153.65 644.604 161.727 666.415 172.112 686.85C192.51 697.235 214.321 705.349 237.176 710.672C258.355 715.66 280.427 718.265 303.058 718.265C341.433 718.265 378.134 710.746 411.708 697.049C396.037 688.6 381.223 678.847 367.339 667.867C346.83 673.413 325.279 676.391 303.058 676.391C267.697 676.391 234.049 668.909 203.602 655.435C190.09 624.988 182.646 591.302 182.646 555.979C182.646 533.758 185.624 512.206 191.132 491.697C180.152 477.814 170.4 462.999 161.988 447.329C148.253 480.866 140.734 517.566 140.734 555.942Z" fill="url(#paint8_linear_1472_41530)"/>
<path fill-rule="evenodd" clip-rule="evenodd" d="M169.883 429.501C177.476 445.096 186.484 459.911 196.645 473.794C218.085 503.088 244.884 528.175 275.555 547.605C266.324 525.718 259.587 502.529 255.679 478.41C241.013 463.819 228.135 447.367 217.452 429.501C228.135 411.597 241.013 395.182 255.679 380.591C259.587 356.472 266.324 333.283 275.555 311.434C244.847 330.863 218.085 355.951 196.645 385.207C186.484 399.053 177.476 413.905 169.883 429.501Z" fill="url(#paint9_linear_1472_41530)"/>
<path fill-rule="evenodd" clip-rule="evenodd" d="M140.734 303.058C140.734 341.433 148.253 378.134 161.951 411.708C170.363 396.038 180.115 381.186 191.095 367.302C185.586 346.793 182.609 325.242 182.609 303.021C182.609 267.66 190.09 234.012 203.564 203.527C234.049 190.053 267.697 182.572 303.021 182.572C325.242 182.572 346.793 185.512 367.265 191.058C381.149 180.078 396 170.326 411.67 161.876C378.096 148.179 341.396 140.66 303.021 140.66C280.39 140.66 258.355 143.266 237.176 148.253C214.321 153.576 192.51 161.653 172.112 172.075C161.69 192.51 153.613 214.322 148.29 237.176C143.34 258.392 140.734 280.427 140.734 303.058Z" fill="url(#paint10_linear_1472_41530)"/>
<path fill-rule="evenodd" clip-rule="evenodd" d="M266.656 429.5C266.656 452.056 269.262 474.017 274.212 495.084C279.609 518.124 287.761 540.122 298.369 560.706C318.953 571.277 340.951 579.466 363.991 584.825C385.058 589.776 406.982 592.344 429.501 592.344C452.02 592.344 473.981 589.739 495.048 584.825C518.088 579.428 540.086 571.24 560.707 560.706H560.744C571.278 540.122 579.467 518.087 584.864 495.047C589.777 473.98 592.382 452.056 592.382 429.5C592.382 406.981 589.777 385.057 584.864 363.99C579.467 340.95 571.278 318.989 560.781 298.405V298.368C560.744 298.368 560.744 298.331 560.744 298.331C540.161 287.76 518.2 279.571 495.122 274.211C474.055 269.261 452.094 266.655 429.538 266.655C407.019 266.655 385.058 269.261 363.991 274.211C340.951 279.608 319.027 287.76 298.443 298.294V298.331C287.835 318.877 279.684 340.875 274.287 363.915C269.299 385.02 266.656 406.943 266.656 429.5ZM329.784 529.216C316.198 498.695 308.642 464.972 308.642 429.5C308.642 394.065 316.198 360.342 329.784 329.82C360.306 316.234 394.029 308.678 429.501 308.678C464.973 308.678 498.696 316.234 529.217 329.82C542.803 360.342 550.359 394.102 550.359 429.5C550.359 464.972 542.803 498.695 529.217 529.216C498.696 542.802 464.936 550.358 429.501 550.358C394.029 550.321 360.306 542.802 329.784 529.216Z" fill="url(#paint11_linear_1472_41530)"/>
<path fill-rule="evenodd" clip-rule="evenodd" d="M311.398 275.589C333.285 266.321 356.474 259.547 380.631 255.676C395.184 240.973 411.636 228.132 429.503 217.523C447.406 228.169 463.821 241.047 478.412 255.713H478.449C502.606 259.584 525.758 266.358 547.644 275.626C528.214 244.956 503.127 218.156 473.871 196.717C459.987 186.518 445.136 177.51 429.54 169.917C413.907 177.547 399.093 186.518 385.246 196.717C355.915 218.119 330.828 244.919 311.398 275.589Z" fill="url(#paint12_linear_1472_41530)"/>
</g>
<defs>
<linearGradient id="paint0_linear_1472_41530" x1="429.537" y1="0" x2="429.537" y2="607.159" gradientUnits="userSpaceOnUse">
<stop stop-color="#2C4E9B" stop-opacity="0.1"/>
<stop offset="1" stop-color="white" stop-opacity="0.1"/>
</linearGradient>
<linearGradient id="paint1_linear_1472_41530" x1="429.518" y1="251.767" x2="429.518" y2="859.074" gradientUnits="userSpaceOnUse">
<stop stop-color="#2C4E9B" stop-opacity="0.1"/>
<stop offset="1" stop-color="white" stop-opacity="0.1"/>
</linearGradient>
<linearGradient id="paint2_linear_1472_41530" x1="555.419" y1="125.847" x2="555.419" y2="733.117" gradientUnits="userSpaceOnUse">
<stop stop-color="#2C4E9B" stop-opacity="0.1"/>
<stop offset="1" stop-color="white" stop-opacity="0.1"/>
</linearGradient>
<linearGradient id="paint3_linear_1472_41530" x1="636.23" y1="311.434" x2="636.23" y2="547.642" gradientUnits="userSpaceOnUse">
<stop stop-color="#2C4E9B" stop-opacity="0.1"/>
<stop offset="1" stop-color="white" stop-opacity="0.1"/>
</linearGradient>
<linearGradient id="paint4_linear_1472_41530" x1="582.744" y1="140.771" x2="582.744" y2="411.745" gradientUnits="userSpaceOnUse">
<stop stop-color="#2C4E9B" stop-opacity="0.1"/>
<stop offset="1" stop-color="white" stop-opacity="0.1"/>
</linearGradient>
<linearGradient id="paint5_linear_1472_41530" x1="582.757" y1="447.329" x2="582.757" y2="718.265" gradientUnits="userSpaceOnUse">
<stop stop-color="#2C4E9B" stop-opacity="0.1"/>
<stop offset="1" stop-color="white" stop-opacity="0.1"/>
</linearGradient>
<linearGradient id="paint6_linear_1472_41530" x1="303.635" y1="125.884" x2="303.635" y2="733.117" gradientUnits="userSpaceOnUse">
<stop stop-color="#2C4E9B" stop-opacity="0.1"/>
<stop offset="1" stop-color="white" stop-opacity="0.1"/>
</linearGradient>
<linearGradient id="paint7_linear_1472_41530" x1="429.503" y1="583.374" x2="429.503" y2="689.121" gradientUnits="userSpaceOnUse">
<stop stop-color="#2C4E9B" stop-opacity="0.1"/>
<stop offset="1" stop-color="white" stop-opacity="0.1"/>
</linearGradient>
<linearGradient id="paint8_linear_1472_41530" x1="276.221" y1="447.329" x2="276.221" y2="718.265" gradientUnits="userSpaceOnUse">
<stop stop-color="#2C4E9B" stop-opacity="0.1"/>
<stop offset="1" stop-color="white" stop-opacity="0.1"/>
</linearGradient>
<linearGradient id="paint9_linear_1472_41530" x1="222.719" y1="311.434" x2="222.719" y2="547.605" gradientUnits="userSpaceOnUse">
<stop stop-color="#2C4E9B" stop-opacity="0.1"/>
<stop offset="1" stop-color="white" stop-opacity="0.1"/>
</linearGradient>
<linearGradient id="paint10_linear_1472_41530" x1="276.202" y1="140.66" x2="276.202" y2="411.708" gradientUnits="userSpaceOnUse">
<stop stop-color="#2C4E9B" stop-opacity="0.1"/>
<stop offset="1" stop-color="white" stop-opacity="0.1"/>
</linearGradient>
<linearGradient id="paint11_linear_1472_41530" x1="429.519" y1="266.655" x2="429.519" y2="592.344" gradientUnits="userSpaceOnUse">
<stop stop-color="#2C4E9B" stop-opacity="0.1"/>
<stop offset="1" stop-color="white" stop-opacity="0.1"/>
</linearGradient>
<linearGradient id="paint12_linear_1472_41530" x1="429.521" y1="169.917" x2="429.521" y2="275.626" gradientUnits="userSpaceOnUse">
<stop stop-color="#2C4E9B" stop-opacity="0.1"/>
<stop offset="1" stop-color="white" stop-opacity="0.1"/>
</linearGradient>
<clipPath id="clip0_1472_41530">
<rect width="859" height="859" fill="white"/>
</clipPath>
</defs>
</svg>
