<svg width="897" height="139" viewBox="0 0 897 139" fill="none" xmlns="http://www.w3.org/2000/svg">
<path fill-rule="evenodd" clip-rule="evenodd" d="M53.5703 0C83.1547 0 107.128 23.9986 107.128 53.5703C107.128 83.142 83.1547 107.128 53.5703 107.128C23.986 107.128 0 83.1547 0 53.5703C0 23.9986 23.986 0 53.5703 0Z" fill="white"/>
<path fill-rule="evenodd" clip-rule="evenodd" d="M53.2977 27.2845C50.429 27.1707 46.7515 25.3509 45.7658 21.9894C44.7674 18.6404 48.1416 16.5173 46.8147 11.8036C48.8999 12.5744 48.2806 13.8003 48.9883 16.4921C49.5444 13.9267 48.3438 11.0706 50.884 9.61727C53.3356 8.20187 46.701 5.57327 52.2235 3.07104C50.4543 5.05513 51.0482 5.04249 53.5757 7.25405C55.3197 8.79583 54.1824 10.3123 54.1571 12.4481C54.8521 10.603 54.6879 10.325 56.495 8.93484C55.7115 11.4623 56.6467 12.3975 56.7225 14.0783C58.0621 13.8382 57.1648 11.3233 58.4917 11.0959C57.4302 14.8113 61.8912 19.0322 60.7286 22.3053C59.4775 25.907 56.1538 27.3982 53.2977 27.2845ZM54.5994 24.1504C54.2329 20.9657 52.1604 23.6196 51.3895 19.9674C50.8966 17.7811 53.3862 15.7212 53.0323 12.3596C53.8538 13.7118 55.5472 15.7338 54.8774 17.1492C53.7148 19.6009 55.4208 21.5091 54.5994 24.1504ZM47.5603 15.9992C46.6504 18.097 46.3218 20.1064 46.7262 21.2817C47.5477 21.0795 48.0026 21.9641 48.1037 23.9482C49.1526 19.424 46.701 20.5613 47.5603 15.9992Z" fill="white"/>
<path d="M53.6098 27.4362C53.5087 27.4362 53.3949 27.4362 53.2938 27.4362C50.3114 27.3098 46.6086 25.3889 45.6355 22.0399C45.1679 20.4476 45.6481 19.1333 46.1536 17.7306C46.7602 16.075 47.3921 14.3563 46.6844 11.8415L46.6086 11.5761L46.874 11.6772C48.441 12.2585 48.5674 13.1052 48.757 14.508C48.8075 14.8871 48.8707 15.2915 48.9592 15.7591C49.0224 15.1778 49.0224 14.5838 49.0224 14.0151C49.0224 12.2333 49.0223 10.5398 50.8169 9.51619C51.0949 9.36454 51.2465 9.18762 51.2971 8.98542C51.3982 8.58102 51.0444 8.05024 50.6779 7.48155C50.185 6.7233 49.6289 5.86396 49.8943 4.96669C50.1092 4.22108 50.8548 3.56393 52.1817 2.96997L52.346 3.19745C51.7015 3.91778 51.335 4.41064 51.3603 4.80241C51.3856 5.24472 51.8911 5.66176 52.8136 6.43264C53.0663 6.64748 53.357 6.88759 53.6856 7.17825C54.9746 8.31563 54.7724 9.44037 54.5323 10.742C54.4944 10.9569 54.4565 11.1591 54.4186 11.3739C54.7724 10.3882 54.9999 9.94586 56.4279 8.8464L56.6554 8.99805C56.1373 10.6662 56.39 11.6267 56.6175 12.5745C56.7186 12.9915 56.8323 13.4338 56.8702 13.914C57.2999 13.7371 57.3884 13.1684 57.4895 12.5871C57.6032 11.892 57.7169 11.1212 58.4878 10.9821L58.7027 10.919L58.6395 11.1338C58.1213 12.9536 58.9807 14.9377 59.8148 16.8586C60.6615 18.83 61.4703 20.6751 60.8763 22.3559C59.562 26.1219 56.2131 27.4362 53.6098 27.4362ZM47.0383 12.0311C47.6449 14.4827 47.0004 16.252 46.4317 17.8064C45.9135 19.2218 45.4712 20.435 45.9135 21.9388C46.8487 25.1614 50.4251 27.0191 53.3065 27.1329C55.8719 27.2466 59.284 26.0208 60.5983 22.2421C61.1543 20.6751 60.3708 18.8679 59.5494 16.9597C58.7406 15.0767 57.8939 13.1432 58.2983 11.2981C57.9318 11.5129 57.8433 12.0311 57.7549 12.5871C57.6411 13.2822 57.5147 14.0657 56.7565 14.2047L56.6048 14.23L56.5922 14.0657C56.5669 13.5349 56.4532 13.08 56.3268 12.5997C56.0993 11.7025 55.8719 10.7799 56.251 9.30135C55.0883 10.2365 54.9493 10.6283 54.5828 11.7025C54.507 11.93 54.4186 12.1827 54.3048 12.486L54.0268 12.4355C54.0394 11.7783 54.1405 11.2096 54.2416 10.6409C54.4691 9.37718 54.6587 8.37882 53.4834 7.34254C53.1674 7.06452 52.8768 6.82441 52.624 6.60957C51.651 5.78813 51.1075 5.33318 51.0696 4.77713C51.0443 4.39801 51.2592 4.00625 51.6636 3.50075C50.8042 3.96833 50.3114 4.46119 50.1471 5.00461C49.9196 5.77549 50.4251 6.54638 50.9053 7.29199C51.3097 7.91123 51.6889 8.49255 51.5625 9.01069C51.4993 9.28872 51.2971 9.52883 50.9559 9.73103C49.3004 10.6788 49.3004 12.208 49.3004 13.9899C49.3004 14.8239 49.3004 15.6833 49.1234 16.5174H48.8454C48.6432 15.7465 48.5548 15.102 48.4789 14.5333C48.302 13.2442 48.2009 12.5492 47.0383 12.0311ZM54.7471 24.201L54.4691 24.1757C54.3048 22.7224 53.7993 22.5834 53.1674 22.3938C52.4598 22.1916 51.6762 21.9641 51.2592 20.0053C51.0191 18.9311 51.474 17.8696 51.9543 16.7575C52.485 15.519 53.0916 14.1289 52.9021 12.3849L53.1674 12.2964C53.3065 12.5365 53.4834 12.7893 53.6729 13.0673C54.5323 14.369 55.6191 15.9866 55.0252 17.2251C54.4312 18.4635 54.6081 19.563 54.7977 20.7383C54.962 21.8125 55.1389 22.9119 54.7471 24.201ZM53.218 12.903C53.2433 14.4574 52.6999 15.7212 52.2196 16.8586C51.7394 17.9833 51.3224 18.9438 51.5498 19.9295C51.929 21.724 52.6114 21.9262 53.2685 22.1031C53.812 22.2548 54.368 22.4191 54.646 23.4553C54.8103 22.4949 54.6713 21.6229 54.5323 20.7762C54.3427 19.6135 54.1532 18.4256 54.7724 17.0987C55.2905 15.9992 54.2669 14.4574 53.4455 13.219C53.357 13.1179 53.2812 13.0168 53.218 12.903ZM48.2641 23.9861L47.9861 23.9608C47.9229 22.6213 47.6828 21.7872 47.3037 21.5092C47.152 21.3954 46.9877 21.3702 46.7729 21.4207L46.6465 21.446L46.6086 21.3196C46.1916 20.119 46.5075 18.1097 47.4427 15.936L47.7081 16.0245C47.291 18.2361 47.6701 19.0828 48.024 19.8916C48.4031 20.7636 48.7949 21.6482 48.2641 23.9861ZM46.9624 21.1048C47.152 21.1048 47.3163 21.1553 47.4679 21.2691C47.8092 21.5218 48.0493 22.0652 48.1756 22.9246C48.3905 21.3954 48.0872 20.713 47.7712 20.0053C47.4679 19.3229 47.152 18.6152 47.2657 17.1745C46.735 18.7542 46.5707 20.1822 46.8361 21.1048C46.874 21.1048 46.9245 21.1048 46.9624 21.1048Z" fill="white"/>
<path fill-rule="evenodd" clip-rule="evenodd" d="M93.7373 46.7335L83.0966 42.6137C82.3004 42.3104 81.4537 42.6137 81.1883 43.2961C80.9356 43.9659 81.3779 44.7873 82.174 45.0906L92.8148 49.1978C93.611 49.5137 94.4703 49.1978 94.7104 48.528C94.9758 47.8456 94.5335 47.0368 93.7373 46.7335Z" fill="white"/>
<path fill-rule="evenodd" clip-rule="evenodd" d="M93.5507 50.7777L81.3934 46.1776C80.4835 45.8364 79.5104 46.1776 79.2071 46.9485C78.9165 47.7194 79.422 48.6293 80.3319 48.9705L92.4765 53.5832C93.3864 53.9244 94.3595 53.5832 94.6501 52.8123C94.9534 52.0288 94.4606 51.1189 93.5507 50.7777Z" fill="white"/>
<path fill-rule="evenodd" clip-rule="evenodd" d="M93.2949 55.1248L80.2404 50.1709C79.2673 49.8044 78.2058 50.1709 77.9025 50.9924C77.5866 51.8138 78.13 52.7995 79.103 53.166L92.1576 58.1199C93.1307 58.4864 94.1796 58.1199 94.4955 57.2985C94.7988 56.477 94.2554 55.4913 93.2949 55.1248Z" fill="white"/>
<path fill-rule="evenodd" clip-rule="evenodd" d="M92.4849 59.4087L78.7606 54.2021C77.737 53.823 76.6375 54.2147 76.2963 55.0741C75.9677 55.9461 76.5364 56.9697 77.56 57.3615L91.2843 62.5681C92.3206 62.9599 93.4201 62.5681 93.7487 61.6961C94.0899 60.8368 93.5085 59.8005 92.4849 59.4087Z" fill="white"/>
<path fill-rule="evenodd" clip-rule="evenodd" d="M91.6629 63.7941L76.8265 58.1578C75.7144 57.7408 74.5265 58.1578 74.16 59.1056C73.8062 60.0534 74.4254 61.1529 75.5375 61.5826L84.9651 65.159C82.0711 64.3502 78.937 63.4656 75.487 62.3535C67.3231 64.2238 63.3929 66.5618 62.1797 69.0893C60.9538 71.6041 61.9648 80.3366 64.6693 94.895C70.3309 93.0752 75.0067 90.6614 80.1755 87.1861C78.8738 75.7618 79.3793 75.1552 77.509 73.942C75.6512 72.7288 74.0716 73.7399 69.6864 74.7256C77.787 71.3893 82.9431 70.5426 90.8668 67.3579C91.8272 67.5222 92.7498 67.0925 93.0531 66.2837C93.3816 65.3233 92.775 64.2112 91.6629 63.7941Z" fill="white"/>
<path fill-rule="evenodd" clip-rule="evenodd" d="M93.7373 46.7335L83.0966 42.6137C82.3004 42.3104 81.4537 42.6137 81.1883 43.2961C80.9356 43.9659 81.3779 44.7873 82.174 45.0906L92.8148 49.1978C93.611 49.5137 94.4703 49.1978 94.7104 48.528C94.9758 47.8456 94.5335 47.0368 93.7373 46.7335Z" fill="white"/>
<path fill-rule="evenodd" clip-rule="evenodd" d="M93.5507 50.7777L81.3934 46.1776C80.4835 45.8364 79.5104 46.1776 79.2071 46.9485C78.9165 47.7194 79.422 48.6293 80.3319 48.9705L92.4765 53.5832C93.3864 53.9244 94.3595 53.5832 94.6501 52.8123C94.9534 52.0288 94.4606 51.1189 93.5507 50.7777Z" fill="white"/>
<path fill-rule="evenodd" clip-rule="evenodd" d="M93.2949 55.1248L80.2404 50.1709C79.2673 49.8044 78.2058 50.1709 77.9025 50.9924C77.5866 51.8138 78.13 52.7995 79.103 53.166L92.1576 58.1199C93.1307 58.4864 94.1796 58.1199 94.4955 57.2985C94.7988 56.477 94.2554 55.4913 93.2949 55.1248Z" fill="white"/>
<path fill-rule="evenodd" clip-rule="evenodd" d="M92.4849 59.4087L78.7606 54.2021C77.737 53.823 76.6375 54.2147 76.2963 55.0741C75.9677 55.9461 76.5364 56.9697 77.56 57.3615L91.2843 62.5681C92.3206 62.9599 93.4201 62.5681 93.7487 61.6961C94.0899 60.8368 93.5085 59.8005 92.4849 59.4087Z" fill="white"/>
<path fill-rule="evenodd" clip-rule="evenodd" d="M91.6629 63.7941L76.8265 58.1578C75.7144 57.7408 74.5265 58.1578 74.16 59.1056C73.8062 60.0534 74.4254 61.1529 75.5375 61.5826L84.9651 65.159C82.0711 64.3502 78.937 63.4656 75.487 62.3535C67.3231 64.2238 63.3929 66.5618 62.1797 69.0893C60.9538 71.6041 61.9648 80.3366 64.6693 94.895C70.3309 93.0752 75.0067 90.6614 80.1755 87.1861C78.8738 75.7618 79.3793 75.1552 77.509 73.942C75.6512 72.7288 74.0716 73.7399 69.6864 74.7256C77.787 71.3893 82.9431 70.5426 90.8668 67.3579C91.8272 67.5222 92.7498 67.0925 93.0531 66.2837C93.3816 65.3233 92.775 64.2112 91.6629 63.7941Z" fill="white"/>
<path fill-rule="evenodd" clip-rule="evenodd" d="M15.6442 63.7941L30.4933 58.1578C31.6054 57.7408 32.8059 58.1578 33.1472 59.1056C33.501 60.0534 32.8944 61.1529 31.7823 61.5826L22.3421 65.159C25.2361 64.3502 28.3702 63.4656 31.8329 62.3535C39.984 64.2112 43.9143 66.5618 45.1401 69.0893C46.366 71.6041 45.355 80.3366 42.6379 94.895C37.3175 93.4038 32.1362 90.6109 26.9801 87.0092C28.2817 75.5849 27.9279 75.1426 29.7982 73.942C31.6686 72.7288 33.2356 73.7399 37.6335 74.7256C29.5328 71.3893 24.3767 70.5426 16.453 67.3579C15.5052 67.5222 14.5827 67.0925 14.2667 66.2837H14.2794C13.9255 65.3233 14.5448 64.2112 15.6442 63.7941Z" fill="white"/>
<path fill-rule="evenodd" clip-rule="evenodd" d="M14.8257 59.4087L28.55 54.2021C29.5736 53.823 30.6857 54.2147 31.0143 55.0741C31.3429 55.9461 30.7742 56.9697 29.7632 57.3615L16.0389 62.5681C15.0153 62.9599 13.9032 62.5681 13.5746 61.6961C13.2334 60.8368 13.8147 59.8005 14.8257 59.4087Z" fill="white"/>
<path fill-rule="evenodd" clip-rule="evenodd" d="M14.0249 55.1248L27.0668 50.1709C28.0525 49.8044 29.1014 50.1709 29.4174 50.9924C29.7333 51.8138 29.1899 52.7995 28.2168 53.166L15.1749 58.1199C14.1892 58.4864 13.1403 58.1199 12.8244 57.2985C12.5084 56.477 13.0518 55.4913 14.0249 55.1248Z" fill="white"/>
<path fill-rule="evenodd" clip-rule="evenodd" d="M13.7616 50.7777L25.9062 46.1776C26.8161 45.8364 27.8018 46.1776 28.0798 46.9485C28.3705 47.7194 27.8776 48.6293 26.9677 48.9705L14.8105 53.5832C13.9006 53.9244 12.9275 53.5832 12.6368 52.8123C12.3462 52.0288 12.8517 51.1189 13.7616 50.7777Z" fill="white"/>
<path fill-rule="evenodd" clip-rule="evenodd" d="M13.5725 46.7335L24.2133 42.6137C25.0094 42.3104 25.8688 42.6137 26.1215 43.2961C26.3743 43.9659 25.9319 44.7873 25.1358 45.0906L14.495 49.1978C13.6989 49.5137 12.8521 49.1978 12.5868 48.528C12.334 47.8456 12.7763 47.0368 13.5725 46.7335Z" fill="white"/>
<path fill-rule="evenodd" clip-rule="evenodd" d="M13.5725 46.7335L24.2133 42.6137C25.0094 42.3104 25.8688 42.6137 26.1215 43.2961C26.3743 43.9659 25.9319 44.7873 25.1358 45.0906L14.495 49.1978C13.6989 49.5137 12.8521 49.1978 12.5868 48.528C12.334 47.8456 12.7763 47.0368 13.5725 46.7335Z" fill="white"/>
<path fill-rule="evenodd" clip-rule="evenodd" d="M13.7616 50.7777L25.9062 46.1776C26.8161 45.8364 27.8018 46.1776 28.0798 46.9485C28.3705 47.7194 27.8776 48.6293 26.9677 48.9705L14.8105 53.5832C13.9132 53.9244 12.9275 53.5832 12.6368 52.8123C12.3462 52.0288 12.8517 51.1189 13.7616 50.7777Z" fill="white"/>
<path fill-rule="evenodd" clip-rule="evenodd" d="M14.0249 55.1248L27.0668 50.1709C28.0525 49.8044 29.1014 50.1709 29.4174 50.9924C29.7333 51.8138 29.1899 52.7995 28.2168 53.166L15.1749 58.1199C14.1892 58.4864 13.1403 58.1199 12.8244 57.2985C12.5084 56.477 13.0518 55.4913 14.0249 55.1248Z" fill="white"/>
<path fill-rule="evenodd" clip-rule="evenodd" d="M14.8257 59.4087L28.55 54.2021C29.5736 53.823 30.6857 54.2147 31.0143 55.0741C31.3429 55.9461 30.7742 56.9697 29.7632 57.3615L16.0389 62.5681C15.0153 62.9599 13.9032 62.5681 13.5746 61.6961C13.2334 60.8368 13.8147 59.8005 14.8257 59.4087Z" fill="white"/>
<path fill-rule="evenodd" clip-rule="evenodd" d="M15.6432 63.7941L30.4922 58.1578C31.6043 57.7408 32.8049 58.1578 33.1461 59.1056C33.4999 60.0534 32.8933 61.1529 31.7812 61.5826L22.341 65.159C25.235 64.3502 28.3691 63.4656 31.8318 62.3535C39.983 64.2238 43.9132 66.5618 45.1391 69.0893C46.3649 71.6041 45.3539 80.3366 42.6368 94.895C37.3038 93.4038 32.1351 90.6109 26.9664 87.0092C28.268 75.5849 27.9142 75.1426 29.7845 73.942C31.6549 72.7288 33.2219 73.7399 37.6198 74.7256C29.5191 71.3893 24.363 70.5426 16.4393 67.3579C15.4915 67.5222 14.569 67.0925 14.253 66.2837H14.2657C13.9245 65.3233 14.5437 64.2112 15.6432 63.7941Z" fill="white"/>
<path fill-rule="evenodd" clip-rule="evenodd" d="M25.1484 37.0151L38.3925 62.783C50.4866 57.2351 58.2081 58.8148 68.9879 63.5159L81.916 37.6723C81.4358 37.3437 80.9556 37.0278 80.4627 36.7118L80.1973 37.2805C80.5006 37.4701 80.8039 37.6723 81.1072 37.8745L68.6846 62.6945L68.634 62.6692L68.495 62.9599C58.8526 58.8022 50.4108 57.3741 38.8601 62.2396L38.7085 61.9363L38.6579 61.9615L25.9825 37.2679C26.2732 37.1036 26.5638 36.9519 26.8545 36.775L26.5891 36.2063C26.0962 36.4717 25.616 36.7497 25.1484 37.0151ZM58.5367 31.2524C56.8812 31.4294 55.1119 31.7327 53.2416 32.1623C51.3712 31.8211 49.6399 31.581 47.997 31.442C49.6652 31.6568 51.4091 31.9349 53.2668 32.3014C55.1119 31.8464 56.8685 31.4926 58.5367 31.2524Z" fill="#ED1C24"/>
<path fill-rule="evenodd" clip-rule="evenodd" d="M26.0703 35.1575L38.8721 62.2523C43.1436 60.4451 46.998 59.51 50.6376 59.2446C46.9727 59.4215 43.2826 60.2429 39.5292 61.8858L39.327 61.393C39.2765 61.4056 39.2259 61.4309 39.188 61.4435L26.8791 35.385C27.3593 35.1196 27.8396 34.8416 28.3324 34.5888L28.0923 33.9949C27.4099 34.3614 26.7401 34.7405 26.0703 35.1575ZM64.9432 61.5446C66.1059 61.9743 67.2938 62.4419 68.507 62.96L80.917 35.7136C80.2851 35.246 79.6533 34.8289 78.9961 34.4245L78.756 35.0185C78.7939 35.0438 78.8318 35.0691 78.8697 35.0943C79.2868 35.3597 79.7164 35.6504 80.1335 35.9284L68.1911 62.1512C68.0394 62.1006 67.9004 62.0248 67.7488 61.9616L67.5339 62.5051C66.6746 62.1638 65.8026 61.8353 64.9432 61.5446Z" fill="#ED1C24"/>
<path fill-rule="evenodd" clip-rule="evenodd" d="M28.2266 32.7058L39.8657 61.0643C44.3267 59.1939 48.99 58.3851 53.8428 58.6379C58.4302 58.8654 62.9038 60.0533 67.1753 61.6962L78.8397 33.1354C75.8573 30.5827 72.2303 29.1546 68.3632 28.6239C63.3967 27.9414 58.228 28.7123 53.4636 30.1404L53.312 30.1909L53.1477 30.153C45.5652 28.3205 36.7569 27.5749 29.7557 31.7074C29.2249 32.0233 28.7194 32.3519 28.2266 32.7058Z" fill="white"/>
<path fill-rule="evenodd" clip-rule="evenodd" d="M27.4766 32.4909L39.5327 61.8857C49.0993 57.6901 58.3752 58.8654 67.5374 62.505L79.6062 32.9585C73.7551 27.676 64.5297 26.1595 53.3076 29.5464C42.452 26.9304 33.7827 27.7013 27.4766 32.4909ZM28.2348 32.7058L39.8739 61.0643C44.335 59.1939 48.9982 58.3851 53.851 58.6379C58.4384 58.8654 62.9121 60.0533 67.1836 61.6962L78.848 33.1354C75.8655 30.5827 72.2386 29.1546 68.3715 28.6238C63.4049 27.9414 58.2362 28.7123 53.4719 30.1403L53.3202 30.1909L53.1559 30.153C45.5734 28.3205 36.7651 27.5749 29.7639 31.7074C29.2332 32.0233 28.7277 32.3519 28.2348 32.7058Z" fill="#ED1C24"/>
<path fill-rule="evenodd" clip-rule="evenodd" d="M54.2997 34.7277C56.1953 34.9425 57.9393 35.6881 59.3547 36.8255L60.8712 35.309L62.4003 36.8381L60.8838 38.3673C62.0212 39.77 62.7668 41.514 62.9817 43.4223C63.702 43.4223 64.4097 43.4223 65.1427 43.4349C65.13 44.1426 65.1174 44.8756 65.1174 45.5959C64.3971 45.5959 63.6894 45.5833 62.9817 45.5706C62.7668 47.4663 62.0212 49.1976 60.8838 50.6256C61.3893 51.1438 61.8822 51.6493 62.3877 52.1674C61.8696 52.6729 61.3514 53.1784 60.8333 53.6839C60.3404 53.1658 59.8349 52.6603 59.3421 52.1548C57.914 53.2795 56.1827 54.0377 54.2871 54.2399C54.2744 54.9729 54.2492 55.6933 54.2492 56.4136C53.5162 56.401 52.8085 56.3757 52.0755 56.363C52.0881 55.6553 52.1134 54.9476 52.1261 54.2273C50.2304 54.0251 48.4991 53.2669 47.0837 52.1421C46.5529 52.635 46.0221 53.1278 45.4914 53.6333C44.9985 53.1152 44.5056 52.5844 44.0001 52.0663C44.5183 51.5861 45.0238 51.0932 45.5419 50.613C44.4045 49.185 43.6589 47.4536 43.4441 45.558C42.7111 45.5327 41.9781 45.5074 41.2578 45.4822C41.2704 44.7492 41.3084 44.0415 41.3336 43.3085C42.0287 43.3338 42.7364 43.3717 43.4315 43.397C43.6463 41.4887 44.3919 39.7574 45.5293 38.342C45.0364 37.7986 44.5436 37.2552 44.0507 36.7244C44.5815 36.2442 45.1122 35.7513 45.6557 35.2584C46.1232 35.7766 46.6035 36.2947 47.0711 36.8128C48.4865 35.6755 50.2304 34.9299 52.1261 34.715V32.5667H54.2871V34.7277H54.2997ZM53.2129 37.0656C57.2948 37.0656 60.6311 40.4019 60.6311 44.4838C60.6311 48.5657 57.2948 51.8894 53.2129 51.8894C49.131 51.8894 45.7947 48.5657 45.7947 44.4838C45.7947 40.4019 49.131 37.0656 53.2129 37.0656Z" fill="#30378D"/>
<path fill-rule="evenodd" clip-rule="evenodd" d="M54.2997 34.7277C56.1953 34.9425 57.9393 35.6881 59.3547 36.8255L60.8712 35.309L62.4003 36.8381L60.8838 38.3673C62.0212 39.77 62.7668 41.514 62.9817 43.4223C63.702 43.4223 64.4097 43.4223 65.1427 43.4349C65.13 44.1426 65.1174 44.8756 65.1174 45.5959C64.3971 45.5959 63.6894 45.5833 62.9817 45.5706C62.7668 47.4663 62.0212 49.1976 60.8838 50.6256C61.3893 51.1438 61.8822 51.6493 62.3877 52.1674C61.8696 52.6729 61.3514 53.1784 60.8333 53.6839C60.3404 53.1658 59.8349 52.6603 59.3421 52.1548C57.914 53.2795 56.1827 54.0377 54.2871 54.2399C54.2744 54.9729 54.2492 55.6933 54.2492 56.4136C53.5162 56.401 52.8085 56.3757 52.0755 56.363C52.0881 55.6553 52.1134 54.9476 52.1261 54.2273C50.2304 54.0251 48.4991 53.2669 47.0837 52.1421C46.5529 52.635 46.0221 53.1278 45.4914 53.6333C44.9985 53.1152 44.5056 52.5844 44.0001 52.0663C44.5183 51.5861 45.0238 51.0932 45.5419 50.613C44.4045 49.185 43.6589 47.4536 43.4441 45.558C42.7111 45.5327 41.9781 45.5074 41.2578 45.4822C41.2704 44.7492 41.3084 44.0415 41.3336 43.3085C42.0287 43.3338 42.7364 43.3717 43.4315 43.397C43.6463 41.4887 44.3919 39.7574 45.5293 38.342C45.0364 37.7986 44.5436 37.2552 44.0507 36.7244C44.5815 36.2442 45.1122 35.7513 45.6557 35.2584C46.1232 35.7766 46.6035 36.2947 47.0711 36.8128C48.4865 35.6755 50.2304 34.9299 52.1261 34.715V32.5667H54.2871V34.7277H54.2997ZM53.2129 37.0656C57.2948 37.0656 60.6311 40.4019 60.6311 44.4838C60.6311 48.5657 57.2948 51.8894 53.2129 51.8894C49.131 51.8894 45.7947 48.5657 45.7947 44.4838C45.7947 40.4019 49.131 37.0656 53.2129 37.0656Z" fill="#3155A6"/>
<path fill-rule="evenodd" clip-rule="evenodd" d="M50.5078 33.0347H56.1694L54.9562 58.0443H51.443L50.5078 33.0347Z" fill="#30378D"/>
<path d="M0.0234375 137.344V116.72H5.54602V124.719H9.91859V116.72H15.4412V137.344H9.91859V128.877H5.54602V137.344H0.0234375ZM33.8793 123.898H28.7232C28.7232 122.95 28.5842 122.154 28.3061 121.497C27.8891 120.587 27.2572 120.132 26.3852 120.132C25.3237 120.132 24.5907 120.802 24.1863 122.129C23.8577 123.19 23.6935 124.82 23.6935 127.019C23.6935 129.496 23.8451 131.177 24.1231 132.074C24.5023 133.313 25.311 133.932 26.5116 133.932C27.4721 133.932 28.1671 133.566 28.5715 132.82C28.9127 132.188 29.0897 131.164 29.0897 129.749L33.8793 130.166C33.8793 132.466 33.2095 134.299 31.8573 135.689C30.5051 137.066 28.6347 137.761 26.2589 137.761C23.188 137.761 20.9258 136.649 19.4599 134.4C18.2972 132.58 17.7159 130.128 17.7159 127.032C17.7159 124.062 18.2846 121.661 19.4346 119.816C20.9006 117.478 23.188 116.303 26.2589 116.303C28.7864 116.303 30.7073 117.036 32.0342 118.514C33.26 119.867 33.8793 121.661 33.8793 123.898ZM35.9645 137.344V116.72H43.7239L46.125 128.296L48.9431 116.72H56.5004V137.344H50.9778V122.103L47.0981 137.344H43.7744L40.2738 121.585L40.2106 137.344H35.9645ZM74.0665 116.72V130.798C74.0665 133.111 73.422 134.855 72.1203 136.005C70.8313 137.167 68.9609 137.749 66.5093 137.749C64.0702 137.749 62.2504 137.155 61.0499 135.979C59.8493 134.791 59.2553 133.073 59.2553 130.811V116.732H64.7906V131.038C64.7906 131.935 64.9548 132.605 65.2834 133.073C65.6878 133.654 66.3323 133.945 67.179 133.945C68.0384 133.945 68.6576 133.616 69.0241 132.959C69.3148 132.441 69.4538 131.695 69.4538 130.76V116.732H74.0665V116.72ZM75.3555 120.713V116.72H90.7859V120.713H85.8699V137.357H80.3347V120.713H75.3555ZM93.4777 137.344V116.72H107.24V120.713H99.0002V124.884H104.535V128.89H99.0002V133.186H107.24V137.357H93.4777V137.344Z" fill="#3155A6"/>
<path d="M81.9795 37.5838C81.4992 37.2426 81.019 36.9393 80.602 36.6739L81.019 35.7767L81.0569 35.7009L80.9811 35.6503C80.425 35.2333 79.8184 34.8289 79.136 34.4118L79.7047 33.0217L79.73 32.9459L79.6668 32.8953C73.5629 27.3854 64.1985 26.1722 53.2924 29.4579C42.0576 26.7409 33.5905 27.714 27.3981 32.4278L27.3223 32.4783L27.9415 33.9822C27.297 34.3234 26.6652 34.6772 26.008 35.0816L25.9196 35.1322L26.425 36.1937C25.9322 36.4591 25.452 36.7245 25.0855 36.9393L24.9844 36.9899L38.279 62.8462L38.3296 62.9473L38.4307 62.8967C50.2973 57.4626 58.0188 58.878 68.9376 63.6297L69.0387 63.6676L82.0553 37.647L81.9795 37.5838ZM78.8074 35.1827C79.2118 35.4355 79.6036 35.7009 79.9954 35.9662L68.1288 62.0121C68.0529 61.9742 67.9645 61.9363 67.8886 61.911L78.8074 35.1827ZM80.2481 37.4575C80.3745 37.5333 80.4882 37.6218 80.6146 37.6976C80.7283 37.7734 80.8421 37.8492 80.9685 37.9251L70.5299 58.8022L80.2481 37.4575ZM80.7789 35.764L80.4124 36.5602L80.0586 37.3437L68.5711 62.5682L68.4447 62.8335C68.1793 62.7198 67.9139 62.6187 67.6612 62.505L67.8128 62.1259C67.9266 62.1764 68.0403 62.2269 68.154 62.2649L68.2425 62.3028L80.2228 35.9915L80.2608 35.9031L80.1849 35.8525C79.7679 35.5745 79.3509 35.2838 78.9212 35.0184C78.9085 35.0184 78.8959 35.0058 78.8833 34.9932L79.0349 34.614C79.6921 34.9932 80.2608 35.3723 80.7789 35.764ZM53.2797 29.6728L53.305 29.6854L53.3303 29.6728C64.1353 26.4123 73.4112 27.6002 79.452 33.0091L67.6865 61.8352L67.6612 61.8857L67.459 62.3786C67.2189 62.2775 66.9788 62.2017 66.7386 62.1132C66.4353 61.9995 66.1447 61.8857 65.854 61.7846C65.6265 61.6962 65.3991 61.6203 65.159 61.5319C60.8875 59.9648 56.6792 59.017 52.1171 59.1181C52.1044 59.1181 52.0792 59.1181 52.0665 59.1181C47.7445 59.1181 43.6247 60.0028 39.568 61.7594L27.613 32.5288C33.7422 27.9162 42.1461 26.981 53.2797 29.6728ZM36.535 57.5511L26.1344 37.3185C26.3619 37.1921 26.5767 37.0657 26.8042 36.9393L36.535 57.5511ZM38.696 60.1418L27.019 35.4355L27.1833 35.347C27.5372 35.1448 27.9036 34.9426 28.2701 34.7531L38.696 60.1418ZM28.03 34.1591L28.1943 34.5509C27.8152 34.7404 27.436 34.9552 27.0822 35.1574L26.741 35.347L39.0878 61.494L39.1384 61.5951L39.2395 61.5445C39.2521 61.5445 39.2521 61.5319 39.2647 61.5319L39.4164 61.911C39.3406 61.9363 39.2647 61.9742 39.1889 61.9995C39.1005 62.0374 39.012 62.0627 38.9235 62.1006L38.7972 61.8478L26.9811 36.8382H26.9937L26.6399 36.0673L26.6272 36.08L26.2102 35.208C26.8295 34.8162 27.4234 34.475 28.03 34.1591ZM25.3003 37.0657C25.6542 36.8635 26.0838 36.6108 26.5262 36.3833L26.7031 36.7498C26.4377 36.9014 26.1849 37.0404 25.9196 37.1794L25.8184 37.23L38.5697 62.0247L38.6076 62.1132L38.6581 62.1006L38.8098 62.4165L38.9109 62.3786C39.3658 62.189 39.7955 62.0374 40.2378 61.8605C40.5285 61.7467 40.8318 61.633 41.1224 61.5192C40.2505 61.8605 39.3532 62.227 38.4433 62.644L25.3003 37.0657ZM68.9376 63.3643C66.8903 62.4797 64.9568 61.7088 63.0864 61.0769C63.7436 61.2791 64.4007 61.4813 65.0579 61.7215C65.5254 61.8984 65.993 62.0753 66.4733 62.2522C66.5112 62.2649 66.5491 62.2775 66.587 62.3028C67.2062 62.5429 67.8255 62.8083 68.4447 63.0737L68.5458 63.1116L68.6848 62.8209L68.7354 62.8462L81.1959 37.9251L81.2465 37.8366L81.158 37.786C81.0064 37.6976 80.8674 37.5965 80.7283 37.508C80.602 37.4196 80.463 37.3311 80.3366 37.2426L80.5009 36.8761C80.88 37.1163 81.3223 37.4069 81.752 37.7102L68.9376 63.3643Z" fill="#ED1C24"/>
<path d="M39.8057 61.216L39.9068 61.178C44.3426 59.3203 49.0311 58.5115 53.8333 58.7643C57.9911 58.9791 62.351 59.9775 67.1406 61.8099L67.2417 61.8478L78.944 33.186L78.9693 33.1102L78.9187 33.0596C76.0627 30.608 72.5242 29.0915 68.3917 28.5228C63.9054 27.9035 58.8757 28.409 53.4416 30.0519L53.3152 30.0898L53.1762 30.0519C43.2431 27.6508 35.5595 28.1563 29.6957 31.619C29.1649 31.9349 28.6468 32.2635 28.154 32.6173L28.0781 32.6679L39.7552 61.1148L39.8057 61.216ZM29.8095 31.8211C35.6227 28.3964 43.2431 27.8909 53.1256 30.2794L53.3278 30.3299L53.5048 30.2794C58.9136 28.6618 63.9054 28.1436 68.3664 28.7629C72.4231 29.3189 75.911 30.8102 78.7165 33.1986L67.1153 61.5572C62.3384 59.7247 58.0037 58.739 53.846 58.5242C53.2646 58.4989 52.696 58.4736 52.1146 58.4736C47.919 58.4736 43.8244 59.2824 39.9195 60.9127L28.3688 32.7563C28.8237 32.4278 29.3166 32.1118 29.8095 31.8211Z" fill="#ED1C24"/>
<path fill-rule="evenodd" clip-rule="evenodd" d="M53.243 27.2462C50.3743 27.1325 46.6968 25.3127 45.7111 21.9511C44.7127 18.5895 48.0869 16.4791 46.76 11.7653C48.8452 12.5488 48.226 13.762 48.9337 16.4664C49.4897 13.901 48.2891 11.0449 50.8293 9.59163C53.281 8.17623 46.6463 5.535 52.1689 3.04541C50.3996 5.0295 50.9936 5.01686 53.5211 7.22842C55.265 8.77019 54.1277 10.2741 54.115 12.4224C54.8101 10.5647 54.6458 10.2993 56.453 8.90921C55.6694 11.4367 56.6046 12.3719 56.6804 14.0527C58.02 13.8252 57.1228 11.3103 58.4497 11.0702C57.3881 14.7856 61.8492 19.0066 60.6865 22.2797C59.4228 25.8561 56.1117 27.3599 53.243 27.2462ZM54.5447 24.1121C54.1782 20.9275 52.1057 23.5813 51.3348 19.9291C50.8419 17.7428 53.3189 15.6829 52.9777 12.3213C53.7991 13.6735 55.5051 15.6955 54.8227 17.1236C53.6601 19.55 55.3661 21.4582 54.5447 24.1121ZM47.5056 15.9483C46.5957 18.0461 46.2671 20.0681 46.6715 21.2308C47.493 21.0286 47.9606 21.9132 48.0617 23.9099C49.0979 19.3857 46.6589 20.5231 47.5056 15.9483Z" fill="#ED1C24"/>
<path fill-rule="evenodd" clip-rule="evenodd" d="M53.0865 18.3875C53.1244 18.5138 53.175 18.6528 53.2761 18.7919C55.2222 21.8122 57.0168 23.5435 57.0926 26.8167C57.1684 29.8876 56.3722 32.2634 53.5162 33.881C53.4909 33.9063 53.4656 33.8178 53.4151 33.8178C53.3898 33.8305 53.3519 33.8178 53.314 33.8052C50.42 32.2129 49.4595 30.987 49.5354 27.8908C49.5986 24.5545 52.164 23.1518 53.0865 18.7792C53.1244 18.6655 53.0612 18.5265 53.0865 18.3875Z" fill="white"/>
<path fill-rule="evenodd" clip-rule="evenodd" d="M65.1374 43.3214C64.455 43.3088 63.7725 43.3088 63.0648 43.3088C62.8374 41.489 62.1297 39.7829 61.0176 38.3675L62.5467 36.8384L60.9417 35.2334L60.8659 35.1576L59.3368 36.6867C58.389 35.9411 57.3148 35.3977 56.1648 35.0439L56.2659 33.0471V32.9334H54.8252C56.6071 31.3916 57.2137 29.3444 57.1505 26.8295C57.0873 23.5564 55.2296 21.825 53.2708 18.8047C53.195 18.6783 53.1444 18.5519 53.1065 18.4382C53.0939 18.4003 53.0939 18.3624 53.0939 18.3245C53.0939 18.3371 53.0812 18.3497 53.0812 18.375C53.0812 18.3624 53.0686 18.3371 53.0686 18.3245C53.0686 18.3497 53.0812 18.3624 53.0812 18.3877C53.0559 18.5014 53.0433 18.6151 53.018 18.7289C52.0829 23.1014 49.3026 24.8328 49.2773 27.929C49.2521 30.3554 50.0229 31.7581 51.7164 32.9587H50.3894L50.4653 34.9933C49.2394 35.3472 48.0894 35.9158 47.091 36.712L46.5729 36.1433C46.2949 35.84 46.0169 35.5367 45.7388 35.2334L45.663 35.145L45.5872 35.2208C45.0564 35.7136 44.513 36.2065 43.9822 36.6867L43.9064 36.7626L43.9822 36.8384C44.1591 37.0406 44.3487 37.2301 44.5256 37.4323C44.8163 37.7483 45.107 38.0642 45.3976 38.3928C44.2729 39.8208 43.5652 41.5143 43.3503 43.3341C42.9586 43.3214 42.5668 43.2961 42.1877 43.2835L41.2525 43.2456L41.2399 43.65C41.2146 44.2692 41.1893 44.8885 41.1641 45.5203V45.6214H41.2652C41.5685 45.6341 41.8591 45.6467 42.1624 45.6467C42.5668 45.6594 42.9586 45.672 43.363 45.6846C43.5778 47.4791 44.2855 49.1852 45.4103 50.6259C45.1575 50.866 44.9048 51.1061 44.6394 51.3462C44.3993 51.5737 44.1718 51.7885 43.9317 52.0034L43.8558 52.0792L44.5635 52.8248C44.8542 53.1281 45.1449 53.4314 45.4229 53.7347L45.4987 53.8105L45.5745 53.7347C46.08 53.2545 46.5855 52.7743 47.091 52.3067C48.3042 53.2545 49.707 53.8737 51.1856 54.1897L51.3372 58.1705H55.0527L55.2422 54.1897C56.7208 53.8864 58.1236 53.2671 59.3368 52.3193L60.828 53.8484L60.9038 53.7726C61.2198 53.4693 61.5357 53.1534 61.8516 52.8501L62.5341 52.1803L62.4582 52.1045C62.0917 51.738 61.7379 51.3715 61.384 51.0176L61.0176 50.6385C62.1297 49.2105 62.8374 47.5171 63.0648 45.6973C63.7093 45.7099 64.4044 45.7225 65.1121 45.7225H65.2258V45.6088C65.2258 44.8885 65.2258 44.1555 65.2511 43.4478V43.3341L65.1374 43.3214ZM54.1807 32.7944C54.1301 32.8449 54.0796 32.8828 54.029 32.9334H53.8521C53.8647 32.8576 53.8647 32.7691 53.8774 32.6933H54.1807V32.7944ZM53.2202 32.9208H52.6515C52.5252 32.8449 52.4114 32.7565 52.2977 32.6806H53.2455C53.2455 32.7691 53.2329 32.8449 53.2202 32.9208ZM51.0845 51.46C48.0894 50.5501 45.9031 47.7698 45.9031 44.4841C45.9031 41.3879 47.8493 38.7466 50.579 37.6851L51.0845 51.46ZM56.0384 37.7609C58.667 38.873 60.5247 41.4637 60.5247 44.4841C60.5247 47.7572 58.351 50.5248 55.3812 51.4473L56.0384 37.7609ZM55.8867 23.885C56.3038 24.8328 56.5186 25.7932 56.5312 26.8295C56.5818 29.2053 55.9752 31.1136 54.3955 32.5796V32.4532H53.9026C54.4713 28.5735 54.3955 24.3146 53.6878 20.2201C54.5724 21.5091 55.2296 22.4064 55.8867 23.885ZM49.8966 27.9921C49.9092 27.0696 50.0988 26.5767 50.3894 25.8311C50.7938 24.8328 51.5015 23.7965 52.007 22.8487C52.4367 22.0778 52.8032 21.2184 53.0559 20.3465C53.6373 24.3652 53.8268 28.3965 53.2708 32.4532H52.0197V32.4784C50.5664 31.4043 49.8587 30.1405 49.8966 27.9921ZM47.1542 52.0666L47.0784 52.0034L47.0152 52.0666C46.5097 52.5341 46.0042 53.0144 45.4987 53.482C45.2333 53.2039 44.9806 52.9259 44.7152 52.6479L44.1591 52.0666C44.374 51.877 44.5762 51.6748 44.7784 51.4726C45.0564 51.2072 45.3344 50.9418 45.6125 50.6891L45.6883 50.6259L45.6251 50.5501C44.4751 49.0968 43.7547 47.3654 43.5525 45.5456L43.5399 45.4572H43.4514C43.0218 45.4445 42.5795 45.4319 42.1498 45.4192C41.8844 45.4066 41.6316 45.4066 41.3663 45.394C41.3789 44.8 41.4042 44.2187 41.4294 43.6374L41.4421 43.4478L42.1624 43.4857C42.5795 43.4983 43.0091 43.5236 43.4262 43.5363H43.5273L43.5399 43.4352C43.7547 41.6027 44.4624 39.8714 45.6125 38.4307L45.6756 38.3549L45.6125 38.2917C45.3092 37.9505 44.9932 37.6093 44.6773 37.2681C44.513 37.0911 44.3613 36.9268 44.1971 36.7499C44.6773 36.3202 45.1575 35.8779 45.6377 35.4356C45.8905 35.7136 46.1432 35.9917 46.396 36.2697L47.0405 36.99L47.1163 36.9268C48.102 36.1307 49.2394 35.562 50.4526 35.2081L50.5411 37.4829C47.6976 38.5571 45.663 41.2994 45.663 44.5093C45.663 47.9215 47.9504 50.7902 51.0719 51.7127L51.1603 53.9748C49.7196 53.6462 48.3422 53.0144 47.1542 52.0666ZM65.011 45.4824C64.3033 45.4824 63.6209 45.4698 62.9764 45.4572H62.8753L62.8626 45.5583C62.6478 47.4033 61.9275 49.122 60.7901 50.5627L60.7269 50.6385L61.2324 51.1567C61.561 51.4979 61.8895 51.8391 62.2308 52.1677L61.7 52.6858C61.4093 52.9638 61.1187 53.2545 60.828 53.5325L59.3494 52.016L59.2736 52.0792C58.0857 53.027 56.6955 53.6462 55.2422 53.9622L55.356 51.7001C58.4648 50.7649 60.7269 47.9088 60.7269 44.5093C60.7269 41.3626 58.7807 38.6835 56.0384 37.5587L56.1521 35.284C57.2769 35.6505 58.3384 36.1812 59.2736 36.9268L59.3494 36.99L60.8659 35.4735L62.2434 36.851L60.7269 38.3675L60.7901 38.4433C61.9401 39.8587 62.6478 41.5901 62.8626 43.4478L62.8753 43.5489H62.9764C63.6714 43.5489 64.3412 43.5489 65.0236 43.5615C65.011 44.1808 65.011 44.8253 65.011 45.4824Z" fill="#3155A6"/>
<path fill-rule="evenodd" clip-rule="evenodd" d="M53.5703 0C83.1547 0 107.128 23.9986 107.128 53.5703C107.128 83.142 83.1547 107.128 53.5703 107.128C23.986 107.128 0 83.1547 0 53.5703C0 23.9986 23.986 0 53.5703 0ZM53.5703 0.770887C82.725 0.770887 106.382 24.4156 106.382 53.583C106.382 82.7376 82.725 106.395 53.5703 106.395C24.403 106.395 0.75825 82.7376 0.75825 53.583C0.75825 24.4156 24.403 0.770887 53.5703 0.770887Z" fill="#3155A6"/>
<path fill-rule="evenodd" clip-rule="evenodd" d="M91.3197 19.272C99.4962 28.3331 104.501 40.3387 104.501 53.469C104.501 81.5748 81.6141 104.499 53.5589 104.499C25.5037 104.499 2.61719 81.5748 2.61719 53.469C2.61719 40.3387 7.62163 28.3331 15.8107 19.272H26.5779C16.4932 27.2715 10.0101 39.6436 10.0101 53.469C10.0101 77.5055 29.573 97.0936 53.5715 97.0936C77.5575 97.0936 97.1203 77.5055 97.1203 53.469C97.1203 39.6436 90.6373 27.2715 80.5526 19.272H91.3197Z" fill="#3155A6"/>
<path fill-rule="evenodd" clip-rule="evenodd" d="M13.5725 46.7335L24.2132 42.6137C25.0094 42.3104 25.8561 42.6137 26.1215 43.2961C26.3743 43.9659 25.9319 44.7873 25.1358 45.0906L14.495 49.1978C13.6989 49.5137 12.8521 49.1978 12.5868 48.528C12.334 47.8456 12.7763 47.0368 13.5725 46.7335ZM13.762 50.7775L25.9067 46.1648C26.8166 45.8236 27.8023 46.1774 28.093 46.9357C28.3836 47.7066 27.8908 48.6165 26.9682 48.9577L14.811 53.5704C13.9011 53.9116 12.928 53.5704 12.6247 52.7995V52.8121C12.3466 52.0286 12.8521 51.1187 13.762 50.7775ZM14.0274 55.1248L27.0693 50.1709C28.055 49.8044 29.104 50.1709 29.4199 50.9923C29.7358 51.8138 29.1924 52.7995 28.2067 53.166L15.1648 58.1199C14.1791 58.4863 13.1302 58.1199 12.8142 57.2984C12.5109 56.477 13.0543 55.4913 14.0274 55.1248ZM14.8236 59.4089L28.5479 54.2022C29.5715 53.8231 30.6836 54.2149 31.0122 55.0742C31.3408 55.9462 30.7721 56.9699 29.7611 57.3616L16.0242 62.5683C15.0005 62.96 13.8884 62.5683 13.5598 61.6963C13.2313 60.8369 13.8126 59.8006 14.8236 59.4089ZM15.645 63.7941L30.4941 58.1578C31.6062 57.7407 32.8067 58.1578 33.148 59.1056C33.5018 60.0534 32.8952 61.1529 31.7831 61.5825L22.3429 65.1589C25.2369 64.3501 28.371 63.4655 31.8337 62.3534C39.9848 64.2111 43.9151 66.5617 45.1409 69.0892C46.3668 71.6041 45.3558 80.3366 42.6387 94.895C37.3057 93.4037 32.137 90.6108 26.9682 87.0092C28.2699 75.5849 27.916 75.1426 29.7864 73.942C31.6567 72.7288 33.2238 73.7398 37.6216 74.7255C29.521 71.3892 24.3649 70.5425 16.4412 67.3579C15.4934 67.5222 14.5708 67.0925 14.2549 66.2837H14.2675C13.9263 65.3232 14.5456 64.2111 15.645 63.7941Z" fill="#ED1C24"/>
<path fill-rule="evenodd" clip-rule="evenodd" d="M93.7355 46.7335L83.0947 42.6137C82.2986 42.3104 81.4519 42.6137 81.1865 43.2961C80.9337 43.9659 81.376 44.7873 82.1722 45.0906L92.813 49.1978C93.6091 49.5137 94.4685 49.1978 94.7086 48.528C94.974 47.8456 94.5317 47.0368 93.7355 46.7335ZM93.5586 50.7775L81.4139 46.1648C80.504 45.8236 79.531 46.1774 79.2403 46.9357C78.9496 47.7066 79.4551 48.6165 80.365 48.9577L92.5097 53.5704C93.4196 53.9116 94.3926 53.5704 94.6833 52.7995V52.8121C94.9613 52.0286 94.4685 51.1187 93.5586 50.7775ZM93.2932 55.1248L80.2387 50.1709C79.2656 49.8044 78.204 50.1709 77.9007 50.9923C77.5848 51.8138 78.1282 52.7995 79.1013 53.166L92.1558 58.1199C93.1289 58.4863 94.1778 58.1199 94.4937 57.2984C94.797 56.477 94.2536 55.4913 93.2932 55.1248ZM92.4844 59.4089L78.7727 54.2022C77.7491 53.8231 76.6496 54.2149 76.3084 55.0742C75.9798 55.9462 76.5485 56.9699 77.5721 57.3616L91.2965 62.5683C92.3327 62.96 93.4322 62.5683 93.7608 61.6963C94.0893 60.8369 93.508 59.8006 92.4844 59.4089ZM91.6629 63.7941L76.8265 58.1578C75.7144 57.7407 74.5139 58.1578 74.16 59.1056C73.8062 60.0534 74.4254 61.1529 75.5375 61.5825L84.9651 65.1589C82.0711 64.3501 78.937 63.4655 75.487 62.3534C67.3231 64.2111 63.3929 66.5617 62.1797 69.0892C60.9538 71.6041 61.9648 80.3366 64.6693 94.895C70.3309 93.0752 75.0067 90.6614 80.1755 87.1861C78.8738 75.7618 79.3793 75.1552 77.509 73.942C75.6512 72.7288 74.0716 73.7398 69.6864 74.7255C77.787 71.3892 82.9431 70.5425 90.8668 67.3579C91.8272 67.5222 92.7498 67.0925 93.0531 66.2837C93.3816 65.3232 92.775 64.2111 91.6629 63.7941Z" fill="#ED1C24"/>
<path d="M165.798 7.42048V25.4959H163.809V7.42048H159.242V5.62158H170.33V7.42048H165.798Z" fill="#3155A6"/>
<path d="M184.508 16.242C183.401 17.349 181.999 17.9717 180.304 18.0755L185.909 25.4786H183.401L176.655 16.4841L178.799 16.4668C179.699 16.4322 180.408 16.3458 180.927 16.1728C183.106 15.5155 184.196 14.1144 184.196 11.9696C184.196 10.2226 183.47 8.94262 182.017 8.16425C181.446 7.8529 180.823 7.64534 180.149 7.54156C179.647 7.45507 178.972 7.42048 178.159 7.42048H174.7V25.4786H172.711V5.62158H177.762C178.211 5.62158 178.609 5.63888 178.972 5.63888C179.439 5.67347 179.855 5.70807 180.235 5.74266C181.221 5.86374 182.017 6.07131 182.657 6.36536C185.009 7.50696 186.203 9.39234 186.203 12.0215C186.203 13.7166 185.632 15.1177 184.508 16.242Z" fill="#3155A6"/>
<path d="M203.042 7.87008V18.0062C203.042 18.7499 202.99 19.4591 202.869 20.1164C202.748 20.8948 202.558 21.5693 202.281 22.1401C201.139 24.6136 199.133 25.8417 196.279 25.8417C193.425 25.8417 191.418 24.6136 190.259 22.1401C190 21.5693 189.792 20.8948 189.671 20.1164C189.568 19.4591 189.516 18.7499 189.516 18.0062V5.62146H191.487V18.0062C191.487 18.6461 191.539 19.2688 191.626 19.8396C191.747 20.5834 191.92 21.1542 192.162 21.6039C193.062 23.2299 194.445 24.0428 196.279 24.0428C198.13 24.0428 199.496 23.2299 200.378 21.6039C200.62 21.1715 200.811 20.5834 200.914 19.8396C201.001 19.2688 201.053 18.6461 201.053 18.0062V5.62146H203.042V6.08848C203.371 5.82902 203.561 5.53497 203.613 5.17174H202.765V2.81934H205.239V5.25822C205.169 5.69065 205.066 6.05388 204.91 6.33064C204.754 6.60739 204.564 6.84955 204.339 7.03982C204.114 7.23009 203.924 7.38576 203.751 7.48954C203.578 7.57603 203.353 7.7144 203.042 7.87008Z" fill="#3155A6"/>
<path d="M223.996 7.81827C224.169 7.95665 224.325 8.11232 224.481 8.26799C226.574 10.2745 227.611 12.7133 227.611 15.5501C227.611 18.4041 226.556 20.8257 224.463 22.8494C222.405 24.8386 219.949 25.8418 217.077 25.8418C214.258 25.8418 211.819 24.8559 209.743 22.884C207.633 20.8775 206.578 18.4733 206.578 15.6538C206.578 12.7652 207.599 10.309 209.657 8.28529C211.698 6.27883 214.172 5.2756 217.077 5.2756C219.136 5.2756 220.987 5.79451 222.63 6.81504C222.82 6.72855 222.976 6.65937 223.097 6.60748C223.27 6.52099 223.529 6.36532 223.875 6.10586C224.221 5.84641 224.411 5.53506 224.446 5.17182H223.598V2.81942H226.072V5.2583C226.003 5.69073 225.899 6.03667 225.743 6.33072C225.588 6.60747 225.397 6.84963 225.172 7.0399C224.948 7.23017 224.757 7.38584 224.584 7.48962C224.446 7.57611 224.238 7.67989 223.996 7.81827ZM223.097 9.56527C221.419 7.90475 219.413 7.0572 217.077 7.0572C214.725 7.0572 212.701 7.90475 211.041 9.58257C209.398 11.2777 208.567 13.2841 208.567 15.6365C208.567 17.937 209.415 19.8916 211.11 21.5521C212.788 23.1953 214.777 24.0256 217.077 24.0256C219.395 24.0256 221.402 23.1953 223.08 21.5521C224.757 19.9089 225.605 17.9025 225.605 15.5673C225.622 13.2495 224.775 11.2431 223.097 9.56527ZM219.205 4.47994L213.877 1.60863L214.742 0L220.087 2.9405L219.205 4.47994Z" fill="#3155A6"/>
<path d="M244.947 25.4959L233.15 8.00858H233.099V25.4959H231.109V5.62158H233.79L244.878 22.1057H244.947V5.62158H246.919V25.4959H244.947Z" fill="#3155A6"/>
<path d="M271.529 16.3626C271.304 19.0609 270.18 21.3268 268.139 23.143C266.115 24.9419 263.746 25.8413 261.03 25.8413C258.176 25.8413 255.685 24.8554 253.592 22.849C251.447 20.8252 250.375 18.3863 250.375 15.5496C250.375 12.6783 251.43 10.2394 253.558 8.23294C255.633 6.26108 258.124 5.27515 260.995 5.27515C264.282 5.27515 266.98 6.48594 269.108 8.92482C269.679 9.58211 270.111 10.2394 270.388 10.914H268.087C267.413 9.73779 266.392 8.78645 265.06 8.07727C263.78 7.40268 262.431 7.07404 261.013 7.07404C258.643 7.07404 256.619 7.9043 254.924 9.54752C253.212 11.208 252.364 13.2145 252.364 15.5842C252.364 17.9712 253.229 19.9776 254.959 21.6209C256.671 23.2295 258.712 24.0425 261.099 24.0425C262.881 24.0425 264.559 23.4889 266.098 22.3992C267.689 21.2749 268.693 19.8566 269.142 18.1615H258.055V16.3626H271.529Z" fill="#3155A6"/>
<path d="M282.824 14.3739V5.62158H288.619C289.76 5.62158 290.884 5.75996 291.974 6.01942C293.202 6.31347 294.24 6.72859 295.088 7.2648C298.097 9.18477 299.602 11.9696 299.602 15.6193C299.602 19.1652 298.097 21.9154 295.088 23.87C294.24 24.4062 293.202 24.8386 291.974 25.1327C290.884 25.3921 289.76 25.5132 288.636 25.5132H282.841V16.1901H281.25V14.3912H282.824V14.3739ZM284.796 16.1728V23.697H288.1C288.757 23.697 289.328 23.6797 289.812 23.6451C290.4 23.6105 290.954 23.524 291.438 23.4203C292.58 23.1781 293.6 22.7284 294.5 22.0884C295.503 21.3792 296.281 20.3933 296.835 19.1825C297.354 18.0236 297.63 16.8128 297.63 15.5328C297.63 12.6961 296.506 10.5166 294.24 8.94262C293.341 8.31992 292.303 7.90479 291.109 7.67993C290.608 7.59345 290.037 7.50696 289.414 7.47237C288.93 7.43777 288.359 7.43777 287.685 7.43777H284.813V14.3912H290.85V16.1901H284.796V16.1728Z" fill="#3155A6"/>
<path d="M318.547 25.4959L315.676 18.8019H306.456L303.568 25.4786H301.492L309.968 5.60425H312.199L320.727 25.4786H318.547V25.4959ZM311.075 7.88746L307.183 17.0203H314.897L311.075 7.88746ZM310.106 27.1391H312.095V30.5293H310.106V27.1391Z" fill="#3155A6"/>
<path d="M325.395 5.62158H323.406V25.4959H325.395V5.62158Z" fill="#3155A6"/>
<path d="M349.857 25.4959V16.1728H339.583V25.4959H337.594V5.62158H339.583V14.3739H349.857V5.62158H351.847V25.4959H349.857Z" fill="#3155A6"/>
<path d="M373.26 22.849C371.202 24.8381 368.728 25.8413 365.874 25.8413C363.055 25.8413 360.616 24.8554 358.54 22.8835C356.43 20.8771 355.375 18.4728 355.375 15.6534C355.375 12.7648 356.396 10.3086 358.454 8.28483C360.495 6.27838 362.968 5.27515 365.874 5.27515C368.746 5.27515 371.202 6.27838 373.26 8.26754C375.353 10.274 376.391 12.7129 376.391 15.5496C376.408 18.4036 375.37 20.8425 373.26 22.849ZM371.911 9.56482C370.233 7.9043 368.227 7.05674 365.892 7.05674C363.539 7.05674 361.515 7.9043 359.855 9.58211C358.212 11.2772 357.381 13.2837 357.381 15.6361C357.381 17.9193 358.229 19.8912 359.924 21.5517C361.602 23.1949 363.591 24.0079 365.892 24.0079C368.209 24.0079 370.216 23.1776 371.894 21.5344C373.572 19.8912 374.419 17.8847 374.419 15.5496C374.419 13.2491 373.589 11.2426 371.911 9.56482ZM364.906 27.1386H366.895V30.5288H364.906V27.1386Z" fill="#3155A6"/>
<path d="M398.593 20.2893C396.569 23.9909 393.524 25.8417 389.442 25.8417C386.571 25.8417 384.132 24.8557 382.108 22.8666C380.067 20.8601 379.047 18.4385 379.047 15.5845C379.047 12.6959 380.05 10.257 382.057 8.26785C384.063 6.29599 386.502 5.31006 389.408 5.31006C392.539 5.31006 395.15 6.48626 397.243 8.85595C397.814 9.49594 398.247 10.1359 398.506 10.7413H396.275C394.649 8.31974 392.348 7.10895 389.373 7.10895C387.107 7.10895 385.153 7.95651 383.492 9.68621C381.866 11.3813 381.036 13.3532 381.036 15.6191C381.036 17.8677 381.866 19.8223 383.544 21.5001C385.222 23.1952 387.177 24.0428 389.425 24.0428C390.809 24.0428 392.123 23.6968 393.352 23.0222C394.493 22.3822 395.496 21.4655 396.379 20.2893H398.593Z" fill="#3155A6"/>
<path d="M178.231 72.3191C176.397 73.8067 173.924 74.5677 170.845 74.5677C167.679 74.5677 165.137 73.7721 163.217 72.2153C161.141 70.5375 160.086 68.1678 160.086 65.0889V64.1203H167.662C167.662 65.2273 167.904 66.1441 168.389 66.8878C168.942 67.7527 169.738 68.1851 170.758 68.1851C172.678 68.1851 173.647 67.2338 173.647 65.3311C173.647 64.4662 173.318 63.7744 172.644 63.2209C172.384 63.0133 172.038 62.8057 171.623 62.5982L171.052 62.3214L167.8 60.9203C166.728 60.4706 165.794 60.0209 165.033 59.5712C164.116 59.035 163.338 58.4469 162.715 57.8242C161.262 56.3366 160.536 54.5377 160.536 52.3929C160.536 49.7637 161.643 47.6016 163.839 45.9238C165.863 44.3844 168.233 43.6233 170.948 43.6233C172.488 43.6233 173.958 43.9 175.359 44.4535C176.881 45.0589 178.092 45.9065 179.009 47.0135C180.237 48.5357 180.894 50.4902 180.981 52.8945H173.457C173.163 50.9572 172.263 49.9886 170.724 49.9886C168.977 49.9886 168.112 50.767 168.112 52.3237C168.112 52.8772 168.198 53.2923 168.389 53.5864C168.683 54.1053 169.599 54.728 171.121 55.4718L174.27 56.8901C175.377 57.3917 176.293 57.8761 177.02 58.3258C177.919 58.8793 178.646 59.4674 179.216 60.0728C180.548 61.4911 181.223 63.2727 181.223 65.4176C181.223 68.41 180.22 70.7105 178.231 72.3191Z" fill="#3155A6"/>
<path d="M207.638 62.2002C207.638 64.224 207.465 65.8845 207.137 67.1472C206.67 68.7558 205.857 70.1569 204.681 71.3504C202.57 73.4952 199.786 74.5849 196.343 74.5849C194.666 74.5849 193.126 74.3428 191.708 73.8584C190.099 73.3049 188.802 72.492 187.781 71.4023C186.519 70.0704 185.689 68.6693 185.273 67.1645C185.083 66.4726 184.962 65.7115 184.876 64.864C184.824 64.1894 184.789 63.3072 184.789 62.2348V44.1767H192.4V62.1829C192.4 62.9613 192.434 63.6532 192.521 64.2067C192.625 64.9332 192.798 65.5386 193.057 66.0402C193.662 67.251 194.735 67.8737 196.274 67.8737C197.866 67.8737 198.955 67.2683 199.492 66.0748C199.716 65.5904 199.872 64.9851 199.959 64.2586C200.01 63.7397 200.028 63.0478 200.028 62.1829V44.1767H207.638V62.2002ZM206.86 39.2297H211.357V43.8481C211.167 45.7507 210.544 47.1691 209.472 48.1031C208.4 49.0372 207.189 49.5734 205.84 49.729L203.885 49.8847L204.023 47.048L204.784 47.0653C205.096 47.048 205.615 46.9096 206.358 46.6329C207.725 45.9583 208.4 44.9897 208.4 43.6924H206.826V39.2297H206.86Z" fill="#3155A6"/>
<path d="M247.021 58.4987C246.451 60.0036 245.655 61.1798 244.669 62.0792C243.476 63.117 242.126 63.8262 240.604 64.2067C239.445 64.5008 237.906 64.6565 235.986 64.6565H232.682V73.9969H225.383V44.1768H235.138C236.09 44.1768 236.868 44.1941 237.525 44.2459C238.425 44.2978 239.22 44.3843 239.964 44.5227C241.763 44.834 243.233 45.4567 244.323 46.3735C246.658 48.3453 247.817 50.9745 247.817 54.2609C247.8 55.7139 247.54 57.115 247.021 58.4987ZM238.926 51.4588C238.165 51.061 237.006 50.8707 235.467 50.8707H232.665V57.9625H235.744C237.214 57.9625 238.321 57.7376 239.065 57.2879C240.016 56.7171 240.5 55.7485 240.5 54.382C240.5 52.981 239.982 52.0123 238.926 51.4588Z" fill="#3155A6"/>
<path d="M268.327 73.9969V62.0792H258.572V73.9969H250.961V44.1768H258.572V55.3852H268.327V44.1768H275.938V73.9969H268.327Z" fill="#3155A6"/>
<path d="M300.544 73.9969L299.091 69.6899H288.748L287.174 73.9969H278.992L290.944 44.1941H296.947L308.812 73.9969H300.544ZM290.702 77.5774H297.102V83.6487H290.702V77.5774ZM294.023 53.4653H293.902L290.841 63.6533H297.085L294.023 53.4653Z" fill="#3155A6"/>
<path d="M336.3 73.9969L336.525 51.6837L336.456 51.5972L330.108 73.9969H325.074L318.692 51.5972L318.623 51.6837L318.865 73.9969H311.859V44.1768H321.65L327.565 63.8089H327.652L333.481 44.1768H343.305V73.9969H336.3Z" fill="#3155A6"/>
<path d="M377.733 73.9969L369.603 61.1106H369.517V73.9969H361.906V44.1768H369.517V57.5993H369.603L378.01 44.1768H386.001L376.124 59.0522L386.624 73.9969H377.733Z" fill="#3155A6"/>
<path d="M403.73 63.1689V73.9969H396.119V63.1689L387.211 44.1941H395.462L399.89 56.1636L404.352 44.1941H412.534L403.73 63.1689ZM408.677 39.8006C407.085 40.8038 405.563 41.2882 404.11 41.2882C403.66 41.2882 403.142 41.2363 402.536 41.1325L399.215 40.406C398.61 40.3022 398.091 40.2503 397.676 40.2503C397.191 40.2503 396.69 40.3368 396.188 40.4925L394.77 41.0287L392.348 37.4655C393.092 37.0504 393.801 36.7217 394.476 36.4796C395.289 36.2028 396.067 36.0645 396.794 36.0645C397.278 36.0645 397.814 36.1163 398.419 36.2201C398.662 36.2547 398.921 36.3066 399.232 36.3758L400.876 36.7563C401.152 36.8255 401.429 36.8774 401.671 36.912C402.277 37.0158 402.813 37.0677 403.297 37.0677C404.179 37.0677 405.165 36.8428 406.238 36.3758L408.677 39.8006Z" fill="#3155A6"/>
<path d="M439.226 50.8707V73.9969H431.615V50.8707H425.734V44.1768H445.072V50.8707H439.226Z" fill="#3155A6"/>
<path d="M465.483 73.9969V62.0792H455.728V73.9969H448.117V44.1768H455.728V55.3852H465.483V44.1768H473.094V73.9969H465.483Z" fill="#3155A6"/>
<path d="M501.267 62.2003C501.267 64.2413 501.094 65.8846 500.748 67.1299C500.281 68.7386 499.468 70.1396 498.292 71.3331C496.181 73.478 493.397 74.5504 489.955 74.5504C488.277 74.5504 486.737 74.3082 485.319 73.8239C483.71 73.2704 482.413 72.4574 481.392 71.3677C480.13 70.0359 479.3 68.6348 478.867 67.1127C478.677 66.4381 478.556 65.6597 478.469 64.8121C478.417 64.1376 478.383 63.2554 478.383 62.183V44.1768H485.994V62.183C485.994 62.9787 486.028 63.6532 486.115 64.2067C486.218 64.9332 486.391 65.5386 486.651 66.0402C487.256 67.251 488.329 67.8737 489.868 67.8737C491.459 67.8737 492.549 67.2683 493.085 66.0748C493.31 65.5905 493.466 64.9851 493.552 64.2586C493.604 63.7397 493.622 63.0305 493.622 62.1657V44.1768H501.232V62.2003H501.267Z" fill="#3155A6"/>
<path d="M525.779 73.9966L524.326 69.6896H513.982L512.408 73.9966H504.227L516.179 44.1938H522.181L534.047 73.9966H525.779ZM521.022 41.5646L519.171 39.2468L517.32 41.5646H510.799L517.061 34.8879H521.403L527.456 41.5646H521.022ZM515.937 77.5771H522.354V83.6483H515.937V77.5771ZM519.258 53.465H519.137L516.075 63.6529H522.319L519.258 53.465Z" fill="#3155A6"/>
<path d="M548.281 50.8707V73.9969H540.67V50.8707H534.789V44.1768H554.11V50.8707H548.281Z" fill="#3155A6"/>
<path d="M580.789 50.8707V73.9969H573.178V50.8707H567.297V44.1768H586.635V50.8707H580.789Z" fill="#3155A6"/>
<path d="M611.334 58.4987C610.763 60.0036 609.967 61.1798 608.982 62.0792C607.788 63.117 606.439 63.8262 604.917 64.2067C603.758 64.5008 602.218 64.6565 600.298 64.6565H596.995V73.9969H589.695V44.1768H599.451C600.402 44.1768 601.181 44.1941 601.838 44.2459C602.737 44.2978 603.533 44.3843 604.277 44.5227C606.093 44.834 607.546 45.4567 608.636 46.3735C610.971 48.3453 612.13 50.9745 612.13 54.2609C612.112 55.7139 611.853 57.115 611.334 58.4987ZM603.239 51.4588C602.478 51.061 601.319 50.8707 599.779 50.8707H596.977V57.9625H600.074C601.544 57.9625 602.651 57.7376 603.395 57.2879C604.346 56.7171 604.83 55.7485 604.83 54.382C604.813 52.981 604.294 52.0123 603.239 51.4588Z" fill="#3155A6"/>
<path d="M616.469 67.147H609.516V73.9966H616.469V67.147Z" fill="#3155A6"/>
<path d="M639.374 73.9969V62.0792H629.619V73.9969H622.008V44.1768H629.619V55.3852H639.374V44.1768H646.985V73.9969H639.374Z" fill="#3155A6"/>
<path d="M677.908 70.1395C674.846 73.08 671.127 74.5676 666.734 74.5676C662.461 74.5676 658.794 73.1146 655.75 70.226C652.619 67.2855 651.062 63.705 651.062 59.4672C651.062 57.2186 651.443 55.0911 652.221 53.1019C652.619 52.0468 653.277 50.9225 654.176 49.7636C657.272 45.6815 661.475 43.6404 666.786 43.6404C671.162 43.6404 674.881 45.128 677.908 48.0858C680.969 51.0609 682.509 54.7278 682.509 59.104C682.509 63.4628 680.969 67.1471 677.908 70.1395ZM668.671 41.5648L666.82 39.247L664.969 41.5648H658.448L664.727 34.8881H669.069L675.123 41.5648H668.671ZM672.701 52.9981C671.144 51.2165 669.19 50.3171 666.82 50.3171C664.433 50.3171 662.461 51.1819 660.922 52.9116C659.434 54.5722 658.673 56.6132 658.673 59.0002C658.673 61.4564 659.434 63.5147 660.939 65.2099C662.496 66.9741 664.485 67.8736 666.889 67.8736C669.207 67.8736 671.144 66.9742 672.684 65.1926C674.154 63.4974 674.881 61.4737 674.881 59.1213C674.898 56.7343 674.171 54.6759 672.701 52.9981ZM673.704 35.4589L663.759 31.1174L665.8 26.3953L675.555 31.5498L673.704 35.4589Z" fill="#3155A6"/>
<path d="M728.607 62.8403C727.743 66.3343 725.909 69.171 723.124 71.3332C720.357 73.478 717.174 74.5504 713.542 74.5504C709.183 74.5504 705.481 73.0629 702.437 70.0705C699.375 67.0608 697.836 63.3938 697.836 59.035C697.836 54.6934 699.358 51.0264 702.402 48.0513C705.429 45.0935 709.114 43.6233 713.472 43.6233C719.146 43.6233 723.505 45.9584 726.584 50.6286C727.656 52.2372 728.331 53.8631 728.607 55.5064H720.616C719.284 52.047 716.897 50.3172 713.421 50.3172C711.068 50.3172 709.131 51.1821 707.626 52.9291C706.173 54.6069 705.447 56.6307 705.447 59.0004C705.447 61.4047 706.173 63.4457 707.626 65.1581C709.166 66.9743 711.103 67.8738 713.472 67.8738C716.724 67.8738 719.111 66.1959 720.633 62.8403H728.607Z" fill="#3155A6"/>
<path d="M749.898 73.9969V62.0792H740.142V73.9969H732.531V44.1768H740.142V55.3852H749.898V44.1768H757.508V73.9969H749.898Z" fill="#3155A6"/>
<path d="M764.487 42.7583L762.602 38.7973L772.271 33.6082L774.398 38.3648L764.487 42.7583ZM762.878 44.1767H770.489V73.9795H762.878V44.1767Z" fill="#3155A6"/>
<path d="M812.753 73.9969L812.995 51.6837L812.909 51.5972L806.561 73.9969H801.527L795.162 51.5972L795.076 51.6837L795.318 73.9969H788.312V44.1768H798.103L804.036 63.8089H804.105L809.951 44.1768H819.759V73.9969H812.753Z" fill="#3155A6"/>
<path d="M832.767 44.1768H825.156V73.9796H832.767V44.1768Z" fill="#3155A6"/>
<path d="M856.674 73.9969L845.327 55.8696L845.24 55.9042L845.448 73.9969H838.148V44.1768H844.721L856.241 62.9268L856.328 62.8403L855.982 44.1768H863.281V73.9969H856.674Z" fill="#3155A6"/>
<path d="M886.077 73.9969V62.0792H876.322V73.9969H868.711V44.1768H876.322V55.3852H886.077V44.1768H893.688V73.9969H886.077Z" fill="#3155A6"/>
<path d="M173.91 131.561V120.404H161.629V131.561H159.242V107.795H161.629V118.26H173.91V107.795H176.28V131.561H173.91Z" fill="#3155A6"/>
<path d="M203.829 125.334C201.408 129.762 197.775 131.976 192.88 131.976C189.455 131.976 186.532 130.783 184.111 128.413C181.672 126.026 180.461 123.12 180.461 119.695C180.461 116.236 181.654 113.33 184.059 110.943C186.446 108.59 189.386 107.397 192.846 107.397C196.599 107.397 199.73 108.815 202.221 111.635C202.913 112.413 203.414 113.157 203.725 113.883H201.062C199.124 110.995 196.357 109.542 192.794 109.542C190.078 109.542 187.743 110.562 185.754 112.621C183.799 114.644 182.813 117.014 182.813 119.73C182.813 122.411 183.817 124.746 185.806 126.77C187.812 128.793 190.147 129.814 192.828 129.814C194.489 129.814 196.046 129.399 197.516 128.586C198.865 127.807 200.076 126.735 201.131 125.317H203.829V125.334Z" fill="#3155A6"/>
<path d="M230.205 131.561V110.389H230.136L221.245 131.561H219.221L210.4 110.389H210.348V131.561H207.961V107.795H211.611L220.242 128.032L228.925 107.795H232.592V131.561H230.205Z" fill="#3155A6"/>
<path d="M260.15 125.334C257.728 129.762 254.096 131.976 249.201 131.976C245.776 131.976 242.853 130.783 240.431 128.413C237.992 126.026 236.781 123.12 236.781 119.695C236.781 116.236 237.975 113.33 240.379 110.943C242.766 108.59 245.707 107.397 249.166 107.397C252.919 107.397 256.05 108.815 258.541 111.635C259.233 112.413 259.734 113.157 260.046 113.883H257.382C255.445 110.995 252.677 109.542 249.114 109.542C246.398 109.542 244.063 110.562 242.074 112.621C240.12 114.644 239.134 117.014 239.134 119.73C239.134 122.411 240.137 124.746 242.126 126.77C244.132 128.793 246.468 129.814 249.149 129.814C250.809 129.814 252.366 129.399 253.836 128.586C255.185 127.807 256.396 126.735 257.451 125.317H260.15V125.334Z" fill="#3155A6"/>
<path d="M289.659 122.601C289.659 123.483 289.59 124.331 289.469 125.127C289.313 126.061 289.071 126.856 288.759 127.531C287.376 130.489 284.989 131.976 281.564 131.976C278.139 131.976 275.752 130.489 274.368 127.531C274.057 126.856 273.832 126.043 273.676 125.127C273.538 124.331 273.469 123.483 273.469 122.601V107.795H275.856V122.601C275.856 123.38 275.908 124.106 276.011 124.798C276.15 125.68 276.357 126.372 276.651 126.891C277.724 128.828 279.35 129.814 281.564 129.814C283.76 129.814 285.404 128.845 286.476 126.891C286.77 126.372 286.978 125.663 287.116 124.798C287.237 124.106 287.289 123.38 287.289 122.601V107.795H289.659V122.601Z" fill="#3155A6"/>
<path d="M307.76 131.561V121.892C307.76 120.958 307.639 120.093 307.38 119.298C307.103 118.364 306.67 117.62 306.082 117.066C305.01 116.063 303.747 115.561 302.277 115.561C300.789 115.561 299.527 116.063 298.454 117.066C297.884 117.602 297.451 118.329 297.174 119.228C296.932 120.007 296.811 120.837 296.811 121.719V131.544H294.562V114.005H296.811V116.253H296.88C298.039 114.454 299.838 113.555 302.294 113.555C304.75 113.555 306.67 114.333 308.054 115.907C309.369 117.412 310.026 119.419 310.026 121.909V131.561H307.76Z" fill="#3155A6"/>
<path d="M314.484 107.795H316.733V111.86H314.484V107.795ZM314.484 114.005H316.733V131.561H314.484V114.005Z" fill="#3155A6"/>
<path d="M329.269 131.561H326.795L319.375 114.005H321.797L327.989 128.759L334.268 114.005H336.689L329.269 131.561Z" fill="#3155A6"/>
<path d="M356.791 123.587H340.808C340.895 125.317 341.621 126.804 342.988 128.067C344.354 129.313 345.894 129.953 347.623 129.953C349.007 129.953 350.27 129.589 351.411 128.863C352.605 128.102 353.435 127.081 353.902 125.801H356.289C355.632 127.635 354.525 129.14 352.934 130.264C351.342 131.405 349.578 131.976 347.658 131.976C345.133 131.976 342.97 131.077 341.172 129.261C339.39 127.479 338.508 125.317 338.508 122.792C338.508 120.266 339.39 118.104 341.172 116.288C342.97 114.454 345.115 113.538 347.623 113.538C350.166 113.538 352.345 114.472 354.144 116.34C355.926 118.191 356.825 120.387 356.825 122.947L356.791 123.587ZM354.525 121.563C354.231 119.834 353.452 118.398 352.19 117.274C350.91 116.132 349.405 115.561 347.658 115.561C345.928 115.561 344.406 116.132 343.126 117.274C341.863 118.398 341.085 119.834 340.808 121.563H354.525Z" fill="#3155A6"/>
<path d="M367.859 115.925C364.52 116.201 362.842 117.983 362.842 121.287V131.561H360.594V114.005H362.842V116.547H362.912C363.379 115.492 364.036 114.731 364.901 114.264C365.61 113.884 366.596 113.659 367.859 113.555V115.925Z" fill="#3155A6"/>
<path d="M374.678 131.976C373.104 131.976 371.824 131.458 370.803 130.437C369.783 129.416 369.281 128.119 369.281 126.545V126.338H371.53C371.564 128.742 372.62 129.935 374.678 129.935C376.857 129.935 377.947 128.88 377.947 126.787C377.947 125.767 377.532 124.954 376.684 124.348C376.356 124.106 375.906 123.881 375.37 123.639L373.882 123.051C373.26 122.809 372.758 122.601 372.377 122.411C371.858 122.134 371.426 121.84 371.08 121.529C370.233 120.751 369.817 119.713 369.817 118.398C369.817 116.963 370.302 115.804 371.253 114.887C372.187 113.97 373.381 113.521 374.834 113.521C376.183 113.521 377.307 113.97 378.241 114.904C379.158 115.821 379.625 116.963 379.625 118.312H377.376C377.255 116.478 376.39 115.562 374.747 115.562C372.966 115.562 372.083 116.444 372.083 118.191C372.083 119.073 372.498 119.765 373.346 120.284C373.675 120.474 374.107 120.681 374.661 120.889L375.024 121.027C375.11 121.062 375.231 121.097 375.404 121.166L376.148 121.443C376.754 121.685 377.255 121.91 377.653 122.134C378.172 122.411 378.604 122.74 378.95 123.086C379.798 123.951 380.213 125.11 380.213 126.58C380.196 130.195 378.362 131.976 374.678 131.976Z" fill="#3155A6"/>
<path d="M383.406 107.795H385.655V111.86H383.406V107.795ZM383.406 114.005H385.655V131.561H383.406V114.005Z" fill="#3155A6"/>
<path d="M394.464 116.028V131.561H392.233V116.028H388.531V114.005H392.233V107.795H394.464V114.005H398.667V116.028H394.464Z" fill="#3155A6"/>
<path d="M405.912 137.719H403.577L406.621 130.973L399.789 114.005H402.176L407.746 127.998L413.73 114.005H416.083L405.912 137.719Z" fill="#3155A6"/>
<path d="M443.099 129.243C441.3 131.06 439.121 131.976 436.613 131.976C434.139 131.976 431.994 131.077 430.178 129.278C428.362 127.479 427.445 125.351 427.445 122.878C427.445 120.335 428.327 118.139 430.109 116.305C431.891 114.454 434.053 113.538 436.595 113.538C439.086 113.538 441.248 114.454 443.065 116.271C444.881 118.087 445.798 120.249 445.798 122.757C445.815 125.282 444.915 127.444 443.099 129.243ZM441.542 117.689C440.176 116.271 438.55 115.579 436.63 115.579C434.658 115.579 433.015 116.305 431.666 117.775C430.351 119.194 429.694 120.889 429.694 122.861C429.694 124.781 430.369 126.441 431.718 127.842C433.084 129.261 434.71 129.953 436.647 129.953C438.637 129.953 440.297 129.226 441.629 127.79C442.926 126.372 443.566 124.677 443.566 122.67C443.566 120.75 442.892 119.09 441.542 117.689Z" fill="#3155A6"/>
<path d="M453.052 116.028V131.561H450.803V116.028H448.07V114.004H450.803L450.838 113.347C450.855 113.088 450.872 112.88 450.89 112.69C450.924 112.206 451.011 111.756 451.115 111.375C451.495 109.922 452.308 108.867 453.536 108.227C454.557 107.691 455.889 107.414 457.549 107.397V109.49C454.557 109.49 453.052 110.96 453.052 113.901V114.022H457.549V116.045H453.052V116.028Z" fill="#3155A6"/>
<path d="M475.187 109.957V131.561H472.8V109.957H467.352V107.795H480.618V109.957H475.187Z" fill="#3155A6"/>
<path d="M497.744 123.587H481.761C481.848 125.317 482.574 126.804 483.941 128.067C485.307 129.313 486.847 129.953 488.576 129.953C489.96 129.953 491.223 129.589 492.365 128.863C493.558 128.102 494.388 127.081 494.855 125.801H497.242C496.585 127.635 495.478 129.14 493.887 130.264C492.295 131.405 490.531 131.976 488.611 131.976C486.086 131.976 483.924 131.077 482.125 129.261C480.343 127.479 479.461 125.317 479.461 122.792C479.461 120.266 480.343 118.104 482.125 116.288C483.924 114.454 486.068 113.538 488.576 113.538C491.119 113.538 493.299 114.472 495.097 116.34C496.879 118.191 497.779 120.387 497.779 122.947L497.744 123.587ZM495.461 121.563C495.167 119.834 494.388 118.398 493.126 117.274C491.846 116.132 490.341 115.561 488.594 115.561C486.864 115.561 485.342 116.132 484.062 117.274C482.799 118.398 482.021 119.834 481.744 121.563H495.461Z" fill="#3155A6"/>
<path d="M518.935 126.389C517.05 130.126 514.127 131.994 510.2 131.994C507.588 131.994 505.374 131.111 503.541 129.364C501.69 127.583 500.773 125.403 500.773 122.809C500.773 120.232 501.707 118.052 503.558 116.236C505.409 114.454 507.623 113.555 510.2 113.555C512.138 113.555 513.885 114.057 515.459 115.077C517.067 116.115 518.226 117.533 518.935 119.315H516.462C515.147 116.824 513.089 115.579 510.27 115.579C508.246 115.579 506.551 116.271 505.15 117.654C503.731 119.038 503.022 120.733 503.022 122.757C503.022 124.798 503.714 126.51 505.115 127.894C506.516 129.278 508.228 129.987 510.27 129.987C513.158 129.987 515.234 128.794 516.462 126.407H518.935V126.389Z" fill="#3155A6"/>
<path d="M535.76 131.561V121.892C535.76 120.958 535.639 120.093 535.38 119.297C535.103 118.363 534.67 117.62 534.082 117.066C533.01 116.063 531.747 115.561 530.277 115.561C528.789 115.561 527.527 116.063 526.454 117.066C525.884 117.602 525.451 118.329 525.174 119.228C524.932 120.007 524.811 120.837 524.811 121.719V131.544H522.562V107.795H524.811V116.253H524.88C526.039 114.454 527.838 113.555 530.294 113.555C532.75 113.555 534.67 114.333 536.054 115.907C537.369 117.412 538.026 119.419 538.026 121.909V131.561H535.76Z" fill="#3155A6"/>
<path d="M555.791 131.561V121.892C555.791 120.958 555.67 120.093 555.411 119.298C555.134 118.364 554.702 117.62 554.114 117.066C553.041 116.063 551.778 115.561 550.308 115.561C548.821 115.561 547.541 116.063 546.486 117.066C545.915 117.602 545.482 118.329 545.206 119.228C544.963 120.007 544.842 120.837 544.842 121.719V131.544H542.594V114.005H544.842V116.253H544.912C546.07 114.454 547.869 113.555 550.326 113.555C552.782 113.555 554.702 114.333 556.085 115.907C557.4 117.412 558.057 119.419 558.057 121.909V131.561H555.791Z" fill="#3155A6"/>
<path d="M577.451 129.243C575.652 131.06 573.49 131.976 570.964 131.976C568.491 131.976 566.346 131.077 564.53 129.278C562.714 127.479 561.797 125.351 561.797 122.878C561.797 120.335 562.679 118.139 564.461 116.305C566.242 114.454 568.404 113.538 570.947 113.538C573.438 113.538 575.6 114.454 577.416 116.271C579.232 118.087 580.149 120.249 580.149 122.757C580.149 125.282 579.25 127.444 577.451 129.243ZM575.894 117.689C574.527 116.271 572.902 115.579 570.982 115.579C569.01 115.579 567.367 116.305 566.017 117.775C564.703 119.194 564.045 120.889 564.045 122.861C564.045 124.781 564.72 126.441 566.069 127.842C567.436 129.261 569.062 129.953 570.999 129.953C572.988 129.953 574.649 129.226 575.98 127.79C577.278 126.372 577.918 124.677 577.918 122.67C577.918 120.75 577.243 119.09 575.894 117.689Z" fill="#3155A6"/>
<path d="M586.147 107.795H583.898V131.561H586.147V107.795Z" fill="#3155A6"/>
<path d="M605.576 129.243C603.777 131.06 601.597 131.976 599.089 131.976C596.616 131.976 594.471 131.077 592.655 129.278C590.839 127.479 589.922 125.351 589.922 122.878C589.922 120.335 590.804 118.139 592.586 116.305C594.367 114.454 596.529 113.538 599.072 113.538C601.563 113.538 603.725 114.454 605.541 116.271C607.357 118.087 608.274 120.249 608.274 122.757C608.291 125.282 607.392 127.444 605.576 129.243ZM604.036 117.689C602.67 116.271 601.044 115.579 599.124 115.579C597.152 115.579 595.509 116.305 594.16 117.775C592.845 119.194 592.188 120.889 592.188 122.861C592.188 124.781 592.862 126.441 594.212 127.842C595.578 129.261 597.204 129.953 599.141 129.953C601.13 129.953 602.791 129.226 604.123 127.79C605.42 126.372 606.06 124.677 606.06 122.67C606.06 120.75 605.385 119.09 604.036 117.689Z" fill="#3155A6"/>
<path d="M629.406 128.794C629.406 129.468 629.389 130.039 629.354 130.506C629.32 131.111 629.251 131.665 629.147 132.149C628.905 133.325 628.455 134.329 627.798 135.211C626.154 137.373 623.837 138.463 620.827 138.463C618.682 138.463 616.797 137.909 615.223 136.802C613.579 135.661 612.455 134.069 611.85 132.028H614.237C615.413 134.969 617.592 136.456 620.81 136.456C622.782 136.456 624.338 135.851 625.48 134.657C626.604 133.481 627.175 131.89 627.175 129.918V128.361H627.106C626.483 129.537 625.532 130.437 624.235 131.094C623.041 131.7 621.744 132.011 620.325 132.011C617.783 132.011 615.603 131.129 613.839 129.364C612.04 127.583 611.141 125.438 611.141 122.895C611.141 120.335 612.023 118.139 613.804 116.322C615.586 114.489 617.765 113.572 620.325 113.572C623.3 113.572 625.549 114.766 627.089 117.153H627.158V114.022H629.406V128.794ZM625.272 117.724C623.906 116.288 622.263 115.561 620.325 115.561C618.371 115.561 616.71 116.288 615.378 117.724C614.046 119.125 613.389 120.82 613.389 122.792C613.389 124.746 614.046 126.424 615.378 127.808C616.728 129.243 618.371 129.953 620.325 129.953C622.245 129.953 623.889 129.243 625.255 127.808C626.604 126.407 627.279 124.729 627.279 122.792C627.279 120.837 626.621 119.142 625.272 117.724Z" fill="#3155A6"/>
<path d="M638.523 137.719H636.188L639.232 130.973L632.383 114.005H634.77L640.357 127.998L646.324 114.005H648.694L638.523 137.719Z" fill="#3155A6"/>
<path d="M676.385 131.561V128.465H676.316C674.776 130.8 672.493 131.976 669.483 131.976C666.837 131.976 664.605 131.094 662.789 129.33C660.956 127.566 660.039 125.369 660.039 122.722C660.039 120.11 660.956 117.914 662.807 116.149C664.64 114.402 666.854 113.538 669.466 113.538C672.528 113.538 674.811 114.714 676.298 117.066H676.367V113.987H678.633V131.544H676.385V131.561ZM674.517 117.706C673.15 116.271 671.472 115.561 669.501 115.561C667.425 115.561 665.695 116.253 664.346 117.637C662.98 119.021 662.305 120.75 662.305 122.826C662.305 124.867 662.997 126.58 664.363 127.929C665.73 129.278 667.442 129.953 669.501 129.953C671.472 129.953 673.15 129.243 674.517 127.842C675.866 126.459 676.54 124.763 676.54 122.792C676.54 120.82 675.866 119.125 674.517 117.706Z" fill="#3155A6"/>
<path d="M696.26 131.561V121.892C696.26 120.958 696.139 120.093 695.88 119.298C695.603 118.364 695.17 117.62 694.582 117.066C693.51 116.063 692.247 115.561 690.777 115.561C689.289 115.561 688.027 116.063 686.954 117.066C686.384 117.602 685.951 118.329 685.674 119.228C685.432 120.007 685.311 120.837 685.311 121.719V131.544H683.062V114.005H685.311V116.253H685.38C686.539 114.454 688.338 113.555 690.794 113.555C693.25 113.555 695.17 114.333 696.554 115.907C697.869 117.412 698.526 119.419 698.526 121.909V131.561H696.26Z" fill="#3155A6"/>
<path d="M891.26 131.561V121.892C891.26 120.958 891.139 120.093 890.88 119.298C890.603 118.364 890.17 117.62 889.582 117.066C888.51 116.063 887.247 115.561 885.777 115.561C884.289 115.561 883.027 116.063 881.954 117.066C881.384 117.602 880.951 118.329 880.674 119.228C880.432 120.007 880.311 120.837 880.311 121.719V131.544H878.062V114.005H880.311V116.253H880.38C881.539 114.454 883.338 113.555 885.794 113.555C888.25 113.555 890.17 114.333 891.554 115.907C892.869 117.412 893.526 119.419 893.526 121.909V131.561H891.26Z" fill="#3155A6"/>
<path d="M718.486 131.562V128.465H718.417C716.843 130.8 714.577 131.977 711.585 131.977C708.938 131.977 706.707 131.095 704.891 129.33C703.057 127.566 702.141 125.369 702.141 122.723C702.141 120.111 703.057 117.914 704.908 116.15C706.742 114.403 708.956 113.538 711.568 113.538C714.543 113.538 716.826 114.697 718.4 116.997H718.469V107.778H720.718V131.544H718.486V131.562ZM716.601 117.707C715.235 116.271 713.557 115.562 711.585 115.562C709.509 115.562 707.779 116.254 706.43 117.637C705.064 119.021 704.389 120.751 704.389 122.827C704.389 124.868 705.081 126.58 706.448 127.929C707.814 129.278 709.527 129.953 711.585 129.953C713.557 129.953 715.235 129.244 716.601 127.843C717.95 126.459 718.625 124.764 718.625 122.792C718.625 120.82 717.95 119.125 716.601 117.707Z" fill="#3155A6"/>
<path d="M734.727 131.561V107.795H747.717V109.957H737.114V118.485H747.371V120.647H737.114V129.416H747.717V131.561H734.727Z" fill="#3155A6"/>
<path d="M767.61 131.562V128.465H767.54C765.966 130.8 763.701 131.977 760.708 131.977C758.062 131.977 755.83 131.095 754.014 129.33C752.181 127.566 751.281 125.369 751.281 122.723C751.281 120.111 752.198 117.914 754.049 116.15C755.882 114.403 758.096 113.538 760.708 113.538C763.683 113.538 765.966 114.697 767.54 116.997H767.61V107.778H769.858V131.544H767.61V131.562ZM765.724 117.707C764.358 116.271 762.68 115.562 760.708 115.562C758.633 115.562 756.903 116.254 755.554 117.637C754.187 119.021 753.513 120.751 753.513 122.827C753.513 124.868 754.204 126.58 755.571 127.929C756.937 129.278 758.65 129.953 760.708 129.953C762.68 129.953 764.358 129.244 765.724 127.843C767.073 126.459 767.748 124.764 767.748 122.792C767.748 120.82 767.073 119.125 765.724 117.707Z" fill="#3155A6"/>
<path d="M787.611 131.561V128.828H787.541C787.057 129.866 786.261 130.662 785.206 131.215C784.238 131.734 783.131 131.976 781.92 131.976C779.291 131.976 777.267 131.094 775.883 129.347C775.312 128.621 774.897 127.721 774.638 126.666C774.448 125.801 774.344 124.816 774.344 123.691V114.005H776.592V123.657C776.592 125.611 776.973 127.116 777.751 128.171C778.633 129.365 780.034 129.953 781.92 129.953C783.407 129.953 784.653 129.486 785.656 128.534C786.365 127.86 786.867 127.047 787.144 126.113C787.368 125.369 787.489 124.418 787.489 123.276V113.988H789.738V131.544H787.611V131.561Z" fill="#3155A6"/>
<path d="M811.717 126.389C809.831 130.126 806.908 131.994 802.982 131.994C800.37 131.994 798.156 131.111 796.322 129.364C794.471 127.583 793.555 125.403 793.555 122.809C793.555 120.232 794.489 118.052 796.34 116.236C798.19 114.454 800.404 113.555 802.982 113.555C804.919 113.555 806.666 114.057 808.24 115.077C809.848 116.115 811.007 117.533 811.717 119.315H809.243C807.929 116.824 805.87 115.579 803.051 115.579C801.027 115.579 799.332 116.271 797.931 117.654C796.512 119.038 795.803 120.733 795.803 122.757C795.803 124.798 796.495 126.51 797.896 127.894C799.297 129.278 801.01 129.987 803.051 129.987C805.939 129.987 808.015 128.794 809.243 126.407H811.717V126.389Z" fill="#3155A6"/>
<path d="M831.055 131.561V128.465H830.986C829.429 130.8 827.163 131.976 824.153 131.976C821.507 131.976 819.276 131.094 817.46 129.33C815.626 127.566 814.727 125.369 814.727 122.722C814.727 120.11 815.643 117.914 817.494 116.149C819.328 114.402 821.542 113.538 824.153 113.538C827.215 113.538 829.498 114.714 830.986 117.066H831.055V113.987H833.321V131.544H831.055V131.561ZM829.17 117.706C827.803 116.271 826.125 115.561 824.153 115.561C822.078 115.561 820.348 116.253 818.999 117.637C817.65 119.021 816.958 120.75 816.958 122.826C816.958 124.867 817.65 126.58 819.016 127.929C820.383 129.278 822.095 129.953 824.153 129.953C826.125 129.953 827.803 129.243 829.17 127.842C830.519 126.459 831.193 124.763 831.193 122.792C831.193 120.82 830.519 119.125 829.17 117.706Z" fill="#3155A6"/>
<path d="M842.021 116.028V131.561H839.772V116.028H836.07V114.005H839.772V107.795H842.021V114.005H846.224V116.028H842.021Z" fill="#3155A6"/>
<path d="M848.961 107.795H851.21V111.86H848.961V107.795ZM848.961 114.005H851.21V131.561H848.961V114.005Z" fill="#3155A6"/>
<path d="M870.638 129.243C868.839 131.06 866.66 131.976 864.152 131.976C861.678 131.976 859.534 131.077 857.717 129.278C855.901 127.479 854.984 125.351 854.984 122.878C854.984 120.335 855.867 118.139 857.648 116.305C859.43 114.454 861.592 113.538 864.135 113.538C866.625 113.538 868.787 114.454 870.604 116.271C872.42 118.087 873.337 120.249 873.337 122.757C873.354 125.282 872.437 127.444 870.638 129.243ZM869.082 117.689C867.715 116.271 866.089 115.579 864.169 115.579C862.197 115.579 860.554 116.305 859.205 117.775C857.89 119.194 857.233 120.889 857.233 122.861C857.233 124.781 857.908 126.441 859.257 127.842C860.623 129.261 862.249 129.953 864.186 129.953C866.176 129.953 867.836 129.226 869.168 127.79C870.465 126.372 871.105 124.677 871.105 122.67C871.105 120.75 870.431 119.09 869.082 117.689Z" fill="#3155A6"/>
<path d="M896.91 90.6191H159.242V92.3488H896.91V90.6191Z" fill="#3155A6"/>
</svg>
