<svg width="1660" height="1150" viewBox="0 0 1660 1150" fill="none" xmlns="http://www.w3.org/2000/svg">
<path fill-rule="evenodd" clip-rule="evenodd" d="M140.831 339.71C140.831 389.93 151.741 437.609 171.313 480.5C172.145 482.374 173.062 484.289 173.978 486.163C176.268 490.952 178.683 495.699 181.182 500.363C190.593 517.894 201.503 534.467 213.787 550C242.853 586.852 279.455 617.542 321.263 639.695C323.72 641.028 326.219 642.36 328.759 643.526C335.172 646.816 341.751 649.814 348.414 652.604C372.899 662.973 398.841 670.551 425.866 674.882C443.647 677.797 461.928 679.254 480.542 679.254C499.197 679.254 517.436 677.755 535.258 674.84C562.284 670.51 588.226 662.931 612.753 652.562H612.795C619.416 649.772 625.953 646.774 632.325 643.526C634.865 642.277 637.321 640.986 639.82 639.695C681.545 617.5 718.147 586.852 747.255 550C759.539 534.467 770.449 517.894 779.902 500.363C782.4 495.699 784.815 490.952 787.106 486.163C788.063 484.248 788.938 482.374 789.771 480.458C809.342 437.568 820.252 389.888 820.252 339.669C820.252 320.514 818.67 301.775 815.63 283.495C811.133 256.553 803.512 230.735 793.102 206.375C790.437 200.087 787.564 193.966 784.524 187.886C783.316 185.346 781.984 182.847 780.693 180.349C723.478 73.0807 610.504 0 480.5 0C350.454 0 237.481 73.0806 180.432 180.432C179.1 182.931 177.809 185.429 176.601 187.969C173.52 194.007 170.688 200.17 168.023 206.458C157.571 230.818 149.951 256.678 145.495 283.578V283.62C142.414 301.858 140.831 320.597 140.831 339.71ZM145.537 339.71C145.537 318.64 147.494 298.069 151.2 278.081C156.114 251.556 164.192 226.113 174.977 202.169C177.767 196.006 180.724 189.885 183.93 183.93C185.179 181.432 186.512 178.975 187.928 176.56C245.185 74.08 354.785 4.8304 480.5 4.8304C606.174 4.8304 715.732 74.1217 772.989 176.56C774.363 178.975 775.696 181.432 776.987 183.888C780.151 189.885 783.15 195.964 785.898 202.127C796.683 226.029 804.762 251.431 809.675 277.956C813.423 297.944 815.38 318.598 815.38 339.71C815.38 387.765 805.261 433.445 786.981 474.795C786.148 476.711 785.273 478.626 784.399 480.5C782.192 485.289 779.86 490.036 777.403 494.658C768.242 512.189 757.582 528.804 745.547 544.336C717.939 580.106 683.252 610.088 643.568 632.2C641.153 633.615 638.696 634.948 636.197 636.239C629.909 639.57 623.497 642.693 616.959 645.608C592.89 656.393 567.364 664.388 540.672 669.177H540.63C521.1 672.758 500.988 674.591 480.417 674.591C459.888 674.591 439.775 672.717 420.245 669.219C393.594 664.388 368.027 656.393 343.958 645.65C337.379 642.735 330.966 639.612 324.678 636.239C322.179 634.948 319.723 633.615 317.307 632.241C277.623 610.088 242.936 580.106 215.328 544.336C203.293 528.804 192.633 512.189 183.472 494.658C180.973 489.994 178.642 485.247 176.435 480.458C175.56 478.585 174.686 476.669 173.894 474.795V474.754C155.656 433.445 145.537 387.765 145.537 339.71Z" fill="url(#paint0_linear_0_1)"/>
<path fill-rule="evenodd" clip-rule="evenodd" d="M140.831 621.29C140.831 640.403 142.414 659.142 145.453 677.422C149.909 704.322 157.529 730.14 167.94 754.5C170.605 760.788 173.478 766.951 176.518 773.031C177.767 775.571 179.058 778.111 180.432 780.651H180.474C237.481 888.003 350.454 961.083 480.5 961.083C610.546 961.083 723.519 888.003 780.568 780.651H780.61C781.984 778.111 783.275 775.613 784.482 773.031C787.564 766.993 790.395 760.788 793.06 754.5H793.102C803.512 730.182 811.133 704.322 815.588 677.422C818.628 659.183 820.21 640.403 820.21 621.29C820.21 571.112 809.3 523.432 789.729 480.542C788.896 478.626 787.98 476.711 787.064 474.837C784.815 470.048 782.4 465.301 779.86 460.637C770.449 443.106 759.497 426.491 747.213 410.959C718.147 374.148 681.545 343.5 639.82 321.305V321.263C637.321 319.931 634.823 318.64 632.283 317.432V317.391C625.87 314.184 619.332 311.144 612.67 308.354C588.185 298.027 562.284 290.449 535.258 286.076H535.217C517.394 283.161 499.155 281.662 480.5 281.662C461.886 281.662 443.606 283.161 425.825 286.035C398.8 290.365 372.857 297.944 348.372 308.313C341.709 311.103 335.172 314.101 328.717 317.349V317.391C326.177 318.598 323.679 319.889 321.222 321.222C279.455 343.417 242.853 374.106 213.787 410.917C201.503 426.449 190.593 443.064 181.182 460.595C178.642 465.259 176.226 470.006 173.978 474.795V474.837C173.062 476.711 172.145 478.626 171.313 480.5C151.741 523.391 140.831 571.07 140.831 621.29ZM151.242 682.919C147.535 662.931 145.578 642.36 145.578 621.29C145.578 573.235 155.697 527.555 173.978 486.205C174.811 484.331 175.643 482.374 176.518 480.542C178.725 475.753 181.057 471.006 183.514 466.342V466.3C192.675 448.769 203.335 432.154 215.411 416.622C243.019 380.852 277.706 350.87 317.391 328.759V328.717C319.806 327.343 322.263 326.01 324.72 324.761V324.72C331.007 321.388 337.503 318.265 344.041 315.309C368.11 304.565 393.636 296.57 420.287 291.74V291.698C439.816 288.158 459.929 286.326 480.5 286.326C501.071 286.326 521.184 288.2 540.714 291.74H540.755C567.406 296.57 592.932 304.565 617 315.309C623.538 318.223 629.951 321.347 636.28 324.678V324.72C638.779 325.969 641.236 327.343 643.651 328.717C683.294 350.87 717.981 380.852 745.589 416.58C757.582 432.113 768.284 448.728 777.445 466.259C779.902 470.923 782.234 475.67 784.441 480.458C785.315 482.332 786.189 484.248 787.022 486.163C805.261 527.472 815.422 573.152 815.422 621.206C815.422 642.318 813.465 662.973 809.717 682.96C804.803 709.444 796.766 734.846 785.981 758.748C783.191 764.911 780.235 770.99 777.07 776.987C775.779 779.485 774.447 781.984 773.072 784.441H773.031C715.774 886.878 606.215 956.17 480.542 956.17C354.826 956.17 245.268 886.878 188.011 784.399H187.969C186.595 781.942 185.221 779.444 183.93 776.945C180.765 770.949 177.809 764.869 175.019 758.706C164.192 734.804 156.155 709.403 151.242 682.919Z" fill="url(#paint1_linear_0_1)"/>
<path fill-rule="evenodd" clip-rule="evenodd" d="M281.662 480.5C281.662 499.114 283.161 517.436 286.076 535.217C290.407 562.2 297.986 588.143 308.313 612.628C311.144 619.291 314.184 625.828 317.391 632.283C318.64 634.781 319.889 637.28 321.263 639.737C343.417 681.503 374.106 718.106 410.959 747.171C426.491 759.456 443.064 770.366 460.595 779.818C465.259 782.358 470.006 784.732 474.795 787.022C476.669 787.98 478.584 788.854 480.5 789.687C523.391 809.259 571.07 820.169 621.248 820.169C640.403 820.169 659.1 818.586 677.422 815.547H677.464C704.323 811.049 730.14 803.429 754.5 793.019C760.788 790.354 766.91 787.48 773.031 784.441H773.072C775.613 783.191 778.111 781.9 780.61 780.568H780.651C888.003 723.477 961.083 610.463 961.083 480.458C961.083 350.412 888.003 237.481 780.651 180.391C778.111 179.016 775.613 177.725 773.072 176.518C767.034 173.436 760.83 170.605 754.542 167.94C730.182 157.488 704.364 149.909 677.505 145.412C659.225 142.372 640.445 140.79 621.331 140.79C571.153 140.79 523.474 151.7 480.583 171.271C478.668 172.146 476.752 173.02 474.92 173.894C470.131 176.185 465.384 178.642 460.72 181.14C443.189 190.593 426.574 201.503 411.042 213.787C374.19 242.853 343.541 279.455 321.347 321.222C320.014 323.679 318.723 326.177 317.516 328.675V328.717C314.268 335.172 311.228 341.668 308.438 348.33V348.372C298.111 372.857 290.574 398.758 286.201 425.742C283.161 443.606 281.662 461.845 281.662 480.5ZM291.781 540.714C288.2 521.184 286.368 501.029 286.368 480.5C286.368 459.971 288.242 439.816 291.781 420.287V420.245C296.612 393.594 304.565 368.11 315.35 344.041C318.307 337.462 321.388 331.049 324.761 324.761V324.72C326.052 322.263 327.385 319.848 328.759 317.391V317.349C350.912 277.665 380.894 243.019 416.622 215.369C432.154 203.335 448.769 192.675 466.3 183.514C470.964 181.057 475.711 178.725 480.5 176.518C482.374 175.643 484.289 174.769 486.163 173.978C527.513 155.697 573.194 145.578 621.248 145.578C642.318 145.578 662.931 147.535 682.919 151.283C709.403 156.155 734.804 164.192 758.706 175.019C764.869 177.809 770.99 180.807 776.945 183.93C779.444 185.263 781.942 186.595 784.399 188.011C886.878 245.268 956.17 354.826 956.17 480.542C956.17 606.257 886.92 715.774 784.441 773.031C781.984 774.405 779.485 775.779 776.987 777.07C771.032 780.276 764.952 783.233 758.748 785.981C734.846 796.766 709.444 804.803 682.96 809.717C662.931 813.465 642.277 815.422 621.206 815.422C573.152 815.422 527.472 805.303 486.163 787.022C484.248 786.189 482.332 785.315 480.458 784.44C475.67 782.233 470.964 779.902 466.3 777.445C448.769 768.325 432.154 757.623 416.622 745.631C380.852 718.022 350.829 683.294 328.717 643.609C327.343 641.194 326.01 638.737 324.761 636.28C321.43 629.993 318.265 623.538 315.35 617C304.607 592.932 296.612 567.364 291.781 540.714Z" fill="url(#paint2_linear_0_1)"/>
<path fill-rule="evenodd" clip-rule="evenodd" d="M652.646 612.67C687 590.933 716.981 562.867 740.925 530.095C752.335 514.604 762.412 497.989 770.907 480.542C762.412 463.052 752.335 446.479 740.967 430.947C716.982 398.217 687 370.109 652.687 348.414C663.056 372.899 670.635 398.841 674.965 425.866C691.414 442.19 705.78 460.554 717.648 480.542C705.738 500.53 691.33 518.893 674.924 535.175C670.593 562.2 663.014 588.143 652.646 612.67Z" fill="url(#paint3_linear_0_1)"/>
<path fill-rule="evenodd" clip-rule="evenodd" d="M500.363 181.182C517.936 190.593 534.55 201.503 550.041 213.829C572.985 207.624 597.054 204.334 621.914 204.334C661.474 204.334 699.117 212.704 733.222 227.778C748.296 261.883 756.666 299.527 756.666 339.086C756.666 363.946 753.334 388.014 747.171 410.959C759.456 426.491 770.366 443.106 779.818 460.637C795.101 423.077 803.512 382.06 803.512 339.128C803.512 313.768 800.597 289.116 795.017 265.422C789.021 239.854 780.026 215.453 768.325 192.591C745.506 180.932 721.146 171.937 695.619 165.983C671.925 160.444 647.232 157.488 621.914 157.488C578.982 157.446 537.923 165.858 500.363 181.182Z" fill="url(#paint4_linear_0_1)"/>
<path fill-rule="evenodd" clip-rule="evenodd" d="M500.405 779.818C537.965 795.142 578.982 803.554 621.914 803.554C647.274 803.554 671.967 800.639 695.619 795.059C721.146 789.104 745.547 780.068 768.367 768.409C780.027 745.589 789.021 721.187 795.017 695.661C800.556 671.967 803.512 647.315 803.512 621.956C803.512 579.024 795.101 538.007 779.777 500.446C770.324 517.977 759.414 534.551 747.13 550.083C753.293 573.027 756.624 597.138 756.624 621.956C756.624 661.515 748.254 699.159 733.18 733.222C699.117 748.337 661.432 756.666 621.872 756.666C597.013 756.666 572.944 753.334 549.999 747.13C534.509 759.456 517.936 770.366 500.405 779.818Z" fill="url(#paint5_linear_0_1)"/>
<path fill-rule="evenodd" clip-rule="evenodd" d="M0 480.5C0 610.504 73.0806 723.478 180.432 780.61H180.474C182.972 781.942 185.429 783.233 187.969 784.441H188.011C194.049 787.48 200.212 790.354 206.5 793.019C230.86 803.471 256.678 811.091 283.62 815.547H283.661C301.9 818.586 320.639 820.169 339.794 820.169C389.972 820.169 437.651 809.259 480.542 789.687C482.457 788.855 484.373 787.938 486.247 787.022C491.035 784.732 495.782 782.359 500.488 779.818C518.019 770.407 534.592 759.456 550.124 747.171C586.977 718.106 617.625 681.503 639.82 639.737C641.152 637.238 642.443 634.74 643.651 632.241C646.899 625.828 649.897 619.332 652.687 612.67V612.628C663.056 588.143 670.635 562.159 674.965 535.133C677.88 517.353 679.379 499.072 679.379 480.458C679.379 461.845 677.88 443.606 675.007 425.825C670.635 398.8 663.098 372.815 652.729 348.372C649.939 341.709 646.941 335.213 643.693 328.759C642.443 326.26 641.153 323.762 639.862 321.305V321.263C617.667 279.497 586.977 242.894 550.166 213.829C534.634 201.544 518.019 190.634 500.488 181.182C495.824 178.683 491.077 176.226 486.288 173.978C484.414 173.062 482.499 172.145 480.625 171.313C437.734 151.741 390.055 140.831 339.877 140.831C320.722 140.831 301.983 142.414 283.703 145.453C256.761 149.951 230.943 157.571 206.583 167.981C200.295 170.646 194.174 173.478 188.094 176.559C185.596 177.767 183.056 179.1 180.557 180.391C73.0807 237.481 0 350.454 0 480.5ZM4.8304 480.5C4.8304 354.785 74.1217 245.226 176.601 187.969C179.016 186.553 181.473 185.221 183.972 183.972C189.926 180.765 196.006 177.809 202.211 175.019C226.154 164.234 251.597 156.155 278.123 151.242C298.111 147.535 318.682 145.578 339.752 145.578C387.806 145.578 433.487 155.697 474.837 173.978C476.711 174.811 478.626 175.685 480.5 176.559C485.33 178.766 490.036 181.098 494.7 183.597C512.231 192.758 528.846 203.418 544.378 215.494C580.106 243.102 610.088 277.79 632.241 317.432V317.474C633.657 319.889 634.948 322.346 636.239 324.803V324.845C639.57 331.132 642.735 337.587 645.65 344.124V344.166C656.435 368.235 664.43 393.803 669.26 420.453C672.8 439.983 674.674 460.096 674.674 480.625C674.674 501.196 672.8 521.309 669.26 540.838C664.43 567.531 656.435 593.098 645.65 617.167C642.735 623.705 639.612 630.118 636.239 636.447C634.99 638.904 633.657 641.319 632.283 643.776C610.13 683.46 580.148 718.147 544.378 745.797C528.846 757.79 512.231 768.45 494.7 777.611C490.036 780.068 485.289 782.4 480.5 784.607C478.626 785.523 476.711 786.356 474.795 787.189C433.487 805.428 387.806 815.588 339.752 815.588C318.64 815.588 297.986 813.631 277.998 809.883C251.472 804.97 226.071 796.891 202.169 786.106H202.127C195.964 783.316 189.885 780.318 183.888 777.195C181.39 775.904 178.933 774.571 176.518 773.197C74.08 715.691 4.8304 606.215 4.8304 480.5Z" fill="url(#paint6_linear_0_1)"/>
<path fill-rule="evenodd" clip-rule="evenodd" d="M348.372 652.687C370.109 687.041 398.175 717.023 430.905 740.967C446.437 752.377 463.011 762.412 480.458 770.949C497.948 762.454 514.521 752.377 530.053 740.967C562.825 716.982 590.891 687 612.628 652.646C588.143 663.014 562.2 670.593 535.175 674.924C518.893 691.372 500.488 705.78 480.458 717.689C460.47 705.78 442.107 691.372 425.783 674.965C398.8 670.635 372.815 663.056 348.372 652.687Z" fill="url(#paint7_linear_0_1)"/>
<path fill-rule="evenodd" clip-rule="evenodd" d="M157.446 621.956C157.446 647.274 160.361 671.925 165.941 695.619C171.896 721.146 180.932 745.547 192.55 768.409C215.369 780.027 239.771 789.104 265.339 795.059C289.033 800.639 313.726 803.554 339.044 803.554C381.976 803.554 423.035 795.142 460.595 779.818C443.064 770.366 426.491 759.456 410.959 747.171C388.014 753.376 363.904 756.707 339.044 756.707C299.485 756.707 261.841 748.337 227.778 733.263C212.663 699.201 204.334 661.515 204.334 621.997C204.334 597.137 207.666 573.027 213.829 550.083C201.544 534.551 190.634 517.977 181.223 500.446C165.858 537.965 157.446 579.024 157.446 621.956Z" fill="url(#paint8_linear_0_1)"/>
<path fill-rule="evenodd" clip-rule="evenodd" d="M190.051 480.5C198.546 497.948 208.623 514.521 219.991 530.053C243.977 562.825 273.959 590.891 308.271 612.628C297.944 588.143 290.407 562.2 286.035 535.217C269.628 518.893 255.22 500.488 243.269 480.5C255.22 460.471 269.628 442.107 286.035 425.783C290.407 398.8 297.944 372.857 308.271 348.414C273.917 370.15 243.977 398.217 219.991 430.947C208.623 446.437 198.546 463.052 190.051 480.5Z" fill="url(#paint9_linear_0_1)"/>
<path fill-rule="evenodd" clip-rule="evenodd" d="M157.446 339.044C157.446 381.976 165.858 423.035 181.182 460.595C190.593 443.064 201.503 426.449 213.787 410.917C207.624 387.973 204.293 363.863 204.293 339.003C204.293 299.443 212.663 261.799 227.737 227.695C261.841 212.621 299.485 204.251 339.003 204.251C363.862 204.251 387.973 207.541 410.876 213.745C426.408 201.461 443.023 190.551 460.554 181.098C422.993 165.774 381.935 157.363 339.003 157.363C313.685 157.363 289.033 160.278 265.339 165.858C239.771 171.812 215.369 180.849 192.55 192.508C180.89 215.369 171.854 239.771 165.899 265.339C160.361 289.075 157.446 313.726 157.446 339.044Z" fill="url(#paint10_linear_0_1)"/>
<path fill-rule="evenodd" clip-rule="evenodd" d="M298.319 480.5C298.319 505.735 301.234 530.303 306.772 553.872C312.81 579.648 321.93 604.258 333.797 627.286C356.825 639.112 381.435 648.273 407.211 654.269C430.78 659.808 455.307 662.681 480.5 662.681C505.693 662.681 530.261 659.766 553.83 654.269C579.606 648.231 604.217 639.07 627.286 627.286H627.328C639.112 604.258 648.273 579.606 654.311 553.83C659.808 530.261 662.723 505.735 662.723 480.5C662.723 455.307 659.808 430.78 654.311 407.211C648.273 381.435 639.112 356.867 627.369 333.839V333.797C627.328 333.797 627.328 333.756 627.328 333.756C604.3 321.93 579.731 312.768 553.914 306.772C530.345 301.234 505.776 298.319 480.542 298.319C455.349 298.319 430.78 301.234 407.211 306.772C381.435 312.81 356.908 321.93 333.881 333.714V333.756C322.013 356.742 312.893 381.352 306.855 407.128C301.275 430.739 298.319 455.265 298.319 480.5ZM368.943 592.057C353.744 557.911 345.29 520.184 345.29 480.5C345.29 440.857 353.744 403.13 368.943 368.984C403.089 353.785 440.816 345.332 480.5 345.332C520.184 345.332 557.911 353.785 592.057 368.984C607.256 403.13 615.71 440.899 615.71 480.5C615.71 520.184 607.256 557.911 592.057 592.057C557.911 607.256 520.143 615.71 480.5 615.71C440.816 615.668 403.089 607.256 368.943 592.057Z" fill="url(#paint11_linear_0_1)"/>
<path fill-rule="evenodd" clip-rule="evenodd" d="M348.372 308.313C372.857 297.944 398.8 290.365 425.825 286.035C442.107 269.586 460.512 255.22 480.5 243.352C500.53 255.262 518.893 269.67 535.217 286.076H535.258C562.284 290.407 588.185 297.986 612.67 308.354C590.933 274.042 562.867 244.06 530.137 220.075C514.604 208.665 497.989 198.588 480.542 190.093C463.052 198.629 446.479 208.665 430.988 220.075C398.175 244.019 370.109 274 348.372 308.313Z" fill="url(#paint12_linear_0_1)"/>
<path fill-rule="evenodd" clip-rule="evenodd" d="M1245.08 835.446C1245.08 860.791 1250.58 884.854 1260.46 906.5C1260.88 907.446 1261.34 908.412 1261.8 909.358C1262.96 911.775 1264.18 914.171 1265.44 916.525C1270.19 925.372 1275.69 933.736 1281.89 941.575C1296.56 960.174 1315.04 975.663 1336.14 986.843C1337.38 987.515 1338.64 988.188 1339.92 988.776C1343.16 990.437 1346.48 991.95 1349.84 993.358C1362.2 998.591 1375.29 1002.42 1388.93 1004.6C1397.9 1006.07 1407.13 1006.81 1416.52 1006.81C1425.94 1006.81 1435.14 1006.05 1444.14 1004.58C1457.77 1002.39 1470.87 998.57 1483.25 993.337H1483.27C1486.61 991.929 1489.91 990.416 1493.12 988.776C1494.41 988.146 1495.65 987.494 1496.91 986.843C1517.96 975.642 1536.44 960.174 1551.13 941.575C1557.33 933.736 1562.83 925.372 1567.6 916.525C1568.86 914.171 1570.08 911.775 1571.24 909.358C1571.72 908.391 1572.16 907.446 1572.58 906.479C1582.46 884.833 1587.97 860.77 1587.97 835.425C1587.97 825.758 1587.17 816.301 1585.63 807.075C1583.36 793.478 1579.52 780.448 1574.26 768.154C1572.92 764.98 1571.47 761.891 1569.94 758.823C1569.33 757.541 1568.65 756.28 1568 755.019C1539.13 700.883 1482.11 664 1416.5 664C1350.87 664 1293.85 700.883 1265.06 755.061C1264.39 756.322 1263.74 757.583 1263.13 758.865C1261.57 761.912 1260.14 765.022 1258.8 768.196C1253.52 780.49 1249.68 793.541 1247.43 807.117V807.138C1245.87 816.343 1245.08 825.8 1245.08 835.446ZM1247.45 835.446C1247.45 824.812 1248.44 814.43 1250.31 804.343C1252.79 790.956 1256.86 778.115 1262.31 766.031C1263.72 762.921 1265.21 759.832 1266.83 756.826C1267.46 755.565 1268.13 754.325 1268.84 753.107C1297.74 701.387 1353.05 666.438 1416.5 666.438C1479.93 666.438 1535.22 701.408 1564.11 753.107C1564.81 754.325 1565.48 755.565 1566.13 756.805C1567.73 759.832 1569.24 762.9 1570.63 766.01C1576.07 778.073 1580.15 790.893 1582.63 804.28C1584.52 814.367 1585.51 824.791 1585.51 835.446C1585.51 859.698 1580.4 882.752 1571.18 903.621C1570.76 904.588 1570.31 905.554 1569.87 906.5C1568.76 908.917 1567.58 911.313 1566.34 913.645C1561.72 922.493 1556.34 930.878 1550.26 938.717C1536.33 956.77 1518.83 971.901 1498.8 983.06C1497.58 983.775 1496.34 984.447 1495.08 985.099C1491.9 986.78 1488.67 988.356 1485.37 989.827C1473.22 995.27 1460.34 999.305 1446.87 1001.72H1446.85C1436.99 1003.53 1426.84 1004.45 1416.46 1004.45C1406.1 1004.45 1395.95 1003.51 1386.09 1001.74C1372.64 999.305 1359.74 995.27 1347.59 989.848C1344.27 988.377 1341.03 986.801 1337.86 985.099C1336.6 984.447 1335.36 983.775 1334.14 983.081C1314.11 971.901 1296.61 956.77 1282.67 938.717C1276.6 930.878 1271.22 922.493 1266.6 913.645C1265.33 911.292 1264.16 908.896 1263.04 906.479C1262.6 905.533 1262.16 904.567 1261.76 903.621V903.6C1252.56 882.752 1247.45 859.698 1247.45 835.446Z" fill="url(#paint13_linear_0_1)"/>
<path fill-rule="evenodd" clip-rule="evenodd" d="M1245.08 977.554C1245.08 987.2 1245.87 996.657 1247.41 1005.88C1249.66 1019.46 1253.5 1032.49 1258.76 1044.78C1260.1 1047.96 1261.55 1051.07 1263.09 1054.14C1263.72 1055.42 1264.37 1056.7 1265.06 1057.98H1265.08C1293.85 1112.16 1350.87 1149.04 1416.5 1149.04C1482.13 1149.04 1539.15 1112.16 1567.94 1057.98H1567.96C1568.65 1056.7 1569.31 1055.44 1569.91 1054.14C1571.47 1051.09 1572.9 1047.96 1574.24 1044.78H1574.26C1579.52 1032.51 1583.36 1019.46 1585.61 1005.88C1587.15 996.678 1587.95 987.2 1587.95 977.554C1587.95 952.23 1582.44 928.167 1572.56 906.521C1572.14 905.554 1571.68 904.588 1571.22 903.642C1570.08 901.225 1568.86 898.829 1567.58 896.476C1562.83 887.628 1557.31 879.243 1551.11 871.404C1536.44 852.826 1517.96 837.358 1496.91 826.157V826.136C1495.65 825.463 1494.38 824.812 1493.1 824.203V824.182C1489.87 822.563 1486.57 821.029 1483.2 819.621C1470.85 814.409 1457.77 810.584 1444.14 808.378H1444.11C1435.12 806.907 1425.92 806.15 1416.5 806.15C1407.11 806.15 1397.88 806.907 1388.91 808.357C1375.27 810.542 1362.17 814.367 1349.82 819.6C1346.45 821.008 1343.16 822.521 1339.9 824.161V824.182C1338.62 824.791 1337.35 825.442 1336.12 826.115C1315.04 837.316 1296.56 852.805 1281.89 871.383C1275.69 879.222 1270.19 887.607 1265.44 896.454C1264.16 898.808 1262.94 901.204 1261.8 903.621V903.642C1261.34 904.588 1260.88 905.554 1260.46 906.5C1250.58 928.146 1245.08 952.209 1245.08 977.554ZM1250.33 1008.66C1248.46 998.57 1247.47 988.188 1247.47 977.554C1247.47 953.302 1252.58 930.248 1261.8 909.379C1262.22 908.433 1262.64 907.446 1263.09 906.521C1264.2 904.104 1265.38 901.708 1266.62 899.355V899.334C1271.24 890.486 1276.62 882.101 1282.71 874.262C1296.65 856.209 1314.15 841.078 1334.18 829.919V829.898C1335.4 829.204 1336.64 828.532 1337.88 827.901V827.88C1341.05 826.199 1344.33 824.623 1347.63 823.131C1359.78 817.709 1372.66 813.674 1386.11 811.236V811.215C1395.97 809.429 1406.12 808.504 1416.5 808.504C1426.88 808.504 1437.03 809.45 1446.89 811.236H1446.91C1460.36 813.674 1473.24 817.709 1485.39 823.131C1488.69 824.602 1491.93 826.178 1495.12 827.859V827.88C1496.38 828.511 1497.62 829.204 1498.84 829.898C1518.85 841.078 1536.35 856.209 1550.29 874.241C1556.34 882.08 1561.74 890.465 1566.36 899.313C1567.6 901.666 1568.78 904.062 1569.89 906.479C1570.33 907.425 1570.78 908.391 1571.2 909.358C1580.4 930.206 1585.53 953.26 1585.53 977.512C1585.53 988.167 1584.54 998.591 1582.65 1008.68C1580.17 1022.04 1576.11 1034.86 1570.67 1046.93C1569.26 1050.04 1567.77 1053.11 1566.17 1056.13C1565.52 1057.39 1564.85 1058.65 1564.16 1059.89H1564.14C1535.24 1111.59 1479.95 1146.56 1416.52 1146.56C1353.07 1146.56 1297.78 1111.59 1268.89 1059.87H1268.86C1268.17 1058.63 1267.48 1057.37 1266.83 1056.11C1265.23 1053.08 1263.74 1050.02 1262.33 1046.91C1256.86 1034.84 1252.81 1022.02 1250.33 1008.66Z" fill="url(#paint14_linear_0_1)"/>
<path fill-rule="evenodd" clip-rule="evenodd" d="M1316.15 906.5C1316.15 915.894 1316.91 925.141 1318.38 934.115C1320.56 947.733 1324.39 960.826 1329.6 973.183C1331.03 976.545 1332.56 979.845 1334.18 983.102C1334.81 984.363 1335.44 985.624 1336.14 986.864C1347.32 1007.94 1362.8 1026.42 1381.4 1041.08C1389.24 1047.28 1397.61 1052.79 1406.45 1057.56C1408.81 1058.84 1411.2 1060.04 1413.62 1061.2C1414.57 1061.68 1415.53 1062.12 1416.5 1062.54C1438.15 1072.42 1462.21 1077.92 1487.53 1077.92C1497.2 1077.92 1506.64 1077.13 1515.88 1075.59H1515.9C1529.46 1073.32 1542.49 1069.48 1554.78 1064.22C1557.96 1062.88 1561.05 1061.43 1564.14 1059.89H1564.16C1565.44 1059.26 1566.7 1058.61 1567.96 1057.94H1567.98C1622.16 1029.13 1659.04 972.09 1659.04 906.479C1659.04 840.847 1622.16 783.852 1567.98 755.04C1566.7 754.346 1565.44 753.695 1564.16 753.085C1561.11 751.53 1557.98 750.101 1554.8 748.756C1542.51 743.481 1529.48 739.656 1515.93 737.387C1506.7 735.853 1497.22 735.054 1487.58 735.054C1462.25 735.054 1438.19 740.56 1416.54 750.438C1415.58 750.879 1414.61 751.32 1413.68 751.762C1411.27 752.917 1408.87 754.157 1406.52 755.418C1397.67 760.189 1389.28 765.695 1381.45 771.895C1362.85 786.563 1347.38 805.036 1336.18 826.115C1335.51 827.355 1334.85 828.616 1334.24 829.877V829.898C1332.61 833.155 1331.07 836.434 1329.66 839.796V839.817C1324.45 852.174 1320.65 865.246 1318.44 878.864C1316.91 887.88 1316.15 897.085 1316.15 906.5ZM1321.26 936.889C1319.45 927.032 1318.52 916.861 1318.52 906.5C1318.52 896.139 1319.47 885.968 1321.26 876.111V876.09C1323.69 862.64 1327.71 849.779 1333.15 837.632C1334.64 834.311 1336.2 831.075 1337.9 827.901V827.88C1338.55 826.64 1339.23 825.421 1339.92 824.182V824.161C1351.1 804.133 1366.23 786.648 1384.26 772.693C1392.1 766.62 1400.49 761.24 1409.33 756.616C1411.69 755.376 1414.08 754.199 1416.5 753.085C1417.45 752.644 1418.41 752.203 1419.36 751.804C1440.23 742.578 1463.28 737.471 1487.53 737.471C1498.17 737.471 1508.57 738.459 1518.66 740.35C1532.02 742.809 1544.84 746.865 1556.91 752.329C1560.02 753.737 1563.11 755.25 1566.11 756.826C1567.37 757.499 1568.63 758.171 1569.87 758.886C1621.59 787.782 1656.56 843.075 1656.56 906.521C1656.56 969.967 1621.61 1025.24 1569.89 1054.14C1568.65 1054.83 1567.39 1055.52 1566.13 1056.17C1563.13 1057.79 1560.06 1059.28 1556.93 1060.67C1544.86 1066.11 1532.04 1070.17 1518.68 1072.65C1508.57 1074.54 1498.15 1075.53 1487.51 1075.53C1463.26 1075.53 1440.21 1070.42 1419.36 1061.2C1418.39 1060.78 1417.42 1060.33 1416.48 1059.89C1414.06 1058.78 1411.69 1057.6 1409.33 1056.36C1400.49 1051.76 1392.1 1046.36 1384.26 1040.31C1366.21 1026.37 1351.06 1008.85 1339.9 988.818C1339.2 987.6 1338.53 986.36 1337.9 985.12C1336.22 981.946 1334.62 978.689 1333.15 975.389C1327.73 963.242 1323.69 950.339 1321.26 936.889Z" fill="url(#paint15_linear_0_1)"/>
<path fill-rule="evenodd" clip-rule="evenodd" d="M1503.38 973.204C1520.72 962.234 1535.85 948.069 1547.93 931.53C1553.69 923.712 1558.78 915.327 1563.06 906.521C1558.78 897.694 1553.69 889.33 1547.95 881.491C1535.85 864.973 1520.72 850.787 1503.4 839.838C1508.63 852.195 1512.46 865.288 1514.64 878.927C1522.94 887.166 1530.19 896.433 1536.18 906.521C1530.17 916.609 1522.9 925.876 1514.62 934.094C1512.44 947.733 1508.61 960.826 1503.38 973.204Z" fill="url(#paint16_linear_0_1)"/>
<path fill-rule="evenodd" clip-rule="evenodd" d="M1426.52 755.439C1435.39 760.189 1443.78 765.695 1451.6 771.916C1463.18 768.784 1475.32 767.124 1487.87 767.124C1507.83 767.124 1526.83 771.348 1544.04 778.956C1551.65 796.168 1555.88 815.166 1555.88 835.131C1555.88 847.677 1554.19 859.824 1551.08 871.404C1557.28 879.243 1562.79 887.628 1567.56 896.476C1575.27 877.519 1579.52 856.819 1579.52 835.152C1579.52 822.353 1578.05 809.912 1575.23 797.954C1572.21 785.05 1567.67 772.735 1561.76 761.198C1550.24 755.313 1537.95 750.774 1525.07 747.769C1513.11 744.973 1500.65 743.481 1487.87 743.481C1466.2 743.46 1445.48 747.705 1426.52 755.439Z" fill="url(#paint17_linear_0_1)"/>
<path fill-rule="evenodd" clip-rule="evenodd" d="M1426.55 1057.56C1445.5 1065.29 1466.2 1069.54 1487.87 1069.54C1500.67 1069.54 1513.13 1068.07 1525.07 1065.25C1537.95 1062.25 1550.26 1057.69 1561.78 1051.8C1567.67 1040.29 1572.21 1027.97 1575.23 1015.09C1578.03 1003.13 1579.52 990.689 1579.52 977.89C1579.52 956.223 1575.27 935.523 1567.54 916.566C1562.77 925.414 1557.26 933.778 1551.06 941.617C1554.17 953.197 1555.85 965.365 1555.85 977.89C1555.85 997.855 1551.63 1016.85 1544.02 1034.04C1526.83 1041.67 1507.81 1045.88 1487.85 1045.88C1475.3 1045.88 1463.15 1044.19 1451.58 1041.06C1443.76 1047.28 1435.39 1052.79 1426.55 1057.56Z" fill="url(#paint18_linear_0_1)"/>
<path fill-rule="evenodd" clip-rule="evenodd" d="M1174 906.5C1174 972.111 1210.88 1029.13 1265.06 1057.96H1265.08C1266.34 1058.63 1267.58 1059.28 1268.86 1059.89H1268.89C1271.93 1061.43 1275.04 1062.88 1278.22 1064.22C1290.51 1069.5 1303.54 1073.34 1317.14 1075.59H1317.16C1326.36 1077.13 1335.82 1077.92 1345.49 1077.92C1370.81 1077.92 1394.87 1072.42 1416.52 1062.54C1417.49 1062.12 1418.45 1061.66 1419.4 1061.2C1421.82 1060.04 1424.21 1058.84 1426.59 1057.56C1435.44 1052.81 1443.8 1047.28 1451.64 1041.08C1470.24 1026.42 1485.7 1007.94 1496.91 986.864C1497.58 985.603 1498.23 984.342 1498.84 983.081C1500.48 979.845 1501.99 976.566 1503.4 973.204V973.183C1508.63 960.826 1512.46 947.712 1514.64 934.073C1516.11 925.099 1516.87 915.873 1516.87 906.479C1516.87 897.085 1516.11 887.88 1514.66 878.906C1512.46 865.267 1508.65 852.153 1503.42 839.817C1502.01 836.455 1500.5 833.176 1498.86 829.919C1498.23 828.658 1497.58 827.397 1496.93 826.157V826.136C1485.73 805.057 1470.24 786.584 1451.66 771.916C1443.82 765.716 1435.44 760.21 1426.59 755.439C1424.23 754.178 1421.84 752.938 1419.42 751.804C1418.48 751.341 1417.51 750.879 1416.56 750.459C1394.92 740.581 1370.85 735.075 1345.53 735.075C1335.86 735.075 1326.41 735.874 1317.18 737.408C1303.58 739.677 1290.55 743.523 1278.26 748.777C1275.09 750.122 1272 751.551 1268.93 753.107C1267.67 753.716 1266.38 754.388 1265.12 755.04C1210.88 783.852 1174 840.868 1174 906.5ZM1176.44 906.5C1176.44 843.054 1211.41 787.761 1263.13 758.865C1264.35 758.15 1265.59 757.478 1266.85 756.847C1269.85 755.229 1272.92 753.737 1276.05 752.329C1288.14 746.886 1300.98 742.809 1314.36 740.329C1324.45 738.459 1334.83 737.471 1345.47 737.471C1369.72 737.471 1392.77 742.578 1413.64 751.804C1414.59 752.224 1415.55 752.665 1416.5 753.107C1418.94 754.22 1421.31 755.397 1423.67 756.658C1432.51 761.282 1440.9 766.662 1448.74 772.756C1466.77 786.69 1481.9 804.196 1493.08 824.203V824.224C1493.8 825.442 1494.45 826.682 1495.1 827.922V827.943C1496.78 831.117 1498.38 834.374 1499.85 837.674V837.695C1505.29 849.842 1509.33 862.745 1511.76 876.195C1513.55 886.052 1514.5 896.202 1514.5 906.563C1514.5 916.945 1513.55 927.095 1511.76 936.952C1509.33 950.423 1505.29 963.326 1499.85 975.474C1498.38 978.773 1496.8 982.009 1495.1 985.204C1494.47 986.444 1493.8 987.663 1493.1 988.903C1481.92 1008.93 1466.79 1026.44 1448.74 1040.39C1440.9 1046.44 1432.51 1051.82 1423.67 1056.45C1421.31 1057.69 1418.92 1058.86 1416.5 1059.98C1415.55 1060.44 1414.59 1060.86 1413.62 1061.28C1392.77 1070.49 1369.72 1075.61 1345.47 1075.61C1334.81 1075.61 1324.39 1074.63 1314.3 1072.73C1300.91 1070.25 1288.09 1066.18 1276.03 1060.73H1276.01C1272.9 1059.33 1269.83 1057.81 1266.81 1056.24C1265.54 1055.59 1264.3 1054.91 1263.09 1054.22C1211.39 1025.2 1176.44 969.946 1176.44 906.5Z" fill="url(#paint19_linear_0_1)"/>
<path fill-rule="evenodd" clip-rule="evenodd" d="M1349.82 993.4C1360.79 1010.74 1374.95 1025.87 1391.47 1037.95C1399.31 1043.71 1407.67 1048.78 1416.48 1053.08C1425.31 1048.8 1433.67 1043.71 1441.51 1037.95C1458.05 1025.85 1472.21 1010.72 1483.18 993.379C1470.83 998.612 1457.73 1002.44 1444.09 1004.62C1435.88 1012.92 1426.59 1020.19 1416.48 1026.21C1406.39 1020.19 1397.12 1012.92 1388.89 1004.64C1375.27 1002.46 1362.15 998.633 1349.82 993.4Z" fill="url(#paint20_linear_0_1)"/>
<path fill-rule="evenodd" clip-rule="evenodd" d="M1253.46 977.89C1253.46 990.668 1254.93 1003.11 1257.75 1015.07C1260.75 1027.95 1265.31 1040.26 1271.18 1051.8C1282.69 1057.67 1295.01 1062.25 1307.91 1065.25C1319.87 1068.07 1332.33 1069.54 1345.11 1069.54C1366.78 1069.54 1387.5 1065.29 1406.45 1057.56C1397.61 1052.79 1389.24 1047.28 1381.4 1041.08C1369.82 1044.22 1357.66 1045.9 1345.11 1045.9C1325.14 1045.9 1306.15 1041.67 1288.96 1034.07C1281.33 1016.87 1277.12 997.855 1277.12 977.911C1277.12 965.365 1278.81 953.197 1281.92 941.617C1275.72 933.778 1270.21 925.414 1265.46 916.566C1257.71 935.502 1253.46 956.223 1253.46 977.89Z" fill="url(#paint21_linear_0_1)"/>
<path fill-rule="evenodd" clip-rule="evenodd" d="M1269.92 906.5C1274.2 915.306 1279.29 923.67 1285.03 931.509C1297.13 948.048 1312.26 962.213 1329.58 973.183C1324.37 960.826 1320.56 947.733 1318.36 934.115C1310.08 925.876 1302.81 916.588 1296.77 906.5C1302.81 896.391 1310.08 887.124 1318.36 878.885C1320.56 865.267 1324.37 852.174 1329.58 839.838C1312.24 850.808 1297.13 864.973 1285.03 881.491C1279.29 889.309 1274.2 897.694 1269.92 906.5Z" fill="url(#paint22_linear_0_1)"/>
<path fill-rule="evenodd" clip-rule="evenodd" d="M1253.46 835.11C1253.46 856.777 1257.71 877.498 1265.44 896.454C1270.19 887.607 1275.69 879.222 1281.89 871.383C1278.78 859.803 1277.1 847.635 1277.1 835.089C1277.1 815.124 1281.33 796.126 1288.93 778.914C1306.15 771.306 1325.14 767.082 1345.09 767.082C1357.64 767.082 1369.8 768.742 1381.36 771.874C1389.2 765.674 1397.59 760.168 1406.43 755.397C1387.48 747.663 1366.76 743.418 1345.09 743.418C1332.31 743.418 1319.87 744.889 1307.91 747.705C1295.01 750.711 1282.69 755.271 1271.18 761.156C1265.29 772.693 1260.73 785.008 1257.73 797.912C1254.93 809.891 1253.46 822.332 1253.46 835.11Z" fill="url(#paint23_linear_0_1)"/>
<path fill-rule="evenodd" clip-rule="evenodd" d="M1324.56 906.5C1324.56 919.236 1326.03 931.635 1328.82 943.53C1331.87 956.538 1336.47 968.959 1342.46 980.58C1354.08 986.549 1366.5 991.172 1379.51 994.198C1391.41 996.994 1403.79 998.444 1416.5 998.444C1429.21 998.444 1441.61 996.973 1453.51 994.198C1466.52 991.151 1478.94 986.528 1490.58 980.58H1490.6C1496.55 968.959 1501.17 956.517 1504.22 943.509C1506.99 931.614 1508.46 919.236 1508.46 906.5C1508.46 893.786 1506.99 881.407 1504.22 869.512C1501.17 856.504 1496.55 844.104 1490.62 832.483V832.462C1490.6 832.462 1490.6 832.441 1490.6 832.441C1478.98 826.472 1466.58 821.849 1453.55 818.823C1441.66 816.027 1429.26 814.556 1416.52 814.556C1403.81 814.556 1391.41 816.027 1379.51 818.823C1366.5 821.87 1354.13 826.472 1342.5 832.42V832.441C1336.51 844.041 1331.91 856.462 1328.86 869.47C1326.05 881.386 1324.56 893.764 1324.56 906.5ZM1360.2 962.801C1352.53 945.568 1348.26 926.528 1348.26 906.5C1348.26 886.493 1352.53 867.453 1360.2 850.22C1377.43 842.549 1396.47 838.283 1416.5 838.283C1436.53 838.283 1455.57 842.549 1472.8 850.22C1480.47 867.453 1484.74 886.514 1484.74 906.5C1484.74 926.528 1480.47 945.568 1472.8 962.801C1455.57 970.472 1436.51 974.738 1416.5 974.738C1396.47 974.717 1377.43 970.472 1360.2 962.801Z" fill="url(#paint24_linear_0_1)"/>
<path fill-rule="evenodd" clip-rule="evenodd" d="M1349.82 819.6C1362.17 814.367 1375.27 810.542 1388.91 808.357C1397.12 800.056 1406.41 792.805 1416.5 786.816C1426.61 792.826 1435.88 800.098 1444.11 808.378H1444.14C1457.77 810.563 1470.85 814.388 1483.2 819.621C1472.23 802.304 1458.07 787.173 1441.55 775.068C1433.71 769.31 1425.33 764.224 1416.52 759.937C1407.69 764.245 1399.33 769.31 1391.51 775.068C1374.95 787.152 1360.79 802.283 1349.82 819.6Z" fill="url(#paint25_linear_0_1)"/>
<defs>
<linearGradient id="paint0_linear_0_1" x1="481" y1="169.5" x2="481" y2="882.5" gradientUnits="userSpaceOnUse">
<stop stop-color="#2C4E9B" stop-opacity="0.1"/>
<stop offset="1" stop-color="white" stop-opacity="0.1"/>
</linearGradient>
<linearGradient id="paint1_linear_0_1" x1="481" y1="169.5" x2="481" y2="882.5" gradientUnits="userSpaceOnUse">
<stop stop-color="#2C4E9B" stop-opacity="0.1"/>
<stop offset="1" stop-color="white" stop-opacity="0.1"/>
</linearGradient>
<linearGradient id="paint2_linear_0_1" x1="481" y1="169.5" x2="481" y2="882.5" gradientUnits="userSpaceOnUse">
<stop stop-color="#2C4E9B" stop-opacity="0.1"/>
<stop offset="1" stop-color="white" stop-opacity="0.1"/>
</linearGradient>
<linearGradient id="paint3_linear_0_1" x1="481" y1="169.5" x2="481" y2="882.5" gradientUnits="userSpaceOnUse">
<stop stop-color="#2C4E9B" stop-opacity="0.1"/>
<stop offset="1" stop-color="white" stop-opacity="0.1"/>
</linearGradient>
<linearGradient id="paint4_linear_0_1" x1="481" y1="169.5" x2="481" y2="882.5" gradientUnits="userSpaceOnUse">
<stop stop-color="#2C4E9B" stop-opacity="0.1"/>
<stop offset="1" stop-color="white" stop-opacity="0.1"/>
</linearGradient>
<linearGradient id="paint5_linear_0_1" x1="481" y1="169.5" x2="481" y2="882.5" gradientUnits="userSpaceOnUse">
<stop stop-color="#2C4E9B" stop-opacity="0.1"/>
<stop offset="1" stop-color="white" stop-opacity="0.1"/>
</linearGradient>
<linearGradient id="paint6_linear_0_1" x1="481" y1="169.5" x2="481" y2="882.5" gradientUnits="userSpaceOnUse">
<stop stop-color="#2C4E9B" stop-opacity="0.1"/>
<stop offset="1" stop-color="white" stop-opacity="0.1"/>
</linearGradient>
<linearGradient id="paint7_linear_0_1" x1="481" y1="169.5" x2="481" y2="882.5" gradientUnits="userSpaceOnUse">
<stop stop-color="#2C4E9B" stop-opacity="0.1"/>
<stop offset="1" stop-color="white" stop-opacity="0.1"/>
</linearGradient>
<linearGradient id="paint8_linear_0_1" x1="481" y1="169.5" x2="481" y2="882.5" gradientUnits="userSpaceOnUse">
<stop stop-color="#2C4E9B" stop-opacity="0.1"/>
<stop offset="1" stop-color="white" stop-opacity="0.1"/>
</linearGradient>
<linearGradient id="paint9_linear_0_1" x1="481" y1="169.5" x2="481" y2="882.5" gradientUnits="userSpaceOnUse">
<stop stop-color="#2C4E9B" stop-opacity="0.1"/>
<stop offset="1" stop-color="white" stop-opacity="0.1"/>
</linearGradient>
<linearGradient id="paint10_linear_0_1" x1="481" y1="169.5" x2="481" y2="882.5" gradientUnits="userSpaceOnUse">
<stop stop-color="#2C4E9B" stop-opacity="0.1"/>
<stop offset="1" stop-color="white" stop-opacity="0.1"/>
</linearGradient>
<linearGradient id="paint11_linear_0_1" x1="481" y1="169.5" x2="481" y2="882.5" gradientUnits="userSpaceOnUse">
<stop stop-color="#2C4E9B" stop-opacity="0.1"/>
<stop offset="1" stop-color="white" stop-opacity="0.1"/>
</linearGradient>
<linearGradient id="paint12_linear_0_1" x1="481" y1="169.5" x2="481" y2="882.5" gradientUnits="userSpaceOnUse">
<stop stop-color="#2C4E9B" stop-opacity="0.1"/>
<stop offset="1" stop-color="white" stop-opacity="0.1"/>
</linearGradient>
<linearGradient id="paint13_linear_0_1" x1="1416.51" y1="759.937" x2="1417" y2="1099" gradientUnits="userSpaceOnUse">
<stop stop-color="#2C4E9B" stop-opacity="0.1"/>
<stop offset="1" stop-color="white" stop-opacity="0.1"/>
</linearGradient>
<linearGradient id="paint14_linear_0_1" x1="1416.51" y1="759.937" x2="1417" y2="1099" gradientUnits="userSpaceOnUse">
<stop stop-color="#2C4E9B" stop-opacity="0.1"/>
<stop offset="1" stop-color="white" stop-opacity="0.1"/>
</linearGradient>
<linearGradient id="paint15_linear_0_1" x1="1416.51" y1="759.937" x2="1417" y2="1099" gradientUnits="userSpaceOnUse">
<stop stop-color="#2C4E9B" stop-opacity="0.1"/>
<stop offset="1" stop-color="white" stop-opacity="0.1"/>
</linearGradient>
<linearGradient id="paint16_linear_0_1" x1="1416.51" y1="759.937" x2="1417" y2="1099" gradientUnits="userSpaceOnUse">
<stop stop-color="#2C4E9B" stop-opacity="0.1"/>
<stop offset="1" stop-color="white" stop-opacity="0.1"/>
</linearGradient>
<linearGradient id="paint17_linear_0_1" x1="1416.51" y1="759.937" x2="1417" y2="1099" gradientUnits="userSpaceOnUse">
<stop stop-color="#2C4E9B" stop-opacity="0.1"/>
<stop offset="1" stop-color="white" stop-opacity="0.1"/>
</linearGradient>
<linearGradient id="paint18_linear_0_1" x1="1416.51" y1="759.937" x2="1417" y2="1099" gradientUnits="userSpaceOnUse">
<stop stop-color="#2C4E9B" stop-opacity="0.1"/>
<stop offset="1" stop-color="white" stop-opacity="0.1"/>
</linearGradient>
<linearGradient id="paint19_linear_0_1" x1="1416.51" y1="759.937" x2="1417" y2="1099" gradientUnits="userSpaceOnUse">
<stop stop-color="#2C4E9B" stop-opacity="0.1"/>
<stop offset="1" stop-color="white" stop-opacity="0.1"/>
</linearGradient>
<linearGradient id="paint20_linear_0_1" x1="1416.51" y1="759.937" x2="1417" y2="1099" gradientUnits="userSpaceOnUse">
<stop stop-color="#2C4E9B" stop-opacity="0.1"/>
<stop offset="1" stop-color="white" stop-opacity="0.1"/>
</linearGradient>
<linearGradient id="paint21_linear_0_1" x1="1416.51" y1="759.937" x2="1417" y2="1099" gradientUnits="userSpaceOnUse">
<stop stop-color="#2C4E9B" stop-opacity="0.1"/>
<stop offset="1" stop-color="white" stop-opacity="0.1"/>
</linearGradient>
<linearGradient id="paint22_linear_0_1" x1="1416.51" y1="759.937" x2="1417" y2="1099" gradientUnits="userSpaceOnUse">
<stop stop-color="#2C4E9B" stop-opacity="0.1"/>
<stop offset="1" stop-color="white" stop-opacity="0.1"/>
</linearGradient>
<linearGradient id="paint23_linear_0_1" x1="1416.51" y1="759.937" x2="1417" y2="1099" gradientUnits="userSpaceOnUse">
<stop stop-color="#2C4E9B" stop-opacity="0.1"/>
<stop offset="1" stop-color="white" stop-opacity="0.1"/>
</linearGradient>
<linearGradient id="paint24_linear_0_1" x1="1416.51" y1="759.937" x2="1417" y2="1099" gradientUnits="userSpaceOnUse">
<stop stop-color="#2C4E9B" stop-opacity="0.1"/>
<stop offset="1" stop-color="white" stop-opacity="0.1"/>
</linearGradient>
<linearGradient id="paint25_linear_0_1" x1="1416.51" y1="759.937" x2="1417" y2="1099" gradientUnits="userSpaceOnUse">
<stop stop-color="#2C4E9B" stop-opacity="0.1"/>
<stop offset="1" stop-color="white" stop-opacity="0.1"/>
</linearGradient>
</defs>
</svg>
