<svg width="522" height="547" viewBox="0 0 522 547" fill="none" xmlns="http://www.w3.org/2000/svg">
<path fill-rule="evenodd" clip-rule="evenodd" d="M534.489 282.068C515.902 263.481 494.218 249.872 471.1 241.242C470.098 240.856 469.05 240.487 468.018 240.132C465.398 239.207 462.747 238.344 460.096 237.543C450.124 234.538 439.953 232.442 429.657 231.239C405.26 228.357 380.355 230.546 356.682 237.82C355.28 238.236 353.862 238.668 352.49 239.177C348.899 240.332 345.355 241.658 341.856 243.091C328.956 248.316 316.55 255.112 304.945 263.512C297.285 269.014 289.98 275.24 283.091 282.129C276.186 289.034 269.991 296.339 264.473 304.014C256.074 315.619 249.277 328.026 244.037 340.941L244.022 340.956C242.604 344.439 241.294 347.969 240.138 351.529C239.66 352.931 239.229 354.318 238.782 355.721C231.554 379.378 229.35 404.268 232.216 428.681C233.418 438.976 235.514 449.148 238.504 459.134C239.306 461.785 240.169 464.436 241.093 467.056C241.448 468.12 241.818 469.137 242.219 470.154C250.849 493.272 264.458 514.956 283.045 533.543C290.134 540.632 297.655 546.982 305.546 552.623C317.182 560.93 329.557 567.665 342.426 572.828C345.74 574.169 349.069 575.371 352.444 576.496C353.831 576.989 355.249 577.42 356.652 577.867C417.528 596.392 486.388 581.628 534.504 533.512C582.635 485.381 597.4 416.521 578.783 355.675C578.351 354.257 577.904 352.854 577.411 351.467C576.317 348.092 575.084 344.763 573.743 341.45C568.595 328.565 561.845 316.174 553.538 304.569L553.523 304.554C547.913 296.663 541.563 289.142 534.489 282.068ZM532.747 283.809C540.546 291.608 547.435 299.945 553.461 308.715C561.46 320.351 567.886 332.757 572.756 345.611C574.005 348.924 575.176 352.284 576.193 355.675C576.656 357.062 577.072 358.464 577.442 359.882C594.179 419.002 579.245 485.196 532.717 531.724C486.204 578.237 420.01 593.141 360.905 576.419C359.503 576.033 358.1 575.617 356.713 575.186C353.323 574.138 349.963 572.997 346.665 571.733C333.827 566.879 321.435 560.467 309.799 552.469C301.015 546.458 292.646 539.538 284.832 531.724C267.047 513.939 253.885 493.287 245.347 471.217C244.946 470.2 244.561 469.168 244.191 468.15C243.236 465.561 242.342 462.941 241.54 460.321C238.443 450.442 236.239 440.347 234.944 430.145C231.923 406.688 233.665 382.753 240.169 359.882C240.539 358.464 240.955 357.062 241.402 355.659C242.496 352.099 243.713 348.57 245.054 345.071C249.971 332.172 256.459 319.765 264.566 308.114L264.581 308.098C270.484 299.545 277.25 291.423 284.863 283.809C292.461 276.211 300.599 269.461 309.121 263.527C320.773 255.451 333.195 248.948 346.079 244.016C349.593 242.66 353.122 241.442 356.698 240.363C358.1 239.916 359.503 239.5 360.905 239.115C383.792 232.626 407.726 230.885 431.183 233.906C441.386 235.2 451.481 237.404 461.36 240.502C464.01 241.303 466.63 242.197 469.22 243.153C470.237 243.523 471.269 243.908 472.256 244.309L472.271 244.324C494.31 252.862 514.962 266.024 532.747 283.809Z" fill="url(#paint0_linear_1569_44376)"/>
<path fill-rule="evenodd" clip-rule="evenodd" d="M430.278 177.853C423.203 170.779 415.682 164.429 407.792 158.788C396.186 150.481 383.811 143.746 370.942 138.583C367.628 137.242 364.284 136.025 360.909 134.9C359.506 134.422 358.088 133.96 356.64 133.528L356.624 133.544C295.794 114.911 226.934 129.675 178.802 177.806C130.671 225.938 115.907 294.798 134.524 355.644L134.509 355.659C134.94 357.108 135.387 358.51 135.896 359.913C136.99 363.288 138.238 366.632 139.579 369.946L139.564 369.961C144.711 382.815 151.462 395.206 159.769 406.811C165.394 414.687 171.759 422.223 178.833 429.297C197.404 447.868 219.089 461.477 242.207 470.108C243.224 470.508 244.272 470.878 245.304 471.233C247.909 472.173 250.56 473.036 253.226 473.822C263.198 476.827 273.4 478.923 283.695 480.125C308.077 482.992 332.967 480.788 356.624 473.56L356.64 473.575C358.058 473.144 359.46 472.697 360.847 472.204L360.863 472.219C364.423 471.032 367.967 469.738 371.466 468.304C384.35 463.064 396.741 456.283 408.362 447.899L408.377 447.884C416.052 442.366 423.358 436.171 430.262 429.266C437.151 422.377 443.362 415.056 448.88 407.412C457.279 395.807 464.076 383.401 469.3 370.501C470.734 367.002 472.044 363.473 473.23 359.882L473.215 359.867C473.708 358.48 474.155 357.077 474.571 355.675C481.815 332.002 484.003 307.096 481.137 282.715C479.934 272.42 477.823 262.233 474.818 252.261C474.032 249.595 473.169 246.944 472.229 244.339L472.213 244.324C471.859 243.291 471.489 242.243 471.103 241.242C462.473 218.124 448.864 196.439 430.278 177.853ZM403.615 158.896C412.384 164.922 420.722 171.811 428.521 179.61C446.306 197.395 459.468 218.047 468.006 240.117C468.391 241.118 468.807 242.151 469.162 243.153C470.117 245.742 471.011 248.362 471.828 250.997L471.843 251.013C474.941 260.892 477.145 270.987 478.424 281.205C481.445 304.661 479.703 328.596 473.2 351.467L473.215 351.483C472.83 352.885 472.414 354.288 471.967 355.659L471.982 355.675C470.888 359.235 469.639 362.795 468.314 366.309C463.382 379.193 456.894 391.6 448.818 403.251L448.833 403.266C442.915 411.805 436.149 419.927 428.536 427.54C420.923 435.154 412.785 441.904 404.247 447.822L404.231 447.838C392.58 455.913 380.174 462.402 367.289 467.333C363.791 468.674 360.261 469.892 356.686 471.002L356.67 470.986C355.283 471.448 353.866 471.849 352.463 472.234C329.592 478.707 305.657 480.449 282.216 477.444C272.029 476.134 261.918 473.945 252.039 470.847C249.404 470.031 246.784 469.137 244.195 468.181C243.178 467.811 242.145 467.426 241.128 467.025C219.089 458.487 198.422 445.341 180.636 427.556C172.823 419.742 165.903 411.373 159.892 402.588C151.909 390.968 145.482 378.592 140.627 365.754C139.379 362.44 138.223 359.096 137.175 355.705C136.728 354.303 136.296 352.885 135.896 351.467L135.911 351.452C119.189 292.347 134.093 226.153 180.606 179.64C227.134 133.112 293.328 118.209 352.448 134.946L352.463 134.931C353.881 135.331 355.314 135.748 356.717 136.194C360.107 137.242 363.452 138.398 366.765 139.647C379.619 144.486 391.994 150.913 403.615 158.896Z" fill="url(#paint1_linear_1569_44376)"/>
<path fill-rule="evenodd" clip-rule="evenodd" d="M430.262 282.083C423.373 275.194 416.037 268.968 408.377 263.466C396.788 255.082 384.381 248.285 371.497 243.045C367.983 241.627 364.438 240.332 360.863 239.13C359.476 238.668 358.089 238.206 356.671 237.805C333.014 230.546 308.108 228.357 283.711 231.239C273.416 232.442 263.244 234.538 253.257 237.527C250.591 238.313 247.956 239.192 245.335 240.117C244.287 240.456 243.255 240.841 242.238 241.242C219.12 249.872 197.435 263.481 178.864 282.052C171.775 289.142 165.44 296.647 159.784 304.554L159.769 304.569C151.493 316.174 144.758 328.55 139.595 341.419C138.254 344.732 137.052 348.061 135.911 351.452L135.896 351.467C135.418 352.87 134.971 354.272 134.54 355.69L134.524 355.706C115.922 416.567 130.702 485.443 178.818 533.558C226.949 581.69 295.794 596.439 356.655 577.837C358.104 577.405 359.507 576.958 360.894 576.465C364.269 575.371 367.613 574.122 370.927 572.781C383.811 567.634 396.171 560.883 407.776 552.607C415.667 546.967 423.204 540.602 430.278 533.527C448.849 514.956 462.458 493.272 471.088 470.154C471.474 469.121 471.859 468.089 472.213 467.087C473.138 464.467 473.986 461.801 474.787 459.15C477.777 449.163 479.888 438.976 481.091 428.681C483.973 404.284 481.769 379.394 474.525 355.721C474.109 354.318 473.662 352.916 473.184 351.544L473.169 351.529C471.982 347.938 470.703 344.409 469.27 340.91L469.254 340.895C464.014 328.01 457.218 315.635 448.849 304.03C443.362 296.293 437.167 288.988 430.262 282.083ZM404.232 263.543C412.785 269.445 420.923 276.227 428.521 283.825C436.119 291.423 442.885 299.576 448.803 308.114L448.818 308.129C456.894 319.78 463.382 332.156 468.299 345.056C469.64 348.585 470.873 352.099 471.951 355.675L471.967 355.69C472.398 357.077 472.799 358.464 473.2 359.882L473.215 359.898C479.704 382.784 481.43 406.703 478.44 430.16C477.145 440.363 474.941 450.458 471.843 460.337C471.027 462.972 470.133 465.592 469.177 468.181C468.807 469.198 468.422 470.231 468.021 471.217C459.483 493.287 446.321 513.939 428.536 531.724C420.738 539.523 412.385 546.427 403.6 552.438C391.995 560.437 379.619 566.863 366.765 571.703C363.452 572.951 360.077 574.107 356.717 575.155C355.299 575.586 353.881 576.018 352.448 576.403C293.328 593.14 227.134 578.237 180.606 531.709C134.077 485.18 119.174 419.017 135.911 359.898C136.312 358.48 136.728 357.046 137.175 355.644C138.192 352.253 139.348 348.909 140.627 345.595C145.482 332.757 151.909 320.382 159.892 308.761C165.918 299.961 172.838 291.592 180.637 283.794C198.422 266.009 219.074 252.847 241.128 244.324C242.145 243.923 243.178 243.538 244.195 243.168C246.784 242.213 249.389 241.334 252.024 240.517C261.888 237.404 271.998 235.216 282.185 233.906C305.642 230.885 329.607 232.626 352.479 239.13C353.881 239.516 355.284 239.932 356.655 240.379C360.215 241.473 363.776 242.69 367.274 244.031C380.158 248.963 392.58 255.467 404.232 263.543Z" fill="url(#paint2_linear_1569_44376)"/>
<path fill-rule="evenodd" clip-rule="evenodd" d="M244.04 370.47C239.37 391.23 238.661 412.714 241.929 433.705C243.439 443.661 245.859 453.54 249.172 463.142C258.789 466.471 268.653 468.875 278.609 470.416C299.6 473.652 321.099 472.959 341.828 468.289C328.929 463.064 316.522 456.268 304.917 447.868C292.788 447.915 280.674 446.435 268.884 443.43C265.894 431.624 264.43 419.495 264.476 407.397C256.077 395.792 249.28 383.385 244.04 370.47Z" fill="url(#paint3_linear_1569_44376)"/>
<path fill-rule="evenodd" clip-rule="evenodd" d="M460.098 473.807C450.111 476.827 439.924 478.939 429.629 480.11C423.433 490.898 415.742 501.024 406.542 510.225C391.9 524.866 374.87 535.701 356.669 542.744C338.467 535.701 321.437 524.866 306.796 510.225C297.595 501.024 289.92 490.883 283.709 480.11C273.414 478.908 263.227 476.796 253.24 473.807C261.485 493.364 273.553 511.658 289.442 527.548C298.828 536.933 309.031 544.978 319.865 551.683C331.548 558.926 343.908 564.629 356.7 568.759C369.461 564.629 381.806 558.942 393.457 551.698C404.276 544.978 414.51 536.933 423.88 527.563C439.785 511.689 451.868 493.38 460.098 473.807Z" fill="url(#paint4_linear_1569_44376)"/>
<path fill-rule="evenodd" clip-rule="evenodd" d="M238.524 252.261C218.951 260.491 200.657 272.559 184.767 288.448C175.381 297.834 167.321 308.052 160.632 318.871C153.389 330.523 147.702 342.898 143.571 355.659C147.702 368.42 153.404 380.781 160.632 392.447C167.352 403.267 175.381 413.485 184.767 422.87C200.657 438.76 218.951 450.827 238.524 459.057C235.534 449.071 233.438 438.899 232.236 428.604C221.463 422.393 211.306 414.702 202.121 405.517C187.48 390.875 176.645 373.845 169.617 355.659C176.63 337.458 187.495 320.428 202.136 305.787C211.337 296.586 221.478 288.911 232.267 282.715C233.438 272.42 235.534 262.248 238.524 252.261Z" fill="url(#paint5_linear_1569_44376)"/>
<path fill-rule="evenodd" clip-rule="evenodd" d="M534.504 177.837C486.388 129.721 417.528 114.957 356.651 133.544L356.636 133.559C355.218 133.991 353.831 134.422 352.444 134.915L352.429 134.931C349.069 136.04 345.724 137.258 342.411 138.599C329.527 143.746 317.151 150.481 305.53 158.804L305.515 158.819C297.64 164.444 290.118 170.794 283.029 177.883C264.458 196.455 250.849 218.139 242.218 241.257C241.818 242.274 241.448 243.322 241.093 244.355C240.169 246.975 239.29 249.61 238.489 252.292C235.484 262.263 233.403 272.451 232.201 282.746C229.319 307.143 231.523 332.033 238.766 355.705C239.198 357.123 239.645 358.526 240.122 359.897C241.294 363.473 242.588 366.987 244.022 370.485L244.037 370.501C249.262 383.401 256.074 395.822 264.473 407.428C269.975 415.087 276.186 422.408 283.075 429.297C289.964 436.186 297.27 442.382 304.914 447.899C316.534 456.283 328.941 463.111 341.825 468.32C345.324 469.753 348.838 471.048 352.429 472.234C353.816 472.697 355.218 473.144 356.605 473.575L356.621 473.591C380.293 480.834 405.199 483.023 429.58 480.156C439.876 478.954 450.063 476.843 460.05 473.853C462.7 473.051 465.367 472.204 467.971 471.264C469.004 470.909 470.052 470.539 471.054 470.154C494.171 461.523 515.856 447.915 534.427 429.343C541.517 422.254 547.866 414.733 553.507 406.842C561.814 395.206 568.549 382.83 573.712 369.961C575.053 366.648 576.27 363.334 577.38 359.944C577.858 358.572 578.305 357.139 578.752 355.736C597.4 294.829 582.635 225.968 534.504 177.837ZM532.716 179.625C579.245 226.153 594.148 292.347 577.411 351.467C577.041 352.885 576.625 354.288 576.163 355.675C575.145 359.065 573.989 362.41 572.726 365.739C567.856 378.592 561.429 390.999 553.43 402.635C547.404 411.404 540.515 419.742 532.717 427.54C514.931 445.325 494.279 458.487 472.21 467.025C471.208 467.411 470.175 467.796 469.158 468.166C466.553 469.137 463.949 470.015 461.298 470.817C451.419 473.914 441.324 476.118 431.106 477.397C407.665 480.403 383.73 478.661 360.859 472.188L360.844 472.173C359.426 471.803 358.039 471.371 356.652 470.94L356.636 470.924C353.076 469.83 349.516 468.613 346.017 467.272L346.002 467.256C333.102 462.34 320.68 455.836 309.029 447.76C300.491 441.842 292.353 435.092 284.755 427.494C277.142 419.88 270.391 411.743 264.473 403.205C256.382 391.538 249.878 379.116 244.962 366.216C243.621 362.718 242.403 359.189 241.309 355.598C240.862 354.226 240.462 352.839 240.061 351.421C233.572 328.534 231.831 304.6 234.836 281.127C236.146 270.94 238.35 260.845 241.448 250.966C242.265 248.331 243.159 245.711 244.114 243.122C244.469 242.089 244.869 241.072 245.27 240.055C253.808 218.016 266.955 197.349 284.74 179.563C292.554 171.75 300.922 164.83 309.707 158.819C321.343 150.82 333.734 144.409 346.572 139.554L346.588 139.539C349.901 138.29 353.261 137.15 356.636 136.087C358.039 135.64 359.441 135.224 360.844 134.838C420.04 118.209 486.188 133.097 532.716 179.625Z" fill="url(#paint6_linear_1569_44376)"/>
<path fill-rule="evenodd" clip-rule="evenodd" d="M341.844 243.045C321.084 238.375 299.6 237.666 278.625 240.918C268.653 242.444 258.805 244.863 249.188 248.162C245.859 257.779 243.455 267.642 241.929 277.614C238.677 298.62 239.386 320.104 244.056 340.864C249.28 327.964 256.077 315.558 264.476 303.953C264.415 291.839 265.894 279.694 268.9 267.873C280.705 264.883 292.834 263.419 304.948 263.45C316.538 255.066 328.96 248.254 341.844 243.045Z" fill="url(#paint7_linear_1569_44376)"/>
<path fill-rule="evenodd" clip-rule="evenodd" d="M423.88 183.756C414.509 174.385 404.307 166.34 393.472 159.636C381.821 152.392 369.445 146.705 356.684 142.544C343.939 146.69 331.547 152.362 319.881 159.621C309.046 166.325 298.828 174.385 289.458 183.756C273.568 199.645 261.485 217.954 253.255 237.527C263.242 234.538 273.414 232.442 283.709 231.239C289.905 220.451 297.595 210.295 306.796 201.094C321.437 186.453 338.467 175.618 356.653 168.59C374.855 175.603 391.885 186.468 406.511 201.094C415.712 210.295 423.402 220.451 429.613 231.224C439.908 232.426 450.08 234.522 460.051 237.527C451.852 217.954 439.769 199.645 423.88 183.756Z" fill="url(#paint8_linear_1569_44376)"/>
<path fill-rule="evenodd" clip-rule="evenodd" d="M464.168 248.177C454.567 244.863 444.703 242.459 434.747 240.918C413.741 237.666 392.257 238.375 371.512 243.029C384.397 248.269 396.788 255.081 408.393 263.45C420.507 263.419 432.651 264.899 444.472 267.873C447.462 279.71 448.926 291.839 448.895 303.952C457.264 315.558 464.076 327.949 469.3 340.818C473.97 320.058 474.664 298.589 471.427 277.598C469.902 267.658 467.482 257.779 464.168 248.177Z" fill="url(#paint9_linear_1569_44376)"/>
<path fill-rule="evenodd" clip-rule="evenodd" d="M528.586 288.464C512.697 272.574 494.387 260.491 474.814 252.261C477.82 262.233 479.931 272.42 481.133 282.715C491.906 288.926 502.062 296.616 511.263 305.817C525.905 320.459 536.739 337.489 543.782 355.69C536.739 373.891 525.905 390.922 511.279 405.547C502.078 414.748 491.937 422.454 481.164 428.634C479.962 438.929 477.85 449.117 474.861 459.104C494.434 450.874 512.743 438.791 528.632 422.901C538.003 413.531 546.048 403.328 552.752 392.494C560.011 380.827 565.698 368.451 569.828 355.69C565.683 342.914 559.996 330.538 552.737 318.871C546.002 308.037 537.957 297.834 528.586 288.464Z" fill="url(#paint10_linear_1569_44376)"/>
<path fill-rule="evenodd" clip-rule="evenodd" d="M424.097 288.248C414.757 278.908 404.585 270.894 393.812 264.221C382.038 256.916 369.554 251.182 356.639 247.052C343.739 251.198 331.24 256.916 319.481 264.236C308.708 270.91 298.567 278.924 289.243 288.248C279.919 297.572 271.905 307.744 265.216 318.501C257.911 330.276 252.193 342.775 248.016 355.675L248.001 355.69C252.162 368.574 257.895 381.089 265.2 392.863C271.889 403.621 279.888 413.777 289.227 423.117C298.552 432.441 308.708 440.44 319.466 447.129C331.24 454.434 343.724 460.136 356.593 464.313L356.608 464.328C356.623 464.313 356.639 464.328 356.639 464.328C369.539 460.182 382.022 454.48 393.797 447.144C404.57 440.471 414.742 432.457 424.081 423.117C433.405 413.793 441.42 403.621 448.093 392.848C455.398 381.073 461.1 368.621 465.262 355.736L465.246 355.721C461.131 342.821 455.398 330.338 448.093 318.563C441.42 307.759 433.436 297.587 424.097 288.248ZM356.67 273.098C374.933 280.11 392.025 290.945 406.712 305.632C421.384 320.304 432.219 337.396 439.231 355.659C432.219 373.922 421.384 391.014 406.697 405.702C392.009 420.389 374.917 431.224 356.654 438.236C338.391 431.224 321.284 420.374 306.627 405.717C291.94 391.029 281.105 373.938 274.093 355.675C281.105 337.412 291.955 320.304 306.627 305.632C321.33 290.96 338.407 280.11 356.67 273.098Z" fill="url(#paint11_linear_1569_44376)"/>
<path fill-rule="evenodd" clip-rule="evenodd" d="M469.3 370.501C464.076 383.401 457.279 395.807 448.88 407.412C448.941 419.526 447.446 431.655 444.441 443.445C432.62 446.45 420.491 447.915 408.377 447.884L408.362 447.899C396.757 456.299 384.366 463.08 371.466 468.304C392.21 472.959 413.694 473.668 434.685 470.431C444.657 468.906 454.536 466.486 464.137 463.172C467.451 453.54 469.871 443.692 471.381 433.736C474.664 412.729 473.955 391.245 469.3 370.501Z" fill="url(#paint12_linear_1569_44376)"/>
<defs>
<linearGradient id="paint0_linear_1569_44376" x1="534.489" y1="533.527" x2="283.091" y2="282.129" gradientUnits="userSpaceOnUse">
<stop stop-color="#2C4E9B" stop-opacity="0.05"/>
<stop offset="0.6875" stop-color="white" stop-opacity="0.05"/>
</linearGradient>
<linearGradient id="paint1_linear_1569_44376" x1="430.254" y1="429.274" x2="178.795" y2="177.814" gradientUnits="userSpaceOnUse">
<stop stop-color="#2C4E9B" stop-opacity="0.05"/>
<stop offset="0.6875" stop-color="white" stop-opacity="0.05"/>
</linearGradient>
<linearGradient id="paint2_linear_1569_44376" x1="430.262" y1="533.543" x2="178.818" y2="282.099" gradientUnits="userSpaceOnUse">
<stop stop-color="#2C4E9B" stop-opacity="0.05"/>
<stop offset="0.6875" stop-color="white" stop-opacity="0.05"/>
</linearGradient>
<linearGradient id="paint3_linear_1569_44376" x1="319.959" y1="490.159" x2="222.155" y2="392.355" gradientUnits="userSpaceOnUse">
<stop stop-color="#2C4E9B" stop-opacity="0.05"/>
<stop offset="0.6875" stop-color="white" stop-opacity="0.05"/>
</linearGradient>
<linearGradient id="paint4_linear_1569_44376" x1="412.768" y1="538.675" x2="300.57" y2="426.477" gradientUnits="userSpaceOnUse">
<stop stop-color="#2C4E9B" stop-opacity="0.05"/>
<stop offset="0.6875" stop-color="white" stop-opacity="0.05"/>
</linearGradient>
<linearGradient id="paint5_linear_1569_44376" x1="285.83" y1="411.751" x2="173.648" y2="299.568" gradientUnits="userSpaceOnUse">
<stop stop-color="#2C4E9B" stop-opacity="0.05"/>
<stop offset="0.6875" stop-color="white" stop-opacity="0.05"/>
</linearGradient>
<linearGradient id="paint6_linear_1569_44376" x1="534.497" y1="429.274" x2="283.068" y2="177.845" gradientUnits="userSpaceOnUse">
<stop stop-color="#2C4E9B" stop-opacity="0.05"/>
<stop offset="0.6875" stop-color="white" stop-opacity="0.05"/>
</linearGradient>
<linearGradient id="paint7_linear_1569_44376" x1="292.958" y1="291.962" x2="249.173" y2="248.177" gradientUnits="userSpaceOnUse">
<stop stop-color="#2C4E9B" stop-opacity="0.05"/>
<stop offset="0.6875" stop-color="white" stop-opacity="0.05"/>
</linearGradient>
<linearGradient id="paint8_linear_1569_44376" x1="412.752" y1="284.826" x2="300.57" y2="172.644" gradientUnits="userSpaceOnUse">
<stop stop-color="#2C4E9B" stop-opacity="0.05"/>
<stop offset="0.6875" stop-color="white" stop-opacity="0.05"/>
</linearGradient>
<linearGradient id="paint9_linear_1569_44376" x1="491.178" y1="318.94" x2="393.389" y2="221.152" gradientUnits="userSpaceOnUse">
<stop stop-color="#2C4E9B" stop-opacity="0.05"/>
<stop offset="0.6875" stop-color="white" stop-opacity="0.05"/>
</linearGradient>
<linearGradient id="paint10_linear_1569_44376" x1="539.737" y1="411.797" x2="427.508" y2="299.568" gradientUnits="userSpaceOnUse">
<stop stop-color="#2C4E9B" stop-opacity="0.05"/>
<stop offset="0.6875" stop-color="white" stop-opacity="0.05"/>
</linearGradient>
<linearGradient id="paint11_linear_1569_44376" x1="424.089" y1="423.109" x2="289.235" y2="288.256" gradientUnits="userSpaceOnUse">
<stop stop-color="#2C4E9B" stop-opacity="0.05"/>
<stop offset="0.6875" stop-color="white" stop-opacity="0.05"/>
</linearGradient>
<linearGradient id="paint12_linear_1569_44376" x1="464.145" y1="463.165" x2="420.376" y2="419.395" gradientUnits="userSpaceOnUse">
<stop stop-color="#2C4E9B" stop-opacity="0.05"/>
<stop offset="0.6875" stop-color="white" stop-opacity="0.05"/>
</linearGradient>
</defs>
</svg>
