<svg width="1610" height="680" viewBox="0 0 1610 680" fill="none" xmlns="http://www.w3.org/2000/svg">
<path fill-rule="evenodd" clip-rule="evenodd" d="M1051.36 370.396C1071.59 398.474 1096.88 420.751 1125.07 436.871C1126.29 437.584 1127.58 438.287 1128.84 438.967C1132.05 440.725 1135.31 442.409 1138.58 444.013C1150.89 450.035 1163.64 454.919 1176.75 458.67C1207.8 467.601 1240.57 470.058 1272.8 465.652C1274.7 465.411 1276.63 465.152 1278.52 464.784C1283.42 464.047 1288.29 463.081 1293.13 461.965C1310.96 457.928 1328.47 451.746 1345.28 443.312C1356.37 437.8 1367.14 431.273 1377.52 423.796C1387.92 416.303 1397.48 408.14 1406.24 399.351C1419.56 386.075 1430.97 371.418 1440.47 355.769L1440.49 355.753C1443.06 351.533 1445.49 347.231 1447.74 342.856C1448.65 341.137 1449.5 339.429 1450.37 337.703C1464.69 308.535 1472.74 276.697 1474.12 244.401C1474.71 230.783 1474.12 217.134 1472.32 203.536C1471.84 199.925 1471.27 196.3 1470.62 192.703C1470.38 191.247 1470.11 189.848 1469.81 188.443C1463.44 156.601 1450.31 125.56 1430.08 97.4813C1422.36 86.7713 1413.93 76.9298 1404.87 67.9296C1391.51 54.6721 1376.86 43.2976 1361.24 33.8586C1357.22 31.4134 1353.16 29.1449 1349.01 26.9666C1347.32 26.0314 1345.57 25.1697 1343.84 24.2912C1268.73 -12.7042 1176.32 -8.18922 1103.85 44.0273C1031.35 96.2606 997.822 182.497 1009.27 265.434C1009.53 267.366 1009.82 269.281 1010.17 271.187C1010.89 275.8 1011.79 280.383 1012.84 284.97C1016.82 302.788 1022.99 320.307 1031.35 337.137L1031.37 337.161C1037 348.596 1043.66 359.709 1051.36 370.396ZM1053.99 368.506C1045.5 356.725 1038.3 344.437 1032.31 331.773C1024.37 314.968 1018.62 297.498 1014.99 279.778C1014.06 275.212 1013.24 270.602 1012.63 265.985C1012.32 264.086 1012.07 262.177 1011.89 260.258C1002.52 179.962 1035.71 97.222 1105.79 46.7281C1175.85 -3.749 1264.83 -9.01117 1338.02 25.2667C1339.76 26.0651 1341.49 26.9036 1343.2 27.7588C1347.38 29.8404 1351.5 32.0354 1355.52 34.3773C1371.16 43.4097 1385.89 54.3673 1399.32 67.2248C1409.46 76.8951 1418.87 87.6572 1427.38 99.4615C1446.74 126.33 1459.5 155.935 1465.97 186.397C1466.28 187.802 1466.56 189.225 1466.83 190.624C1467.53 194.188 1468.14 197.778 1468.63 201.35C1470.59 214.831 1471.34 228.403 1470.89 241.921C1469.91 273.009 1462.65 303.705 1449.44 332.007C1448.66 333.769 1447.83 335.501 1446.96 337.226C1444.8 341.614 1442.48 345.936 1440.01 350.192C1430.94 365.889 1419.93 380.612 1406.98 394.011L1406.96 394.027C1397.51 403.874 1387.04 412.977 1375.57 421.239C1364.13 429.485 1352.16 436.515 1339.87 442.404C1323.06 450.407 1305.59 456.206 1287.85 459.867C1283 460.879 1278.17 461.709 1273.31 462.348C1271.39 462.63 1269.49 462.872 1267.59 463.074C1236.54 466.627 1205.13 463.795 1175.33 454.885C1162.36 451.034 1149.73 446.026 1137.56 439.903C1134.28 438.299 1131.07 436.582 1127.91 434.791C1126.67 434.094 1125.41 433.374 1124.21 432.644L1124.2 432.621C1097.39 416.85 1073.35 395.374 1053.99 368.506Z" fill="url(#paint0_linear_6_32)" fill-opacity="0.75"/>
<path fill-rule="evenodd" clip-rule="evenodd" d="M1164.8 527.832C1172.5 538.519 1180.93 548.361 1189.99 557.361C1203.31 570.612 1217.96 581.986 1233.58 591.425C1237.6 593.871 1241.68 596.162 1245.83 598.341C1247.55 599.259 1249.29 600.161 1251.08 601.029L1251.1 601.012C1326.13 638.138 1418.55 633.623 1491.04 581.39C1563.53 529.156 1597.06 442.92 1585.61 359.983L1585.64 359.967C1585.38 357.994 1585.09 356.079 1584.73 354.15C1584.01 349.537 1583.09 344.93 1582.04 340.344L1582.07 340.327C1578.07 322.549 1571.9 305.03 1563.55 288.2C1557.89 276.781 1551.21 265.645 1543.51 254.958C1523.3 226.903 1498.01 204.626 1469.82 188.506C1468.58 187.77 1467.3 187.066 1466.03 186.387C1462.85 184.612 1459.59 182.928 1456.3 181.341C1443.99 175.319 1431.19 170.428 1418.08 166.677C1387.05 157.77 1354.3 155.335 1322.1 159.685L1322.08 159.661C1320.15 159.92 1318.24 160.202 1316.34 160.547L1316.32 160.523C1311.46 161.306 1306.59 162.233 1301.75 163.349C1283.94 167.409 1266.45 173.575 1249.62 181.985L1249.6 182.002C1238.49 187.53 1227.72 194.018 1217.32 201.511C1206.94 208.987 1197.36 217.168 1188.6 225.916C1175.28 239.192 1163.88 253.849 1154.4 269.481C1151.81 273.717 1149.38 278.019 1147.09 282.428L1147.1 282.451C1146.18 284.147 1145.3 285.872 1144.47 287.604C1130.13 316.789 1122.09 348.65 1120.72 380.906C1120.13 394.524 1120.74 408.196 1122.56 421.778C1123.02 425.406 1123.59 429.03 1124.26 432.611L1124.28 432.634C1124.52 434.05 1124.78 435.489 1125.07 436.871C1131.44 468.713 1144.57 499.754 1164.8 527.832ZM1195.43 558.109C1185.32 548.422 1175.94 537.707 1167.45 525.926C1148.09 499.058 1135.33 469.452 1128.86 438.99C1128.57 437.608 1128.24 436.179 1127.99 434.804C1127.29 431.24 1126.68 427.649 1126.17 424.054L1126.15 424.031C1124.2 410.55 1123.45 396.978 1123.92 383.443C1124.9 352.355 1132.16 321.659 1145.37 293.357L1145.35 293.333C1146.15 291.595 1146.98 289.863 1147.85 288.178L1147.83 288.155C1149.99 283.766 1152.35 279.411 1154.81 275.132C1163.9 259.458 1174.9 244.735 1187.81 231.33L1187.8 231.307C1197.26 221.484 1207.73 212.381 1219.2 204.118C1230.67 195.856 1242.63 188.825 1254.94 182.96L1254.97 182.944C1271.77 174.94 1289.22 169.158 1306.96 165.497C1311.78 164.501 1316.62 163.672 1321.49 162.992L1321.5 163.015C1323.4 162.71 1325.32 162.492 1327.22 162.29C1358.25 158.754 1389.66 161.585 1419.44 170.473C1432.39 174.34 1445.05 179.332 1457.21 185.454C1460.46 187.075 1463.68 188.793 1466.83 190.584C1468.08 191.28 1469.34 192 1470.57 192.736C1497.38 208.507 1521.45 229.967 1540.81 256.835C1549.31 268.639 1556.54 280.974 1562.51 293.655C1570.44 310.436 1576.19 327.866 1579.81 345.562C1580.74 350.129 1581.54 354.716 1582.19 359.339C1582.48 361.255 1582.74 363.187 1582.96 365.113L1582.94 365.129C1592.29 445.402 1559.14 528.149 1489.08 578.626C1419 629.119 1330.02 634.382 1256.81 600.081L1256.79 600.097C1255.03 599.276 1253.26 598.431 1251.54 597.552C1247.36 595.471 1243.26 593.259 1239.22 590.934C1223.56 581.918 1208.84 570.943 1195.43 558.109Z" fill="url(#paint1_linear_6_32)" fill-opacity="0.75"/>
<path fill-rule="evenodd" clip-rule="evenodd" d="M1186.59 392.549C1194.09 402.956 1202.3 412.598 1211.09 421.369C1224.38 434.717 1239.05 446.178 1254.67 455.72C1258.94 458.308 1263.26 460.743 1267.65 463.064C1269.35 463.959 1271.06 464.854 1272.81 465.676C1301.99 480.13 1333.84 488.269 1366.09 489.718C1379.7 490.348 1393.34 489.792 1406.92 488.035C1410.54 487.582 1414.14 487.003 1417.73 486.36C1419.16 486.143 1420.58 485.862 1421.99 485.559C1453.78 479.274 1484.75 466.224 1512.72 446.07C1523.4 438.376 1533.19 429.982 1542.18 420.923L1542.2 420.906C1555.36 407.604 1566.68 392.973 1576.07 377.368C1578.5 373.353 1580.75 369.288 1582.94 365.129L1582.96 365.113C1583.88 363.394 1584.75 361.669 1585.6 359.92L1585.63 359.903C1622.47 284.865 1617.68 192.323 1565.3 119.635C1512.91 46.9231 1426.68 13.1337 1343.83 24.3312C1341.87 24.5831 1339.95 24.8649 1338.05 25.2099C1333.44 25.9122 1328.84 26.8211 1324.26 27.8565C1306.47 31.7969 1289.03 37.9292 1272.25 46.2025C1260.83 51.8453 1249.72 58.5037 1239.07 66.1806C1211.1 86.3347 1188.92 111.585 1172.89 139.755C1172.18 141.014 1171.46 142.272 1170.79 143.497C1169.05 146.701 1167.39 149.981 1165.8 153.251C1159.83 165.578 1154.97 178.351 1151.26 191.458C1142.42 222.511 1140.09 255.287 1144.54 287.554C1144.79 289.463 1145.07 291.378 1145.41 293.26L1145.42 293.283C1146.21 298.197 1147.14 303.05 1148.26 307.895L1148.28 307.919C1152.39 325.757 1158.62 343.266 1167.06 360.109C1172.56 371.318 1179.07 382.118 1186.59 392.549ZM1216.49 422.151C1206.62 412.67 1197.48 402.137 1189.21 390.659C1180.94 379.181 1173.86 367.159 1167.97 354.818L1167.95 354.795C1159.91 337.954 1154.07 320.51 1150.39 302.721C1149.39 297.855 1148.52 293.032 1147.87 288.161L1147.85 288.138C1147.58 286.246 1147.35 284.36 1147.13 282.435L1147.11 282.411C1143.47 251.325 1146.23 219.912 1155 190.102C1158.81 177.134 1163.78 164.501 1169.86 152.337C1171.47 149.09 1173.18 145.88 1174.96 142.722C1175.65 141.481 1176.37 140.222 1177.09 139.027C1192.78 112.198 1214.17 88.1927 1240.95 68.8916C1252.7 60.4286 1264.98 53.2438 1277.63 47.3111C1294.35 39.3978 1311.75 33.6889 1329.44 30.142C1334 29.2266 1338.62 28.4443 1343.19 27.7988C1345.12 27.5403 1347.05 27.2818 1348.99 27.0866C1429.19 17.9391 1511.95 51.3646 1562.6 121.655C1613.24 191.945 1618.76 280.992 1584.7 354.167C1583.89 355.922 1583.05 357.694 1582.18 359.419C1580.15 363.604 1577.95 367.699 1575.6 371.728C1566.62 387.358 1555.7 402.054 1542.91 415.439C1533.26 425.579 1522.53 434.969 1510.79 443.432C1484 462.733 1454.46 475.423 1424.07 481.794C1422.67 482.098 1421.25 482.378 1419.85 482.642C1416.29 483.331 1412.73 483.917 1409.14 484.417C1395.69 486.359 1382.12 487.049 1368.63 486.582C1337.57 485.513 1306.84 478.154 1278.53 464.847C1276.79 464.049 1275.06 463.21 1273.37 462.338C1268.98 460.161 1264.62 457.823 1260.36 455.338C1244.67 446.196 1229.91 435.112 1216.49 422.151Z" fill="url(#paint2_linear_6_32)" fill-opacity="0.75"/>
<path fill-rule="evenodd" clip-rule="evenodd" d="M1446.63 317.442C1457.02 291.49 1462.43 263.755 1462.58 235.814C1462.69 222.571 1461.62 209.233 1459.32 196.066C1447.54 189.699 1435.25 184.48 1422.65 180.362C1396.1 171.695 1368.06 168.022 1340.19 169.673C1355.84 179.199 1370.51 190.66 1383.82 204.031C1399.56 206.551 1414.97 211.049 1429.64 217.458C1431.05 233.417 1430.42 249.471 1427.83 265.165C1436.3 282.014 1442.53 299.564 1446.63 317.442Z" fill="url(#paint3_linear_6_32)" fill-opacity="0.75"/>
<path fill-rule="evenodd" clip-rule="evenodd" d="M1187.91 137.352C1201.5 135.556 1215.16 134.982 1228.76 135.652C1239.05 122.967 1251.14 111.461 1265 101.476C1287.05 85.5866 1311.4 75.1467 1336.49 69.877C1358.63 82.8908 1378.46 100.576 1394.4 122.695C1404.41 136.595 1412.25 151.39 1418.06 166.694C1431.17 170.445 1443.94 175.352 1456.27 181.358C1449.66 154.218 1437.82 127.907 1420.53 103.902C1410.31 89.7231 1398.76 77.1106 1386.1 66.104C1372.46 54.2169 1357.61 44.186 1341.88 36.1037C1324.46 38.7501 1307.26 43.5053 1290.63 50.4286C1275.19 56.8487 1260.24 65.1138 1246.12 75.2828C1222.17 92.5034 1202.68 113.698 1187.91 137.352Z" fill="url(#paint4_linear_6_32)" fill-opacity="0.75"/>
<path fill-rule="evenodd" clip-rule="evenodd" d="M1429.11 472.046C1456.22 465.528 1482.47 453.756 1506.4 436.512C1520.54 426.327 1533.13 414.779 1544.07 402.159C1555.9 388.577 1565.86 373.723 1573.88 358.039C1571.19 340.597 1566.37 323.34 1559.43 306.66C1552.97 291.188 1544.69 276.217 1534.47 262.038C1517.17 238.033 1495.96 218.478 1472.29 203.632C1474.08 217.231 1474.68 230.88 1474.09 244.498C1486.77 254.851 1498.34 266.994 1508.33 280.87C1524.27 302.989 1534.77 327.398 1540.09 352.498C1527.19 374.631 1509.54 394.424 1487.49 410.313C1473.63 420.298 1458.87 428.103 1443.58 433.849C1439.91 446.963 1435.07 459.719 1429.11 472.046Z" fill="url(#paint5_linear_6_32)" fill-opacity="0.75"/>
<path fill-rule="evenodd" clip-rule="evenodd" d="M1029.58 505.679C1081.95 578.367 1168.2 612.18 1251.06 601.006L1251.09 600.989C1253.01 600.731 1254.9 600.466 1256.81 600.121L1256.83 600.104C1261.42 599.378 1266.01 598.509 1270.59 597.474C1288.38 593.534 1305.84 587.425 1322.66 579.095L1322.68 579.078C1334.07 573.452 1345.16 566.81 1355.83 559.116C1383.8 538.962 1405.99 513.712 1422.01 485.542C1422.74 484.307 1423.44 483.025 1424.12 481.76C1425.86 478.556 1427.55 475.323 1429.15 472.012C1435.13 459.709 1439.96 446.929 1443.67 433.822C1452.5 402.769 1454.84 369.994 1450.39 337.727C1450.12 335.795 1449.84 333.879 1449.5 331.997C1448.73 327.107 1447.78 322.271 1446.66 317.425L1446.64 317.402C1442.55 299.547 1436.31 281.974 1427.84 265.125C1422.3 254.012 1415.77 243.189 1408.27 232.782C1400.77 222.374 1392.59 212.779 1383.82 203.991C1370.5 190.637 1355.83 179.136 1340.2 169.633C1335.96 167.029 1331.67 164.601 1327.26 162.297C1325.56 161.402 1323.83 160.523 1322.12 159.668L1322.11 159.645C1292.91 145.207 1261.05 137.068 1228.83 135.602C1215.22 134.972 1201.56 135.546 1187.98 137.302C1184.37 137.778 1180.74 138.311 1177.16 138.977C1175.75 139.218 1174.31 139.475 1172.93 139.762C1141.14 146.046 1110.17 159.097 1082.2 179.251C1071.52 186.944 1061.71 195.355 1052.74 204.397C1039.54 217.733 1028.22 232.364 1018.83 247.969C1016.4 251.984 1014.13 256.026 1011.98 260.191C1011.07 261.87 1010.19 263.635 1009.32 265.36C972.411 340.449 977.187 432.968 1029.58 505.679ZM1032.27 503.739C981.624 433.449 976.112 344.361 1010.17 271.187C1010.95 269.425 1011.78 267.693 1012.67 265.991C1014.7 261.807 1016.89 257.712 1019.23 253.66C1028.23 238.012 1039.16 223.276 1051.97 209.875C1061.61 199.775 1072.29 190.418 1084.04 181.955C1110.83 162.654 1140.37 149.964 1170.78 143.577C1172.16 143.29 1173.58 143.009 1174.98 142.746C1178.56 142.039 1182.12 141.453 1185.73 140.977C1199.19 139.058 1212.75 138.345 1226.27 138.858C1257.31 139.944 1288 147.296 1316.32 160.563L1316.33 160.587C1318.09 161.368 1319.8 162.224 1321.51 163.079L1321.53 163.102C1325.92 165.28 1330.28 167.617 1334.54 170.102L1334.56 170.125C1350.27 179.251 1365.03 190.335 1378.46 203.296C1388.3 212.794 1397.44 223.286 1405.71 234.765C1414 246.266 1421.06 258.265 1426.95 270.606C1435.02 287.47 1440.86 304.977 1444.54 322.766C1445.55 327.592 1446.4 332.432 1447.07 337.326C1447.36 339.201 1447.59 341.087 1447.81 343.012C1451.45 374.099 1448.71 405.535 1439.91 435.362C1436.09 448.306 1431.12 460.94 1425.04 473.103C1423.43 476.35 1421.72 479.561 1419.94 482.718C1419.26 483.983 1418.53 485.218 1417.8 486.453C1402.12 513.242 1380.75 537.271 1353.96 556.572C1342.2 565.052 1329.89 572.253 1317.24 578.186C1300.48 586.093 1283.06 591.778 1265.39 595.349L1265.37 595.365C1260.81 596.281 1256.21 597.046 1251.61 597.709C1249.7 597.99 1247.79 598.232 1245.89 598.434C1165.62 607.425 1082.92 574.029 1032.27 503.739Z" fill="url(#paint6_linear_6_32)" fill-opacity="0.75"/>
<path fill-rule="evenodd" clip-rule="evenodd" d="M1293.14 462.028C1319.1 472.506 1346.82 477.996 1374.71 478.238C1387.97 478.379 1401.25 477.333 1414.41 475.098C1420.74 463.324 1425.92 451.033 1429.98 438.415C1438.59 411.841 1442.15 383.805 1440.43 355.866C1430.96 371.498 1419.55 386.155 1406.23 399.431C1403.78 415.168 1399.33 430.616 1392.96 445.32C1377.02 446.689 1360.98 446.009 1345.27 443.392C1328.48 451.809 1310.94 458.008 1293.14 462.028Z" fill="url(#paint7_linear_6_32)" fill-opacity="0.75"/>
<path fill-rule="evenodd" clip-rule="evenodd" d="M1174.33 521.532C1184.53 535.687 1196.09 548.3 1208.74 559.307C1222.35 571.187 1237.22 581.201 1252.9 589.317C1270.3 586.647 1287.56 581.922 1304.21 574.982C1319.67 568.585 1334.61 560.297 1348.72 550.128C1372.65 532.884 1392.15 511.69 1406.92 488.035C1393.34 489.792 1379.7 490.348 1366.09 489.718C1355.8 502.403 1343.71 513.95 1329.85 523.935C1307.8 539.824 1283.44 550.264 1258.38 555.517C1236.23 542.543 1216.41 524.817 1200.49 502.722C1190.47 488.822 1182.61 474.004 1176.81 458.7C1163.7 454.949 1150.94 450.065 1138.63 444.043C1145.18 471.192 1157.04 497.527 1174.33 521.532Z" fill="url(#paint8_linear_6_32)" fill-opacity="0.75"/>
<path fill-rule="evenodd" clip-rule="evenodd" d="M1135.52 429.345C1147.28 435.688 1159.58 440.907 1172.17 445.025C1198.75 453.715 1226.77 457.365 1254.65 455.737C1239.03 446.195 1224.38 434.717 1211.07 421.386C1195.35 418.849 1179.9 414.345 1165.18 407.97C1163.78 391.97 1164.41 375.916 1166.98 360.199C1158.55 343.356 1152.3 325.824 1148.21 308.009C1137.81 333.961 1132.43 361.679 1132.25 389.613C1132.15 402.84 1133.23 416.177 1135.52 429.345Z" fill="url(#paint9_linear_6_32)" fill-opacity="0.75"/>
<path fill-rule="evenodd" clip-rule="evenodd" d="M1060.36 363.35C1077.65 387.354 1098.88 406.932 1122.56 421.778C1120.74 408.196 1120.13 394.524 1120.72 380.906C1108.04 370.553 1096.47 358.41 1086.45 344.51C1070.52 322.392 1060.02 297.983 1054.68 272.859C1067.62 250.733 1085.23 230.934 1107.26 215.061C1121.12 205.076 1135.88 197.232 1151.15 191.502C1154.86 178.395 1159.72 165.621 1165.69 153.295C1138.58 159.813 1112.3 171.601 1088.37 188.845C1074.25 199.014 1061.69 210.545 1050.73 223.182C1038.87 236.781 1028.91 251.634 1020.89 267.319C1023.6 284.784 1028.39 302.057 1035.37 318.744C1041.85 334.24 1050.16 349.194 1060.36 363.35Z" fill="url(#paint10_linear_6_32)" fill-opacity="0.75"/>
<path fill-rule="evenodd" clip-rule="evenodd" d="M1195.87 385.859C1206.04 399.968 1217.56 412.534 1230.14 423.487C1243.89 435.474 1258.89 445.571 1274.78 453.68C1292.38 451.043 1309.79 446.28 1326.58 439.28C1341.95 432.91 1356.78 424.665 1370.82 414.547C1384.86 404.428 1397.38 392.93 1408.31 380.39C1420.24 366.661 1430.27 351.654 1438.38 335.8L1438.41 335.783C1435.7 318.174 1430.87 300.711 1423.86 283.874C1417.42 268.489 1409.17 253.604 1399 239.495C1388.85 225.409 1377.35 212.866 1364.79 201.896C1351.04 189.909 1336.03 179.852 1320.21 171.694L1320.19 171.67C1320.17 171.687 1320.15 171.664 1320.15 171.664C1302.55 174.301 1285.17 179.046 1268.36 186.063C1252.99 192.433 1238.12 200.672 1224.05 210.807C1210.01 220.926 1197.49 232.424 1186.58 244.987C1174.65 258.716 1164.65 273.666 1156.56 289.504L1156.58 289.527C1159.22 307.146 1164.05 324.569 1171.07 341.406C1177.47 356.848 1185.71 371.749 1195.87 385.859ZM1280.18 419.867C1257.95 406.88 1238.04 389.181 1222.05 366.992C1206.08 344.827 1195.6 320.338 1190.31 295.142C1203.22 272.929 1220.85 253.049 1242.97 237.11C1265.09 221.171 1289.53 210.744 1314.68 205.527C1336.91 218.514 1356.84 236.236 1372.8 258.378C1388.78 280.566 1399.27 305.056 1404.55 330.252C1391.64 352.465 1373.99 372.361 1351.9 388.284C1329.76 404.2 1305.34 414.65 1280.18 419.867Z" fill="url(#paint11_linear_6_32)" fill-opacity="0.75"/>
<path fill-rule="evenodd" clip-rule="evenodd" d="M1154.4 269.481C1163.88 253.849 1175.28 239.192 1188.6 225.916C1191.05 210.18 1195.52 194.755 1201.89 180.091C1217.85 178.705 1233.89 179.385 1249.6 182.002L1249.62 181.985C1266.43 173.552 1283.92 167.386 1301.75 163.349C1275.81 152.894 1248.08 147.404 1220.18 147.139C1206.92 146.998 1193.6 148.037 1180.45 150.296C1174.14 162.093 1168.95 174.361 1164.91 186.962C1156.26 213.529 1152.7 241.566 1154.4 269.481Z" fill="url(#paint12_linear_6_32)" fill-opacity="0.75"/>
<path fill-rule="evenodd" clip-rule="evenodd" d="M66.6005 424.36C86.8324 452.438 112.141 474.702 140.363 490.798C141.584 491.51 142.868 492.212 144.135 492.891C147.344 494.646 150.607 496.327 153.883 497.928C166.208 503.939 178.985 508.81 192.11 512.545C223.209 521.441 256.038 523.854 288.338 519.397C290.249 519.152 292.183 518.891 294.073 518.519C298.983 517.775 303.87 516.801 308.719 515.677C326.587 511.61 344.145 505.396 361 496.93C372.116 491.396 382.924 484.846 393.332 477.347C403.762 469.832 413.356 461.646 422.147 452.836C435.512 439.527 446.964 424.838 456.5 409.159L456.524 409.142C459.102 404.915 461.549 400.605 463.803 396.222C464.72 394.5 465.573 392.789 466.45 391.061C480.838 361.841 488.956 329.959 490.384 297.628C490.995 283.994 490.418 270.333 488.64 256.722C488.158 253.108 487.596 249.481 486.948 245.881C486.712 244.424 486.445 243.024 486.139 241.617C479.803 209.752 466.694 178.698 446.463 150.619C438.746 139.909 430.312 130.069 421.247 121.073C407.879 107.821 393.217 96.4555 377.582 87.0292C373.559 84.5872 369.486 82.3223 365.338 80.1476C363.639 79.2139 361.887 78.3538 360.159 77.4769C284.954 40.5511 192.346 45.2035 119.658 97.5782C46.9464 149.97 13.2226 236.344 24.574 319.35C24.8355 321.283 25.1203 323.2 25.4684 325.107C26.178 329.725 27.0777 334.311 28.1208 338.901C32.0908 356.732 38.248 374.26 46.5941 391.096L46.6108 391.119C52.2358 402.558 58.9003 413.673 66.6005 424.36ZM69.2314 422.464C60.7428 410.683 53.5497 398.393 47.5694 385.724C39.6304 368.914 33.8971 351.433 30.281 333.701C29.3581 329.131 28.5451 324.517 27.9389 319.896C27.6308 317.996 27.3861 316.086 27.2047 314.165C17.9325 233.799 51.3138 150.926 121.604 100.279C191.871 49.649 281.043 44.2535 354.325 78.4617C356.067 79.2585 357.801 80.0954 359.513 80.949C363.698 83.0267 367.824 85.2181 371.843 87.5567C387.503 96.5759 402.253 107.524 415.687 120.375C425.835 130.041 435.25 140.801 443.755 152.605C463.115 179.473 475.86 209.091 482.298 239.575C482.604 240.981 482.887 242.405 483.153 243.805C483.848 247.371 484.457 250.965 484.945 254.539C486.886 268.032 487.619 281.616 487.148 295.149C486.122 326.271 478.806 357.009 465.526 385.36C464.746 387.124 463.909 388.859 463.032 390.588C460.859 394.983 458.531 399.313 456.05 403.577C446.938 419.303 435.887 434.057 422.892 447.488L422.869 447.505C413.392 457.375 402.884 466.503 391.383 474.79C379.904 483.06 367.904 490.116 355.575 496.028C338.728 504.064 321.212 509.894 303.426 513.584C298.573 514.604 293.73 515.442 288.855 516.089C286.938 516.374 285.028 516.618 283.124 516.823C252.01 520.424 220.537 517.635 190.69 508.758C177.704 504.922 165.05 499.927 152.865 493.816C149.59 492.214 146.373 490.5 143.21 488.711C141.966 488.016 140.706 487.297 139.508 486.568L139.492 486.545C112.652 470.797 88.591 449.332 69.2314 422.464Z" fill="url(#paint13_linear_6_32)" fill-opacity="0.75"/>
<path fill-rule="evenodd" clip-rule="evenodd" d="M180.04 581.797C187.74 592.483 196.174 602.323 205.238 611.319C218.567 624.565 233.229 635.93 248.863 645.356C252.887 647.798 256.976 650.087 261.125 652.261C262.847 653.178 264.592 654.078 266.383 654.945L266.407 654.928C341.529 691.984 434.137 687.332 506.848 634.941C579.56 582.549 613.284 496.175 601.932 413.169L601.956 413.152C601.701 411.178 601.416 409.261 601.051 407.331C600.341 402.714 599.425 398.104 598.382 393.515L598.405 393.498C594.428 375.707 588.271 358.179 579.925 341.343C574.277 329.92 567.596 318.783 559.896 308.096C539.68 280.04 514.372 257.777 486.15 241.681C484.912 240.945 483.628 240.243 482.361 239.565C479.175 237.793 475.912 236.112 472.613 234.528C460.288 228.517 447.471 223.639 434.345 219.904C403.264 211.032 370.452 208.642 338.181 213.042L338.164 213.018C336.23 213.28 334.313 213.565 332.407 213.913L332.39 213.89C327.512 214.68 322.633 215.615 317.783 216.739C299.933 220.829 282.398 227.026 265.526 235.469L265.502 235.486C254.363 241.036 243.561 247.546 233.131 255.062C222.724 262.561 213.106 270.763 204.322 279.533C190.957 292.842 179.505 307.531 169.992 323.193C167.391 327.437 164.943 331.747 162.643 336.163L162.66 336.187C161.726 337.885 160.849 339.614 160.012 341.348C145.601 370.584 137.5 402.49 136.079 434.781C135.468 448.415 136.061 462.1 137.862 475.693C138.321 479.324 138.883 482.951 139.555 486.535L139.572 486.558C139.814 487.975 140.074 489.415 140.363 490.798C146.7 522.664 159.808 553.718 180.04 581.797ZM210.689 612.061C200.564 602.378 191.183 591.665 182.694 579.884C163.335 553.016 150.589 523.398 144.151 492.914C143.862 491.531 143.539 490.101 143.29 488.724C142.595 485.158 141.986 481.564 141.481 477.967L141.464 477.943C139.524 464.451 138.79 450.866 139.285 437.317C140.311 406.194 147.626 375.457 160.907 347.106L160.89 347.083C161.687 345.341 162.523 343.607 163.394 341.918L163.377 341.895C165.551 337.499 167.925 333.136 170.389 328.849C179.518 313.146 190.569 298.392 203.524 284.954L203.507 284.931C213.001 275.084 223.508 265.957 235.01 257.669C246.511 249.382 258.512 242.327 270.857 236.438L270.881 236.421C287.727 228.385 305.221 222.572 323.006 218.882C327.836 217.878 332.68 217.041 337.561 216.354L337.577 216.377C339.478 216.069 341.405 215.847 343.309 215.643C374.399 212.058 405.872 214.847 435.702 223.701C448.665 227.554 461.342 232.532 473.527 238.644C476.78 240.262 479.996 241.976 483.159 243.765C484.403 244.46 485.664 245.179 486.901 245.914C513.741 261.663 537.825 283.11 557.184 309.979C565.69 321.783 572.917 334.119 578.874 346.805C586.796 363.592 592.536 381.032 596.135 398.742C597.058 403.311 597.854 407.902 598.5 412.529C598.785 414.446 599.047 416.38 599.268 418.308L599.245 418.324C608.5 498.667 575.159 581.546 504.892 632.176C434.602 682.823 345.43 688.219 272.131 653.987L272.107 654.004C270.349 653.184 268.574 652.341 266.846 651.464C262.661 649.386 258.559 647.178 254.516 644.856C238.833 635.854 224.106 624.889 210.689 612.061Z" fill="url(#paint14_linear_6_32)" fill-opacity="0.75"/>
<path fill-rule="evenodd" clip-rule="evenodd" d="M202.062 446.342C209.561 456.749 217.78 466.389 226.574 475.157C239.866 488.499 254.555 499.951 270.193 509.481C274.46 512.065 278.794 514.496 283.187 516.813C284.892 517.707 286.597 518.6 288.355 519.42C317.568 533.848 349.473 541.949 381.788 543.354C395.421 543.965 409.083 543.388 422.693 541.61C426.324 541.152 429.935 540.566 433.535 539.918C434.968 539.698 436.392 539.415 437.798 539.109C469.664 532.773 500.718 519.664 528.773 499.449C539.483 491.732 549.3 483.315 558.32 474.234L558.343 474.217C571.548 460.882 582.914 446.22 592.34 430.586C594.782 426.563 597.047 422.49 599.245 418.324L599.268 418.308C600.185 416.586 601.062 414.857 601.922 413.106L601.945 413.089C638.968 337.92 634.299 245.289 581.924 172.601C529.533 99.8893 443.175 66.1888 360.153 77.5169C358.179 77.7719 356.262 78.0567 354.355 78.4049C349.738 79.1145 345.128 80.0309 340.538 81.074C322.707 85.044 305.219 91.2077 288.39 99.5137C276.944 105.179 265.806 111.86 255.119 119.56C227.064 139.775 204.801 165.084 188.704 193.306C187.986 194.567 187.267 195.827 186.595 197.054C184.84 200.264 183.175 203.55 181.574 206.826C175.581 219.174 170.686 231.968 166.951 245.093C158.055 276.192 155.665 309.004 160.082 341.298C160.327 343.209 160.612 345.126 160.943 347.009L160.96 347.032C161.744 351.95 162.661 356.806 163.786 361.656L163.802 361.679C167.893 379.53 174.113 397.048 182.539 413.896C188.037 425.109 194.546 435.911 202.062 446.342ZM231.978 475.932C222.107 466.455 212.963 455.924 204.693 444.446C196.422 432.968 189.35 420.944 183.461 408.598L183.445 408.575C175.409 391.728 169.589 374.275 165.923 356.473C164.925 351.603 164.064 346.776 163.417 341.902L163.4 341.878C163.132 339.985 162.904 338.097 162.683 336.17L162.666 336.147C159.065 305.034 161.871 273.584 170.708 243.73C174.544 230.744 179.539 218.09 185.65 205.905C187.268 202.653 188.983 199.436 190.771 196.273C191.467 195.029 192.186 193.769 192.915 192.571C208.669 165.692 230.134 141.631 257.002 122.271C268.783 113.783 281.096 106.573 293.782 100.616C310.552 92.6702 327.993 86.9304 345.719 83.3544C350.288 82.4315 354.919 81.6418 359.506 80.989C361.44 80.7275 363.374 80.466 365.318 80.2678C445.684 70.9956 528.563 104.337 579.21 174.627C629.857 244.917 635.259 334.049 601.028 407.348C600.208 409.106 599.364 410.881 598.487 412.61C596.45 416.801 594.241 420.904 591.88 424.94C582.86 440.6 571.896 455.326 559.068 468.743C549.378 478.908 538.619 488.323 526.838 496.812C499.97 516.171 470.352 528.917 439.891 535.338C438.485 535.644 437.061 535.927 435.661 536.193C432.095 536.888 428.524 537.48 424.927 537.985C411.451 539.949 397.85 540.659 384.334 540.211C353.211 539.185 322.434 531.863 294.083 518.583C292.342 517.786 290.607 516.949 288.919 516.079C284.523 513.905 280.153 511.571 275.889 509.09C260.186 499.961 245.415 488.887 231.978 475.932Z" fill="url(#paint15_linear_6_32)" fill-opacity="0.75"/>
<path fill-rule="evenodd" clip-rule="evenodd" d="M462.734 370.783C473.185 344.789 478.641 317.018 478.826 289.049C478.965 275.791 477.906 262.441 475.626 249.263C463.83 242.907 451.519 237.7 438.906 233.596C412.309 224.959 384.222 221.322 356.296 223.015C371.958 232.528 386.647 243.98 399.956 257.345C415.729 259.846 431.16 264.326 445.848 270.72C447.241 286.694 446.584 302.766 443.97 318.479C452.436 335.334 458.65 352.892 462.734 370.783Z" fill="url(#paint16_linear_6_32)" fill-opacity="0.75"/>
<path fill-rule="evenodd" clip-rule="evenodd" d="M203.756 190.879C217.373 189.061 231.058 188.467 244.685 189.118C255.014 176.406 267.146 164.87 281.046 154.855C303.164 138.917 327.583 128.432 352.725 123.12C374.893 136.116 394.738 153.791 410.675 175.91C420.691 189.81 428.524 204.609 434.322 219.921C447.448 223.656 460.242 228.551 472.59 234.544C466.002 207.387 454.181 181.065 436.885 157.06C426.668 142.881 415.107 130.272 402.442 119.272C388.789 107.392 373.929 97.3725 358.176 89.3044C340.72 91.9786 323.476 96.7635 306.805 103.718C291.326 110.167 276.328 118.462 262.173 128.662C238.151 145.934 218.583 167.179 203.756 190.879Z" fill="url(#paint17_linear_6_32)" fill-opacity="0.75"/>
<path fill-rule="evenodd" clip-rule="evenodd" d="M444.951 525.573C472.126 519.009 498.448 507.187 522.452 489.891C536.632 479.675 549.264 468.097 560.24 455.448C572.114 441.835 582.117 426.952 590.178 411.239C587.504 393.783 582.703 376.516 575.772 359.828C569.323 344.349 561.044 329.375 550.828 315.196C533.532 291.191 512.304 271.647 488.604 256.819C490.382 270.429 490.959 284.091 490.348 297.725C503.037 308.07 514.613 320.209 524.611 334.085C540.549 356.204 551.034 380.623 556.329 405.741C543.373 427.916 525.658 447.755 503.539 463.692C489.64 473.707 474.84 481.541 459.512 487.315C455.816 500.448 450.945 513.225 444.951 525.573Z" fill="url(#paint18_linear_6_32)" fill-opacity="0.75"/>
<path fill-rule="evenodd" clip-rule="evenodd" d="M44.5784 559.815C96.9532 632.503 183.327 666.227 266.367 654.922L266.39 654.905C268.324 654.644 270.217 654.375 272.124 654.027L272.148 654.011C276.748 653.278 281.352 652.401 285.941 651.358C303.772 647.388 321.277 641.248 338.136 632.885L338.159 632.868C349.582 627.22 360.696 620.555 371.406 612.839C399.462 592.623 421.725 567.315 437.822 539.093C438.557 537.855 439.259 536.571 439.938 535.304C441.692 532.094 443.39 528.855 444.998 525.539C451.009 513.214 455.863 500.414 459.598 487.288C468.494 456.19 470.884 423.378 466.467 391.084C466.206 389.15 465.921 387.233 465.589 385.35C464.822 380.455 463.881 375.616 462.757 370.766L462.74 370.743C458.673 352.876 452.442 335.294 443.976 318.439C438.443 307.323 431.916 296.498 424.417 286.091C416.918 275.683 408.732 266.089 399.962 257.305C386.63 243.956 371.948 232.465 356.303 222.975C352.059 220.374 347.765 217.949 343.349 215.649C341.644 214.755 339.916 213.879 338.204 213.025L338.187 213.002C308.951 198.591 277.046 190.489 244.755 189.068C231.121 188.457 217.436 189.051 203.826 190.828C200.212 191.31 196.568 191.849 192.984 192.521C191.568 192.764 190.128 193.023 188.744 193.312C156.878 199.649 125.825 212.757 97.7691 232.973C87.0591 240.69 77.2194 249.123 68.223 258.188C54.9709 271.556 43.6057 286.218 34.1794 301.853C31.7374 305.876 29.4556 309.925 27.2978 314.098C26.3874 315.779 25.5039 317.548 24.627 319.276C-12.4654 394.495 -7.81305 487.103 44.5784 559.815ZM47.2792 557.869C-3.36757 487.578 -8.76302 398.407 25.4684 325.107C26.2484 323.343 27.0853 321.608 27.979 319.903C30.0166 315.711 32.2248 311.609 34.5699 307.549C43.6124 291.873 54.5835 277.106 67.435 263.672C77.1175 253.547 87.8307 244.166 99.6117 235.677C126.48 216.318 156.097 203.572 186.582 197.134C187.965 196.845 189.388 196.562 190.788 196.296C194.378 195.584 197.949 194.993 201.563 194.511C215.055 192.57 228.64 191.837 242.189 192.331C273.288 193.374 304.026 200.689 332.383 213.93L332.4 213.953C334.165 214.733 335.876 215.587 337.588 216.44L337.605 216.464C342 218.637 346.37 220.971 350.634 223.452L350.65 223.475C366.377 232.588 381.148 243.662 394.585 256.617C404.432 266.111 413.583 276.601 421.853 288.079C430.141 299.581 437.196 311.581 443.085 323.927C451.137 340.797 456.968 358.314 460.634 376.116C461.638 380.946 462.475 385.789 463.139 390.687C463.431 392.564 463.659 394.451 463.88 396.379C467.481 427.492 464.692 458.965 455.832 488.835C451.979 501.798 446.984 514.452 440.873 526.637C439.255 529.889 437.54 533.106 435.752 536.269C435.073 537.536 434.337 538.773 433.602 540.011C417.854 566.85 396.406 590.935 369.538 610.294C357.734 618.8 345.397 626.026 332.711 631.983C315.901 639.922 298.444 645.639 280.735 649.238L280.711 649.255C276.142 650.178 271.534 650.951 266.924 651.62C265.007 651.905 263.096 652.15 261.192 652.354C180.749 661.47 97.926 628.159 47.2792 557.869Z" fill="url(#paint19_linear_6_32)" fill-opacity="0.75"/>
<path fill-rule="evenodd" clip-rule="evenodd" d="M308.73 515.74C334.723 526.191 362.494 531.648 390.441 531.849C403.722 531.971 417.031 530.905 430.226 528.649C436.582 516.854 441.789 504.542 445.877 491.905C454.537 465.292 458.151 437.221 456.464 409.256C446.951 424.918 435.499 439.607 422.134 452.916C419.657 468.672 415.17 484.143 408.769 498.871C392.796 500.264 376.724 499.607 360.987 497.01C344.155 505.459 326.574 511.69 308.73 515.74Z" fill="url(#paint20_linear_6_32)" fill-opacity="0.75"/>
<path fill-rule="evenodd" clip-rule="evenodd" d="M189.598 575.475C199.798 589.631 211.359 602.24 224.024 613.24C237.638 625.113 252.521 635.117 268.227 643.218C285.666 640.521 302.967 635.766 319.661 628.795C335.157 622.369 350.138 614.05 364.294 603.851C388.298 586.555 407.866 565.31 422.693 541.61C409.083 543.388 395.421 543.965 381.788 543.354C371.459 556.067 359.32 567.642 345.421 577.658C323.302 593.595 298.883 604.081 273.765 609.375C251.59 596.42 231.751 578.704 215.831 556.609C205.816 542.709 197.965 527.887 192.167 512.575C179.041 508.839 166.265 503.968 153.94 497.958C160.464 525.126 172.302 551.471 189.598 575.475Z" fill="url(#paint21_linear_6_32)" fill-opacity="0.75"/>
<path fill-rule="evenodd" clip-rule="evenodd" d="M150.84 483.249C162.619 489.582 174.93 494.789 187.544 498.893C214.157 507.554 242.228 511.167 270.17 509.497C254.531 499.968 239.866 488.499 226.55 475.173C210.801 472.656 195.33 468.17 180.595 461.809C179.208 445.795 179.866 429.723 182.463 413.987C174.037 397.138 167.799 379.597 163.726 361.769C153.275 387.763 147.842 415.517 147.617 443.481C147.501 456.722 148.561 470.071 150.84 483.249Z" fill="url(#paint22_linear_6_32)" fill-opacity="0.75"/>
<path fill-rule="evenodd" clip-rule="evenodd" d="M75.6218 417.293C92.9179 441.298 114.162 460.866 137.862 475.693C136.061 462.1 135.468 448.415 136.079 434.781C123.389 424.435 111.813 412.297 101.798 398.397C85.8608 376.279 75.375 351.859 70.0638 326.718C83.0593 304.55 100.735 284.705 122.83 268.784C136.73 258.769 151.536 250.895 166.841 245.137C170.576 232.011 175.471 219.218 181.464 206.87C154.29 213.434 127.945 225.272 103.94 242.568C89.7844 252.768 77.1754 264.329 66.1756 276.994C54.2791 290.624 44.2758 305.507 36.2143 321.22C38.9052 338.699 43.6836 355.983 50.6546 372.678C57.1204 388.18 65.422 403.138 75.6218 417.293Z" fill="url(#paint23_linear_6_32)" fill-opacity="0.75"/>
<path fill-rule="evenodd" clip-rule="evenodd" d="M211.375 439.631C221.541 453.74 233.069 466.303 245.661 477.25C259.421 489.229 274.435 499.315 290.347 507.409C307.987 504.744 325.438 499.952 342.265 492.92C357.674 486.522 372.545 478.247 386.631 468.098C400.717 457.948 413.28 446.42 424.243 433.852C436.223 420.092 446.292 405.055 454.443 389.172L454.466 389.155C451.778 371.532 446.969 354.058 439.96 337.214C433.539 321.821 425.287 306.934 415.121 292.824C404.972 278.738 393.461 266.199 380.892 255.236C367.132 243.256 352.112 233.21 336.269 225.066L336.252 225.043C336.229 225.059 336.212 225.036 336.212 225.036C318.572 227.701 301.145 232.477 284.294 239.525C268.885 245.924 253.974 254.192 239.865 264.358C225.779 274.507 213.216 286.035 202.269 298.627C190.29 312.387 180.251 327.367 172.123 343.233L172.14 343.257C174.764 360.89 179.58 378.324 186.589 395.168C192.981 410.617 201.209 425.522 211.375 439.631ZM295.805 473.553C273.551 460.585 253.625 442.896 237.638 420.708C221.667 398.543 211.194 374.043 205.936 348.828C218.905 326.574 236.593 306.648 258.781 290.661C280.97 274.673 305.469 264.201 330.684 258.942C352.939 271.911 372.881 289.623 388.835 311.764C404.823 333.953 415.295 358.452 420.553 383.667C407.585 405.922 389.873 425.864 367.708 441.835C345.503 457.799 321.02 468.295 295.805 473.553Z" fill="url(#paint24_linear_6_32)" fill-opacity="0.75"/>
<path fill-rule="evenodd" clip-rule="evenodd" d="M169.992 323.193C179.505 307.531 190.957 292.842 204.322 279.533C206.799 263.777 211.302 248.33 217.697 233.642C233.694 232.231 249.766 232.889 265.502 235.486L265.526 235.469C282.381 227.003 299.916 220.806 317.783 216.739C291.806 206.311 264.035 200.855 236.072 200.63C222.791 200.508 209.441 201.567 196.264 203.847C189.924 215.665 184.701 227.953 180.636 240.573C171.936 267.18 168.322 295.251 169.992 323.193Z" fill="url(#paint25_linear_6_32)" fill-opacity="0.75"/>
<defs>
<linearGradient id="paint0_linear_6_32" x1="1067.5" y1="123.5" x2="1428.5" y2="479" gradientUnits="userSpaceOnUse">
<stop stop-color="#2C4E9B" stop-opacity="0.1"/>
<stop offset="1" stop-color="white" stop-opacity="0.1"/>
</linearGradient>
<linearGradient id="paint1_linear_6_32" x1="1067.5" y1="123.5" x2="1428.5" y2="479" gradientUnits="userSpaceOnUse">
<stop stop-color="#2C4E9B" stop-opacity="0.1"/>
<stop offset="1" stop-color="white" stop-opacity="0.1"/>
</linearGradient>
<linearGradient id="paint2_linear_6_32" x1="1067.5" y1="123.5" x2="1428.5" y2="479" gradientUnits="userSpaceOnUse">
<stop stop-color="#2C4E9B" stop-opacity="0.1"/>
<stop offset="1" stop-color="white" stop-opacity="0.1"/>
</linearGradient>
<linearGradient id="paint3_linear_6_32" x1="1067.5" y1="123.5" x2="1428.5" y2="479" gradientUnits="userSpaceOnUse">
<stop stop-color="#2C4E9B" stop-opacity="0.1"/>
<stop offset="1" stop-color="white" stop-opacity="0.1"/>
</linearGradient>
<linearGradient id="paint4_linear_6_32" x1="1067.5" y1="123.5" x2="1428.5" y2="479" gradientUnits="userSpaceOnUse">
<stop stop-color="#2C4E9B" stop-opacity="0.1"/>
<stop offset="1" stop-color="white" stop-opacity="0.1"/>
</linearGradient>
<linearGradient id="paint5_linear_6_32" x1="1067.5" y1="123.5" x2="1428.5" y2="479" gradientUnits="userSpaceOnUse">
<stop stop-color="#2C4E9B" stop-opacity="0.1"/>
<stop offset="1" stop-color="white" stop-opacity="0.1"/>
</linearGradient>
<linearGradient id="paint6_linear_6_32" x1="1067.5" y1="123.5" x2="1428.5" y2="479" gradientUnits="userSpaceOnUse">
<stop stop-color="#2C4E9B" stop-opacity="0.1"/>
<stop offset="1" stop-color="white" stop-opacity="0.1"/>
</linearGradient>
<linearGradient id="paint7_linear_6_32" x1="1067.5" y1="123.5" x2="1428.5" y2="479" gradientUnits="userSpaceOnUse">
<stop stop-color="#2C4E9B" stop-opacity="0.1"/>
<stop offset="1" stop-color="white" stop-opacity="0.1"/>
</linearGradient>
<linearGradient id="paint8_linear_6_32" x1="1067.5" y1="123.5" x2="1428.5" y2="479" gradientUnits="userSpaceOnUse">
<stop stop-color="#2C4E9B" stop-opacity="0.1"/>
<stop offset="1" stop-color="white" stop-opacity="0.1"/>
</linearGradient>
<linearGradient id="paint9_linear_6_32" x1="1067.5" y1="123.5" x2="1428.5" y2="479" gradientUnits="userSpaceOnUse">
<stop stop-color="#2C4E9B" stop-opacity="0.1"/>
<stop offset="1" stop-color="white" stop-opacity="0.1"/>
</linearGradient>
<linearGradient id="paint10_linear_6_32" x1="1067.5" y1="123.5" x2="1428.5" y2="479" gradientUnits="userSpaceOnUse">
<stop stop-color="#2C4E9B" stop-opacity="0.1"/>
<stop offset="1" stop-color="white" stop-opacity="0.1"/>
</linearGradient>
<linearGradient id="paint11_linear_6_32" x1="1067.5" y1="123.5" x2="1428.5" y2="479" gradientUnits="userSpaceOnUse">
<stop stop-color="#2C4E9B" stop-opacity="0.1"/>
<stop offset="1" stop-color="white" stop-opacity="0.1"/>
</linearGradient>
<linearGradient id="paint12_linear_6_32" x1="1067.5" y1="123.5" x2="1428.5" y2="479" gradientUnits="userSpaceOnUse">
<stop stop-color="#2C4E9B" stop-opacity="0.1"/>
<stop offset="1" stop-color="white" stop-opacity="0.1"/>
</linearGradient>
<linearGradient id="paint13_linear_6_32" x1="69.5" y1="179.5" x2="405.5" y2="517.5" gradientUnits="userSpaceOnUse">
<stop stop-color="#2C4E9B" stop-opacity="0.1"/>
<stop offset="1" stop-color="white" stop-opacity="0.1"/>
</linearGradient>
<linearGradient id="paint14_linear_6_32" x1="69.5" y1="179.5" x2="405.5" y2="517.5" gradientUnits="userSpaceOnUse">
<stop stop-color="#2C4E9B" stop-opacity="0.1"/>
<stop offset="1" stop-color="white" stop-opacity="0.1"/>
</linearGradient>
<linearGradient id="paint15_linear_6_32" x1="69.5" y1="179.5" x2="405.5" y2="517.5" gradientUnits="userSpaceOnUse">
<stop stop-color="#2C4E9B" stop-opacity="0.1"/>
<stop offset="1" stop-color="white" stop-opacity="0.1"/>
</linearGradient>
<linearGradient id="paint16_linear_6_32" x1="69.5" y1="179.5" x2="405.5" y2="517.5" gradientUnits="userSpaceOnUse">
<stop stop-color="#2C4E9B" stop-opacity="0.1"/>
<stop offset="1" stop-color="white" stop-opacity="0.1"/>
</linearGradient>
<linearGradient id="paint17_linear_6_32" x1="69.5" y1="179.5" x2="405.5" y2="517.5" gradientUnits="userSpaceOnUse">
<stop stop-color="#2C4E9B" stop-opacity="0.1"/>
<stop offset="1" stop-color="white" stop-opacity="0.1"/>
</linearGradient>
<linearGradient id="paint18_linear_6_32" x1="69.5" y1="179.5" x2="405.5" y2="517.5" gradientUnits="userSpaceOnUse">
<stop stop-color="#2C4E9B" stop-opacity="0.1"/>
<stop offset="1" stop-color="white" stop-opacity="0.1"/>
</linearGradient>
<linearGradient id="paint19_linear_6_32" x1="69.5" y1="179.5" x2="405.5" y2="517.5" gradientUnits="userSpaceOnUse">
<stop stop-color="#2C4E9B" stop-opacity="0.1"/>
<stop offset="1" stop-color="white" stop-opacity="0.1"/>
</linearGradient>
<linearGradient id="paint20_linear_6_32" x1="69.5" y1="179.5" x2="405.5" y2="517.5" gradientUnits="userSpaceOnUse">
<stop stop-color="#2C4E9B" stop-opacity="0.1"/>
<stop offset="1" stop-color="white" stop-opacity="0.1"/>
</linearGradient>
<linearGradient id="paint21_linear_6_32" x1="69.5" y1="179.5" x2="405.5" y2="517.5" gradientUnits="userSpaceOnUse">
<stop stop-color="#2C4E9B" stop-opacity="0.1"/>
<stop offset="1" stop-color="white" stop-opacity="0.1"/>
</linearGradient>
<linearGradient id="paint22_linear_6_32" x1="69.5" y1="179.5" x2="405.5" y2="517.5" gradientUnits="userSpaceOnUse">
<stop stop-color="#2C4E9B" stop-opacity="0.1"/>
<stop offset="1" stop-color="white" stop-opacity="0.1"/>
</linearGradient>
<linearGradient id="paint23_linear_6_32" x1="69.5" y1="179.5" x2="405.5" y2="517.5" gradientUnits="userSpaceOnUse">
<stop stop-color="#2C4E9B" stop-opacity="0.1"/>
<stop offset="1" stop-color="white" stop-opacity="0.1"/>
</linearGradient>
<linearGradient id="paint24_linear_6_32" x1="69.5" y1="179.5" x2="405.5" y2="517.5" gradientUnits="userSpaceOnUse">
<stop stop-color="#2C4E9B" stop-opacity="0.1"/>
<stop offset="1" stop-color="white" stop-opacity="0.1"/>
</linearGradient>
<linearGradient id="paint25_linear_6_32" x1="69.5" y1="179.5" x2="405.5" y2="517.5" gradientUnits="userSpaceOnUse">
<stop stop-color="#2C4E9B" stop-opacity="0.1"/>
<stop offset="1" stop-color="white" stop-opacity="0.1"/>
</linearGradient>
</defs>
</svg>
